SplineFontDB: 3.2
FontName: IRNaskh
FullName: IRNaskh
FamilyName: IRNaskh
Weight: Book
Copyright: Copyright (c) 2022, Information Technology Organization of Iran (ito.gov.ir)
Version: 1.001
ItalicAngle: 0
UnderlinePosition: -100
UnderlineWidth: 60
Ascent: 1638
Descent: 410
InvalidEm: 0
sfntRevision: 0x00010042
LayerCount: 2
Layer: 0 1 "Back" 1
Layer: 1 1 "Fore" 0
XUID: [1021 420 722297922 15929380]
StyleMap: 0x0040
FSType: 0
OS2Version: 3
OS2_WeightWidthSlopeOnly: 0
OS2_UseTypoMetrics: 0
CreationTime: 1355089834
ModificationTime: 1662630045
PfmFamily: 17
TTFWeight: 400
TTFWidth: 5
LineGap: 100
VLineGap: 0
Panose: 2 0 5 3 0 0 0 2 0 2
OS2TypoAscent: 2616
OS2TypoAOffset: 0
OS2TypoDescent: -1334
OS2TypoDOffset: 0
OS2TypoLinegap: 1500
OS2WinAscent: 2616
OS2WinAOffset: 0
OS2WinDescent: 1334
OS2WinDOffset: 0
HheadAscent: 2616
HheadAOffset: 0
HheadDescent: -1334
HheadDOffset: 0
OS2SubXSize: 1434
OS2SubYSize: 1331
OS2SubXOff: 0
OS2SubYOff: 293
OS2SupXSize: 1434
OS2SupYSize: 1331
OS2SupXOff: 0
OS2SupYOff: 930
OS2StrikeYSize: 50
OS2StrikeYPos: 250
OS2CapHeight: 2386
OS2XHeight: 594
OS2FamilyClass: 2048
OS2Vendor: 'PARS'
OS2CodePages: 20000041.00000000
OS2UnicodeRanges: 00002003.00000000.00000000.00000000
Lookup: 1 1 0 "'isol' Isolated Forms in Arabic lookup 0" { "'isol' Isolated Forms in Arabic lookup 0 subtable"  } ['isol' ('arab' <'dflt' > ) ]
Lookup: 1 1 0 "'init' Initial Forms in Arabic lookup 1" { "'init' Initial Forms in Arabic lookup 1 subtable"  } ['init' ('arab' <'dflt' > ) ]
Lookup: 1 1 0 "'fina' Terminal Forms in Arabic lookup 2" { "'fina' Terminal Forms in Arabic lookup 2 subtable"  } ['fina' ('arab' <'dflt' > ) ]
Lookup: 1 1 0 "'medi' Medial Forms in Arabic lookup 3" { "'medi' Medial Forms in Arabic lookup 3 subtable"  } ['medi' ('arab' <'dflt' > ) ]
Lookup: 4 1 0 "'ccmp' Glyph Composition/Decomposition in Arabic lookup 4" { "'ccmp' Glyph Composition/Decomposition in Arabic lookup 4 subtable"  } ['ccmp' ('arab' <'dflt' > ) ]

StartChar: quotedbl
Encoding: 34 34 4
Width: 779
Flags: W
LayerCount: 2
Fore
SplineSet
219 912 m 1,0,1
 214 942 214 942 210.5 964.5 c 128,-1,2
 207 987 207 987 205 998 c 0,3,4
 186 1109 186 1109 175 1188.5 c 128,-1,5
 164 1268 164 1268 164 1296 c 0,6,7
 164 1354 164 1354 186 1388 c 128,-1,8
 208 1422 208 1422 244 1422 c 0,9,10
 261 1422 261 1422 275.5 1413 c 128,-1,11
 290 1404 290 1404 301 1388 c 128,-1,12
 312 1372 312 1372 318 1350 c 128,-1,13
 324 1328 324 1328 324 1303 c 0,14,15
 324 1288 324 1288 321.5 1261.5 c 128,-1,16
 319 1235 319 1235 312.5 1190.5 c 128,-1,17
 306 1146 306 1146 295.5 1078 c 128,-1,18
 285 1010 285 1010 269 912 c 1,19,-1
 219 912 l 1,0,1
519 912 m 1,20,21
 514 942 514 942 510.5 964.5 c 128,-1,22
 507 987 507 987 505 998 c 0,23,24
 486 1109 486 1109 475 1188.5 c 128,-1,25
 464 1268 464 1268 464 1296 c 0,26,27
 464 1354 464 1354 486 1388 c 128,-1,28
 508 1422 508 1422 544 1422 c 0,29,30
 561 1422 561 1422 575.5 1413 c 128,-1,31
 590 1404 590 1404 601 1388 c 128,-1,32
 612 1372 612 1372 618 1350 c 128,-1,33
 624 1328 624 1328 624 1303 c 0,34,35
 624 1288 624 1288 621.5 1261.5 c 128,-1,36
 619 1235 619 1235 612.5 1190.5 c 128,-1,37
 606 1146 606 1146 595.5 1078 c 128,-1,38
 585 1010 585 1010 569 912 c 1,39,-1
 519 912 l 1,20,21
EndSplineSet
EndChar

StartChar: quotesingle
Encoding: 39 39 5
Width: 484
Flags: W
LayerCount: 2
Fore
SplineSet
209 912 m 1,0,1
 204 942 204 942 200.5 964.5 c 128,-1,2
 197 987 197 987 195 998 c 0,3,4
 176 1109 176 1109 165 1188.5 c 128,-1,5
 154 1268 154 1268 154 1296 c 0,6,7
 154 1354 154 1354 176 1388 c 128,-1,8
 198 1422 198 1422 234 1422 c 0,9,10
 251 1422 251 1422 265.5 1413 c 128,-1,11
 280 1404 280 1404 291 1388 c 128,-1,12
 302 1372 302 1372 308 1350 c 128,-1,13
 314 1328 314 1328 314 1303 c 0,14,15
 314 1288 314 1288 311.5 1261.5 c 128,-1,16
 309 1235 309 1235 302.5 1190.5 c 128,-1,17
 296 1146 296 1146 285.5 1078 c 128,-1,18
 275 1010 275 1010 259 912 c 1,19,-1
 209 912 l 1,0,1
EndSplineSet
EndChar

StartChar: asterisk
Encoding: 42 42 6
Width: 1126
Flags: W
LayerCount: 2
Fore
SplineSet
568 347 m 1,0,-1
 574 687 l 1,1,-1
 355 467 l 1,2,-1
 250 467 l 1,3,-1
 527 746 l 1,4,-1
 203 746 l 1,5,-1
 223 839 l 1,6,-1
 547 839 l 1,7,-1
 277 1104 l 1,8,-1
 370 1104 l 1,9,-1
 579 899 l 1,10,-1
 585 1199 l 1,11,-1
 704 1239 l 1,12,-1
 699 912 l 1,13,-1
 905 1104 l 1,14,-1
 1013 1104 l 1,15,-1
 730 839 l 1,16,-1
 1065 839 l 1,17,-1
 1043 746 l 1,18,-1
 729 746 l 1,19,-1
 1002 467 l 1,20,-1
 910 467 l 1,21,-1
 696 687 l 1,22,-1
 688 386 l 1,23,-1
 568 347 l 1,0,-1
EndSplineSet
EndChar

StartChar: plus
Encoding: 43 43 7
Width: 1183
GlyphClass: 2
Flags: W
LayerCount: 2
Fore
SplineSet
1041 533 m 1,0,-1
 645 533 l 1,1,-1
 645 141 l 1,2,-1
 501 141 l 1,3,-1
 501 533 l 1,4,-1
 109 533 l 1,5,-1
 109 682 l 1,6,-1
 501 682 l 1,7,-1
 501 1077 l 1,8,-1
 645 1077 l 1,9,-1
 645 682 l 1,10,-1
 1041 682 l 1,11,-1
 1041 533 l 1,0,-1
EndSplineSet
EndChar

StartChar: hyphen
Encoding: 45 45 8
Width: 1360
Flags: W
LayerCount: 2
Fore
SplineSet
182 721 m 1,0,-1
 1167 721 l 1,1,-1
 1167 573 l 1,2,-1
 182 573 l 1,3,-1
 182 721 l 1,0,-1
EndSplineSet
EndChar

StartChar: period
Encoding: 46 46 9
Width: 701
GlyphClass: 2
Flags: W
LayerCount: 2
Fore
SplineSet
630 122 m 0,0,1
 630 69 630 69 593.5 34 c 128,-1,2
 557 -1 557 -1 505 -1 c 256,3,4
 453 -1 453 -1 418 34 c 128,-1,5
 383 69 383 69 383 122 c 0,6,7
 383 173 383 173 418 208.5 c 128,-1,8
 453 244 453 244 505 244 c 0,9,10
 555 244 555 244 592.5 207.5 c 128,-1,11
 630 171 630 171 630 122 c 0,0,1
EndSplineSet
EndChar

StartChar: slash
Encoding: 47 47 10
Width: 791
Flags: W
LayerCount: 2
Fore
SplineSet
595 1154 m 1,0,-1
 736 1154 l 1,1,-1
 242 -192 l 1,2,-1
 101 -192 l 1,3,-1
 595 1154 l 1,0,-1
EndSplineSet
EndChar

StartChar: less
Encoding: 60 60 11
Width: 1117
Flags: W
LayerCount: 2
Fore
SplineSet
955 58 m 1,0,-1
 150 444 l 1,1,-1
 150 534 l 1,2,-1
 955 918 l 1,3,-1
 955 784 l 1,4,-1
 331 489 l 1,5,-1
 955 192 l 1,6,-1
 955 58 l 1,0,-1
EndSplineSet
EndChar

StartChar: equal
Encoding: 61 61 12
Width: 1117
Flags: W
LayerCount: 2
Fore
SplineSet
182 831 m 1,0,-1
 997 831 l 1,1,-1
 997 683 l 1,2,-1
 182 683 l 1,3,-1
 182 831 l 1,0,-1
182 511 m 1,4,-1
 997 511 l 1,5,-1
 997 363 l 1,6,-1
 182 363 l 1,7,-1
 182 511 l 1,4,-1
EndSplineSet
EndChar

StartChar: greater
Encoding: 62 62 13
Width: 1117
Flags: W
LayerCount: 2
Fore
SplineSet
966 444 m 1,0,-1
 160 58 l 1,1,-1
 160 192 l 1,2,-1
 786 489 l 1,3,-1
 160 784 l 1,4,-1
 160 918 l 1,5,-1
 966 534 l 1,6,-1
 966 444 l 1,0,-1
EndSplineSet
EndChar

StartChar: bracketleft
Encoding: 91 91 14
Width: 646
GlyphClass: 2
Flags: W
LayerCount: 2
Fore
SplineSet
561 -232 m 1,0,-1
 190 -232 l 1,1,-1
 190 1686 l 1,2,-1
 561 1686 l 1,3,-1
 561 1589 l 1,4,-1
 329 1589 l 1,5,-1
 329 -136 l 1,6,-1
 561 -136 l 1,7,-1
 561 -232 l 1,0,-1
EndSplineSet
EndChar

StartChar: bracketright
Encoding: 93 93 15
Width: 646
GlyphClass: 2
Flags: W
LayerCount: 2
Fore
SplineSet
211 -136 m 1,0,-1
 444 -136 l 1,1,-1
 444 1589 l 1,2,-1
 211 1589 l 1,3,-1
 211 1686 l 1,4,-1
 583 1686 l 1,5,-1
 583 -232 l 1,6,-1
 211 -232 l 1,7,-1
 211 -136 l 1,0,-1
EndSplineSet
EndChar

StartChar: grave
Encoding: 96 96 16
Width: 510
Flags: W
LayerCount: 2
Fore
SplineSet
310 776 m 1,0,-1
 73 925 l 2,1,2
 53 940 53 940 41 956 c 128,-1,3
 29 972 29 972 29 991 c 0,4,5
 29 1013 29 1013 43 1026 c 128,-1,6
 57 1039 57 1039 82 1039 c 0,7,8
 98 1039 98 1039 111.5 1031 c 128,-1,9
 125 1023 125 1023 146 1003 c 2,10,-1
 371 776 l 1,11,-1
 310 776 l 1,0,-1
EndSplineSet
EndChar

StartChar: braceleft
Encoding: 123 123 17
Width: 830
GlyphClass: 2
Flags: W
LayerCount: 2
Fore
SplineSet
711 -344 m 1,0,-1
 711 -374 l 1,1,2
 569 -354 569 -354 480.5 -259 c 128,-1,3
 392 -164 392 -164 392 -48 c 0,4,5
 392 12 392 12 412 93 c 128,-1,6
 432 174 432 174 432 218 c 0,7,8
 432 280 432 280 380.5 332.5 c 128,-1,9
 329 385 329 385 238 397 c 1,10,-1
 238 432 l 1,11,12
 329 444 329 444 380.5 496 c 128,-1,13
 432 548 432 548 432 611 c 0,14,15
 432 655 432 655 412 735 c 128,-1,16
 392 815 392 815 392 876 c 0,17,18
 392 992 392 992 480.5 1087.5 c 128,-1,19
 569 1183 569 1183 711 1202 c 1,20,-1
 711 1172 l 1,21,22
 612 1148 612 1148 565.5 1094.5 c 128,-1,23
 519 1041 519 1041 519 977 c 0,24,25
 519 928 519 928 538.5 846 c 128,-1,26
 558 764 558 764 558 707 c 0,27,28
 558 621 558 621 495.5 540.5 c 128,-1,29
 433 460 433 460 308 416 c 1,30,31
 429 371 429 371 493.5 289.5 c 128,-1,32
 558 208 558 208 558 122 c 0,33,34
 558 65 558 65 538.5 -17 c 128,-1,35
 519 -99 519 -99 519 -148 c 0,36,37
 519 -212 519 -212 565.5 -265.5 c 128,-1,38
 612 -319 612 -319 711 -344 c 1,0,-1
EndSplineSet
EndChar

StartChar: bar
Encoding: 124 124 18
Width: 347
Flags: W
LayerCount: 2
Fore
SplineSet
206 1202 m 1,0,-1
 206 -374 l 1,1,-1
 136 -374 l 1,2,-1
 136 1202 l 1,3,-1
 206 1202 l 1,0,-1
EndSplineSet
EndChar

StartChar: asciitilde
Encoding: 126 126 19
Width: 935
Flags: W
LayerCount: 2
Fore
SplineSet
881 570 m 1,0,-1
 919 570 l 1,1,2
 914 460 914 460 855 398 c 128,-1,3
 796 336 796 336 712 336 c 0,4,5
 672 336 672 336 627.5 349.5 c 128,-1,6
 583 363 583 363 396 438 c 0,7,8
 266 492 266 492 211 492 c 0,9,10
 152 492 152 492 111 456.5 c 128,-1,11
 70 421 70 421 54 338 c 1,12,-1
 17 338 l 1,13,14
 22 452 22 452 79.5 512 c 128,-1,15
 137 572 137 572 215 572 c 0,16,17
 252 572 252 572 290 561 c 0,18,19
 378 535 378 535 521.5 474 c 128,-1,20
 665 413 665 413 723 413 c 0,21,22
 787 413 787 413 829.5 454 c 128,-1,23
 872 495 872 495 881 570 c 1,0,-1
EndSplineSet
EndChar

StartChar: agrave
Encoding: 224 224 20
Width: 1075
Flags: W
LayerCount: 2
Fore
SplineSet
741 331 m 1,0,1
 720 266 720 266 690.5 213 c 128,-1,2
 661 160 661 160 626 114 c 0,3,4
 519 -19 519 -19 400 -19 c 0,5,6
 208 -19 208 -19 159 214 c 0,7,8
 133 334 133 334 157 451 c 128,-1,9
 181 568 181 568 252 683 c 0,10,11
 325 801 325 801 433 860 c 128,-1,12
 541 919 541 919 684 919 c 0,13,14
 712 919 712 919 746 918.5 c 128,-1,15
 780 918 780 918 815.5 916 c 128,-1,16
 851 914 851 914 886 912 c 128,-1,17
 921 910 921 910 952 908 c 1,18,-1
 946 646 l 1,19,-1
 946 647 l 1,20,-1
 950 254 l 2,21,22
 952 209 952 209 954.5 179.5 c 128,-1,23
 957 150 957 150 958 139 c 0,24,25
 961 114 961 114 985 114 c 0,26,27
 1053 114 1053 114 1214 346 c 1,28,-1
 1218 179 l 1,29,30
 1073 -19 1073 -19 925 -19 c 0,31,32
 785 -19 785 -19 753 126 c 0,33,34
 749 146 749 146 747 182 c 128,-1,35
 745 218 745 218 745 264 c 2,36,-1
 741 331 l 1,0,1
737 758 m 1,37,38
 688 775 688 775 647 783.5 c 128,-1,39
 606 792 606 792 561 792 c 0,40,41
 497 792 497 792 453.5 749.5 c 128,-1,42
 410 707 410 707 387 625 c 0,43,44
 362 522 362 522 357 425 c 128,-1,45
 352 328 352 328 368 248 c 0,46,47
 388 146 388 146 437 146 c 0,48,49
 493 146 493 146 589 280 c 0,50,51
 637 352 637 352 674 430 c 128,-1,52
 711 508 711 508 739 599 c 1,53,-1
 737 758 l 1,37,38
599 431 m 1,54,-1
 362 580 l 2,55,56
 342 595 342 595 330 611 c 128,-1,57
 318 627 318 627 318 646 c 0,58,59
 318 668 318 668 332 681 c 128,-1,60
 346 694 346 694 371 694 c 0,61,62
 387 694 387 694 400.5 686 c 128,-1,63
 414 678 414 678 435 658 c 2,64,-1
 660 431 l 1,65,-1
 599 431 l 1,54,-1
EndSplineSet
EndChar

StartChar: ocircumflex.001
Encoding: 65539 -1 26
Width: 1112
Flags: W
LayerCount: 2
Fore
SplineSet
416 -19 m 0,0,1
 301 -19 301 -19 205 70 c 0,2,3
 110 160 110 160 85 288 c 0,4,5
 32 528 32 528 170 726 c 0,6,7
 307 928 307 928 522 928 c 0,8,9
 643 928 643 928 742 842 c 1,10,11
 837 753 837 753 864 626 c 0,12,13
 890 499 890 499 869 388.5 c 128,-1,14
 848 278 848 278 781 179 c 0,15,16
 711 79 711 79 619.5 30 c 128,-1,17
 528 -19 528 -19 416 -19 c 0,0,1
483 98 m 0,18,19
 536 98 536 98 573.5 133 c 128,-1,20
 611 168 611 168 637 236 c 0,21,22
 665 310 665 310 668.5 393.5 c 128,-1,23
 672 477 672 477 652 574 c 0,24,25
 602 813 602 813 466 813 c 0,26,27
 365 813 365 813 313 670 c 0,28,29
 284 595 284 595 281 510.5 c 128,-1,30
 278 426 278 426 298 332 c 0,31,32
 324 213 324 213 370 155.5 c 128,-1,33
 416 98 416 98 483 98 c 0,18,19
EndSplineSet
EndChar

StartChar: dagger
Encoding: 8224 8224 30
Width: 932
Flags: W
LayerCount: 2
Fore
SplineSet
347 -231 m 1,0,-1
 567 622 l 1,1,-1
 248 592 l 1,2,-1
 297 700 l 1,3,-1
 576 668 l 1,4,-1
 607 1066 l 1,5,-1
 755 1093 l 1,6,-1
 621 668 l 1,7,-1
 941 700 l 1,8,-1
 895 592 l 1,9,-1
 612 622 l 1,10,-1
 496 -213 l 1,11,-1
 347 -231 l 1,0,-1
EndSplineSet
EndChar

StartChar: degree
Encoding: 176 176 31
Width: 409
Flags: W
LayerCount: 2
Fore
SplineSet
395 844 m 0,0,1
 344 844 344 844 307.5 880 c 128,-1,2
 271 916 271 916 271 968 c 0,3,4
 271 1021 271 1021 307.5 1057 c 128,-1,5
 344 1093 344 1093 395 1093 c 0,6,7
 447 1093 447 1093 483 1057 c 128,-1,8
 519 1021 519 1021 519 968 c 0,9,10
 519 916 519 916 483 880 c 128,-1,11
 447 844 447 844 395 844 c 0,0,1
395 888 m 256,12,13
 427 888 427 888 450.5 912 c 128,-1,14
 474 936 474 936 474 968 c 256,15,16
 474 1000 474 1000 450.5 1024 c 128,-1,17
 427 1048 427 1048 395 1048 c 256,18,19
 363 1048 363 1048 339 1024 c 128,-1,20
 315 1000 315 1000 315 968 c 256,21,22
 315 936 315 936 339 912 c 128,-1,23
 363 888 363 888 395 888 c 256,12,13
EndSplineSet
EndChar

StartChar: bullet
Encoding: 8226 8226 32
Width: 931
Flags: W
LayerCount: 2
Fore
SplineSet
817 662 m 256,0,1
 817 517 817 517 713.5 414 c 128,-1,2
 610 311 610 311 465 311 c 256,3,4
 320 311 320 311 217 414 c 128,-1,5
 114 517 114 517 114 662 c 256,6,7
 114 807 114 807 217 910 c 128,-1,8
 320 1013 320 1013 465 1013 c 256,9,10
 610 1013 610 1013 713.5 910 c 128,-1,11
 817 807 817 807 817 662 c 256,0,1
EndSplineSet
EndChar

StartChar: registered
Encoding: 174 174 33
Width: 897
Flags: W
LayerCount: 2
Fore
SplineSet
580 445 m 0,0,1
 448 445 448 445 354.5 538.5 c 128,-1,2
 261 632 261 632 261 764 c 256,3,4
 261 896 261 896 354.5 990 c 128,-1,5
 448 1084 448 1084 580 1084 c 0,6,7
 714 1084 714 1084 807 990 c 128,-1,8
 900 896 900 896 900 764 c 256,9,10
 900 632 900 632 806.5 538.5 c 128,-1,11
 713 445 713 445 580 445 c 0,0,1
580 484 m 0,12,13
 695 484 695 484 777.5 567 c 128,-1,14
 860 650 860 650 860 764 c 256,15,16
 860 878 860 878 777.5 961 c 128,-1,17
 695 1044 695 1044 580 1044 c 0,18,19
 466 1044 466 1044 383.5 961 c 128,-1,20
 301 878 301 878 301 764 c 256,21,22
 301 650 301 650 383.5 567 c 128,-1,23
 466 484 466 484 580 484 c 0,12,13
529 737 m 1,24,-1
 501 596 l 1,25,-1
 394 596 l 1,26,-1
 403 639 l 1,27,-1
 456 639 l 1,28,-1
 511 915 l 1,29,-1
 458 915 l 1,30,-1
 466 959 l 1,31,-1
 598 959 l 2,32,33
 751 959 751 959 751 875 c 0,34,35
 751 800 751 800 650 750 c 1,36,-1
 685 639 l 1,37,-1
 747 639 l 1,38,-1
 738 596 l 1,39,-1
 641 596 l 1,40,-1
 591 737 l 1,41,-1
 529 737 l 1,24,-1
538 782 m 1,42,-1
 574 782 l 2,43,44
 697 782 697 782 697 866 c 0,45,46
 697 915 697 915 607 915 c 2,47,-1
 564 915 l 1,48,-1
 538 782 l 1,42,-1
EndSplineSet
EndChar

StartChar: copyright
Encoding: 169 169 34
Width: 1244
Flags: W
LayerCount: 2
Fore
SplineSet
725 -27 m 0,0,1
 495 -27 495 -27 330.5 137 c 128,-1,2
 166 301 166 301 166 533 c 256,3,4
 166 765 166 765 330.5 929 c 128,-1,5
 495 1093 495 1093 725 1093 c 0,6,7
 958 1093 958 1093 1122 929 c 128,-1,8
 1286 765 1286 765 1286 533 c 256,9,10
 1286 301 1286 301 1122 137 c 128,-1,11
 958 -27 958 -27 725 -27 c 0,0,1
725 18 m 0,12,13
 939 18 939 18 1090 169 c 128,-1,14
 1241 320 1241 320 1241 533 c 256,15,16
 1241 746 1241 746 1090 897 c 128,-1,17
 939 1048 939 1048 725 1048 c 0,18,19
 513 1048 513 1048 362 897 c 128,-1,20
 211 746 211 746 211 533 c 256,21,22
 211 320 211 320 362 169 c 128,-1,23
 513 18 513 18 725 18 c 0,12,13
890 246 m 1,24,25
 785 213 785 213 704 213 c 0,26,27
 580 213 580 213 508 279.5 c 128,-1,28
 436 346 436 346 436 462 c 0,29,30
 436 625 436 625 541 734.5 c 128,-1,31
 646 844 646 844 805 844 c 0,32,33
 896 844 896 844 1003 814 c 1,34,-1
 967 675 l 1,35,-1
 915 684 l 1,36,-1
 923 766 l 1,37,38
 854 798 854 798 792 798 c 0,39,40
 688 798 688 798 616 700 c 128,-1,41
 544 602 544 602 544 462 c 0,42,43
 544 271 544 271 722 271 c 0,44,45
 823 271 823 271 902 307 c 1,46,-1
 890 246 l 1,24,25
EndSplineSet
EndChar

StartChar: trademark
Encoding: 8482 8482 35
Width: 1333
Flags: W
LayerCount: 2
Fore
SplineSet
440 1021 m 1,0,-1
 307 1021 l 1,1,-1
 288 923 l 1,2,-1
 225 923 l 1,3,-1
 254 1066 l 1,4,-1
 751 1066 l 1,5,-1
 723 923 l 1,6,-1
 661 923 l 1,7,-1
 679 1021 l 1,8,-1
 546 1021 l 1,9,-1
 456 569 l 1,10,-1
 554 569 l 1,11,-1
 545 524 l 1,12,-1
 243 524 l 1,13,-1
 253 569 l 1,14,-1
 350 569 l 1,15,-1
 440 1021 l 1,0,-1
1011 569 m 1,16,-1
 942 956 l 1,17,-1
 857 524 l 1,18,-1
 688 524 l 1,19,-1
 697 569 l 1,20,-1
 794 569 l 1,21,-1
 884 1021 l 1,22,-1
 787 1021 l 1,23,-1
 796 1066 l 1,24,-1
 1036 1066 l 1,25,-1
 1092 747 l 1,26,-1
 1265 1066 l 1,27,-1
 1481 1066 l 1,28,-1
 1473 1021 l 1,29,-1
 1375 1021 l 1,30,-1
 1285 569 l 1,31,-1
 1383 569 l 1,32,-1
 1373 524 l 1,33,-1
 1178 524 l 1,34,-1
 1270 985 l 1,35,-1
 1041 569 l 1,36,-1
 1011 569 l 1,16,-1
EndSplineSet
EndChar

StartChar: logicalnot
Encoding: 172 172 39
Width: 932
Flags: W
LayerCount: 2
Fore
SplineSet
177 510 m 1,0,-1
 193 590 l 1,1,-1
 975 590 l 1,2,-1
 906 248 l 1,3,-1
 814 248 l 1,4,-1
 866 510 l 1,5,-1
 177 510 l 1,0,-1
EndSplineSet
EndChar

StartChar: florin
Encoding: 402 402 40
Width: 679
Flags: W
LayerCount: 2
Fore
SplineSet
158 -231 m 1,0,-1
 210 -18 l 1,1,-1
 286 364 l 1,2,-1
 108 364 l 1,3,-1
 117 409 l 1,4,-1
 294 409 l 1,5,-1
 298 427 l 2,6,7
 330 586 330 586 463 692.5 c 128,-1,8
 596 799 596 799 761 799 c 0,9,10
 818 799 818 799 860 784 c 1,11,-1
 764 678 l 1,12,13
 712 729 712 729 643 729 c 0,14,15
 500 729 500 729 457 512 c 2,16,-1
 436 409 l 1,17,-1
 623 409 l 1,18,-1
 614 364 l 1,19,-1
 427 364 l 1,20,-1
 313 -213 l 1,21,-1
 158 -231 l 1,0,-1
EndSplineSet
EndChar

StartChar: ellipsis
Encoding: 8230 8230 41
Width: 1827
Flags: W
LayerCount: 2
Fore
SplineSet
758 113 m 0,0,1
 758 144 758 144 809.5 245.5 c 128,-1,2
 861 347 861 347 876 355 c 0,3,4
 907 369 907 369 964.5 307.5 c 128,-1,5
 1022 246 1022 246 1026 211 c 1,6,7
 1026 166 1026 166 977.5 79.5 c 128,-1,8
 929 -7 929 -7 908 -7 c 0,9,10
 899 -7 899 -7 851 26.5 c 128,-1,11
 803 60 803 60 778 79 c 0,12,13
 758 96 758 96 758 113 c 0,0,1
1308 113 m 0,14,15
 1308 144 1308 144 1359 245.5 c 128,-1,16
 1410 347 1410 347 1426 355 c 0,17,18
 1457 369 1457 369 1514.5 307.5 c 128,-1,19
 1572 246 1572 246 1575 211 c 0,20,21
 1575 166 1575 166 1527 79.5 c 128,-1,22
 1479 -7 1479 -7 1458 -7 c 0,23,24
 1449 -7 1449 -7 1401 26.5 c 128,-1,25
 1353 60 1353 60 1328 79 c 0,26,27
 1308 96 1308 96 1308 113 c 0,14,15
211 113 m 0,28,29
 211 144 211 144 262 245.5 c 128,-1,30
 313 347 313 347 329 355 c 0,31,32
 360 369 360 369 417.5 307.5 c 128,-1,33
 475 246 475 246 478 211 c 0,34,35
 478 166 478 166 430 79.5 c 128,-1,36
 382 -7 382 -7 361 -7 c 0,37,38
 352 -7 352 -7 304 26.5 c 128,-1,39
 256 60 256 60 231 79 c 0,40,41
 211 96 211 96 211 113 c 0,28,29
EndSplineSet
EndChar

StartChar: endash
Encoding: 8211 8211 42
Width: 434
Flags: W
LayerCount: 2
Fore
SplineSet
434 154 m 1,0,-1
 0 154 l 1,1,-1
 0 234 l 1,2,-1
 434 234 l 1,3,-1
 434 154 l 1,0,-1
EndSplineSet
EndChar

StartChar: emdash
Encoding: 8212 8212 43
Width: 1862
Flags: W
LayerCount: 2
Fore
SplineSet
1866 572 m 1,0,-1
 -4 572 l 1,1,-1
 -4 732 l 1,2,-1
 1866 732 l 1,3,-1
 1866 572 l 1,0,-1
EndSplineSet
EndChar

StartChar: quotedblleft
Encoding: 8220 8220 44
Width: 613
Flags: W
LayerCount: 2
Fore
SplineSet
338 1212 m 0,0,1
 339 1277 339 1277 383 1340.5 c 128,-1,2
 427 1404 427 1404 481 1430 c 1,3,-1
 512 1372 l 1,4,5
 496 1363 496 1363 474 1339 c 128,-1,6
 452 1315 452 1315 442 1277 c 1,7,8
 508 1249 508 1249 505 1194 c 0,9,10
 505 1178 505 1178 498.5 1163.5 c 128,-1,11
 492 1149 492 1149 481.5 1138 c 128,-1,12
 471 1127 471 1127 456 1120.5 c 128,-1,13
 441 1114 441 1114 425 1114 c 0,14,15
 404 1114 404 1114 388 1122.5 c 128,-1,16
 372 1131 372 1131 361 1144.5 c 128,-1,17
 350 1158 350 1158 344 1176 c 128,-1,18
 338 1194 338 1194 338 1212 c 0,0,1
119 1212 m 0,19,20
 120 1277 120 1277 164 1340.5 c 128,-1,21
 208 1404 208 1404 263 1430 c 1,22,-1
 294 1372 l 1,23,24
 278 1363 278 1363 256 1339 c 128,-1,25
 234 1315 234 1315 224 1277 c 1,26,27
 290 1249 290 1249 287 1194 c 0,28,29
 287 1178 287 1178 280.5 1163.5 c 128,-1,30
 274 1149 274 1149 263 1138 c 128,-1,31
 252 1127 252 1127 237 1120.5 c 128,-1,32
 222 1114 222 1114 206 1114 c 0,33,34
 186 1114 186 1114 169.5 1122.5 c 128,-1,35
 153 1131 153 1131 142 1144.5 c 128,-1,36
 131 1158 131 1158 125 1176 c 128,-1,37
 119 1194 119 1194 119 1212 c 0,19,20
EndSplineSet
EndChar

StartChar: quotedblright
Encoding: 8221 8221 45
Width: 597
Flags: W
LayerCount: 2
Fore
SplineSet
296 1338 m 0,0,1
 295 1273 295 1273 251 1209.5 c 128,-1,2
 207 1146 207 1146 153 1120 c 1,3,-1
 122 1178 l 1,4,5
 138 1187 138 1187 160 1211 c 128,-1,6
 182 1235 182 1235 192 1273 c 1,7,8
 126 1301 126 1301 129 1356 c 0,9,10
 129 1372 129 1372 135.5 1386.5 c 128,-1,11
 142 1401 142 1401 152.5 1412 c 128,-1,12
 163 1423 163 1423 177.5 1429.5 c 128,-1,13
 192 1436 192 1436 209 1436 c 0,14,15
 230 1436 230 1436 246 1427.5 c 128,-1,16
 262 1419 262 1419 273 1405.5 c 128,-1,17
 284 1392 284 1392 290 1374 c 128,-1,18
 296 1356 296 1356 296 1338 c 0,0,1
515 1338 m 0,19,20
 514 1273 514 1273 470 1209.5 c 128,-1,21
 426 1146 426 1146 371 1120 c 1,22,-1
 340 1178 l 1,23,24
 356 1187 356 1187 378 1211 c 128,-1,25
 400 1235 400 1235 410 1273 c 1,26,27
 344 1301 344 1301 347 1356 c 0,28,29
 347 1372 347 1372 353.5 1386.5 c 128,-1,30
 360 1401 360 1401 371 1412 c 128,-1,31
 382 1423 382 1423 396.5 1429.5 c 128,-1,32
 411 1436 411 1436 428 1436 c 0,33,34
 448 1436 448 1436 464 1427.5 c 128,-1,35
 480 1419 480 1419 491.5 1405.5 c 128,-1,36
 503 1392 503 1392 509 1374 c 128,-1,37
 515 1356 515 1356 515 1338 c 0,19,20
EndSplineSet
EndChar

StartChar: divide
Encoding: 247 247 46
Width: 1413
Flags: W
LayerCount: 2
Fore
SplineSet
182 721 m 1,0,-1
 1167 721 l 1,1,-1
 1167 573 l 1,2,-1
 182 573 l 1,3,-1
 182 721 l 1,0,-1
784 293 m 0,4,5
 784 240 784 240 747.5 205 c 128,-1,6
 711 170 711 170 659 170 c 256,7,8
 607 170 607 170 572 205 c 128,-1,9
 537 240 537 240 537 293 c 0,10,11
 537 344 537 344 572 379.5 c 128,-1,12
 607 415 607 415 659 415 c 0,13,14
 709 415 709 415 746.5 378.5 c 128,-1,15
 784 342 784 342 784 293 c 0,4,5
770 1006 m 0,16,17
 770 953 770 953 733.5 918 c 128,-1,18
 697 883 697 883 645 883 c 256,19,20
 593 883 593 883 558 918 c 128,-1,21
 523 953 523 953 523 1006 c 0,22,23
 523 1057 523 1057 558 1092.5 c 128,-1,24
 593 1128 593 1128 645 1128 c 0,25,26
 695 1128 695 1128 732.5 1091.5 c 128,-1,27
 770 1055 770 1055 770 1006 c 0,16,17
EndSplineSet
EndChar

StartChar: lozenge
Encoding: 9674 9674 47
Width: 1118
Flags: W
LayerCount: 2
Fore
SplineSet
1003 699 m 1,0,-1
 560 197 l 1,1,-1
 117 699 l 1,2,-1
 560 1202 l 1,3,-1
 1003 699 l 1,0,-1
848 699 m 1,4,-1
 560 1036 l 1,5,-1
 271 699 l 1,6,-1
 560 364 l 1,7,-1
 848 699 l 1,4,-1
EndSplineSet
EndChar

StartChar: fraction
Encoding: 8260 8260 48
Width: 742
Flags: W
LayerCount: 2
Fore
SplineSet
740 1101 m 1,0,-1
 101 -82 l 1,1,-1
 -9 -82 l 1,2,-1
 629 1101 l 1,3,-1
 740 1101 l 1,0,-1
EndSplineSet
EndChar

StartChar: guilsinglleft
Encoding: 8249 8249 49
Width: 1117
Flags: W
LayerCount: 2
Fore
SplineSet
955 58 m 1,0,-1
 150 444 l 1,1,-1
 150 534 l 1,2,-1
 955 918 l 1,3,-1
 955 784 l 1,4,-1
 331 489 l 1,5,-1
 955 192 l 1,6,-1
 955 58 l 1,0,-1
EndSplineSet
EndChar

StartChar: daggerdbl
Encoding: 8225 8225 52
Width: 932
Flags: W
LayerCount: 2
Fore
SplineSet
349 -231 m 1,0,-1
 481 185 l 1,1,-1
 161 154 l 1,2,-1
 211 261 l 1,3,-1
 490 229 l 1,4,-1
 567 616 l 1,5,-1
 247 586 l 1,6,-1
 297 693 l 1,7,-1
 575 661 l 1,8,-1
 608 1066 l 1,9,-1
 758 1093 l 1,10,-1
 620 661 l 1,11,-1
 940 693 l 1,12,-1
 889 586 l 1,13,-1
 611 616 l 1,14,-1
 535 229 l 1,15,-1
 855 261 l 1,16,-1
 804 154 l 1,17,-1
 525 185 l 1,18,-1
 499 -213 l 1,19,-1
 349 -231 l 1,0,-1
EndSplineSet
EndChar

StartChar: middot.001
Encoding: 8729 8729 53
Width: 620
Flags: W
LayerCount: 2
Fore
SplineSet
429 516 m 1,0,-1
 190 516 l 1,1,-1
 190 789 l 1,2,-1
 429 789 l 1,3,-1
 429 516 l 1,0,-1
EndSplineSet
EndChar

StartChar: quotesinglbase
Encoding: 8218 8218 54
Width: 418
Flags: W
LayerCount: 2
Fore
SplineSet
103 128 m 1,0,-1
 247 231 l 1,1,-1
 353 90 l 1,2,3
 345 -56 345 -56 262.5 -134.5 c 128,-1,4
 180 -213 180 -213 36 -213 c 1,5,-1
 76 -168 l 1,6,7
 189 -158 189 -158 211 -18 c 1,8,-1
 103 128 l 1,0,-1
EndSplineSet
EndChar

StartChar: quotedblbase
Encoding: 8222 8222 55
Width: 684
Flags: W
LayerCount: 2
Fore
SplineSet
91 92 m 1,0,-1
 204 178 l 1,1,-1
 292 64 l 1,2,3
 270 -213 270 -213 31 -213 c 1,4,-1
 60 -168 l 1,5,6
 166 -148 166 -148 179 -16 c 1,7,-1
 91 92 l 1,0,-1
401 92 m 1,8,-1
 516 178 l 1,9,-1
 602 64 l 1,10,11
 581 -213 581 -213 341 -213 c 1,12,-1
 372 -168 l 1,13,14
 476 -148 476 -148 490 -16 c 1,15,-1
 401 92 l 1,8,-1
EndSplineSet
EndChar

StartChar: perthousand
Encoding: 8240 8240 56
Width: 1571
Flags: W
LayerCount: 2
Fore
SplineSet
385 533 m 0,0,1
 304 533 304 533 254.5 584.5 c 128,-1,2
 205 636 205 636 205 722 c 0,3,4
 205 865 205 865 286.5 965.5 c 128,-1,5
 368 1066 368 1066 483 1066 c 0,6,7
 567 1066 567 1066 617.5 1014.5 c 128,-1,8
 668 963 668 963 668 877 c 0,9,10
 668 733 668 733 585.5 633 c 128,-1,11
 503 533 503 533 385 533 c 0,0,1
311 715 m 0,12,13
 311 578 311 578 398 578 c 0,14,15
 463 578 463 578 517 671.5 c 128,-1,16
 571 765 571 765 571 881 c 0,17,18
 571 1022 571 1022 483 1022 c 0,19,20
 416 1022 416 1022 363.5 928 c 128,-1,21
 311 834 311 834 311 715 c 0,12,13
850 0 m 0,22,23
 769 0 769 0 719.5 51.5 c 128,-1,24
 670 103 670 103 670 189 c 0,25,26
 670 331 670 331 751 432 c 128,-1,27
 832 533 832 533 947 533 c 0,28,29
 1031 533 1031 533 1081.5 481.5 c 128,-1,30
 1132 430 1132 430 1132 344 c 0,31,32
 1132 200 1132 200 1049.5 100 c 128,-1,33
 967 0 967 0 850 0 c 0,22,23
776 182 m 0,34,35
 776 44 776 44 862 44 c 0,36,37
 929 44 929 44 982 138 c 128,-1,38
 1035 232 1035 232 1035 348 c 0,39,40
 1035 490 1035 490 948 490 c 0,41,42
 880 490 880 490 828 395.5 c 128,-1,43
 776 301 776 301 776 182 c 0,34,35
131 -27 m 1,44,-1
 1111 1093 l 1,45,-1
 1206 1093 l 1,46,-1
 225 -27 l 1,47,-1
 131 -27 l 1,44,-1
1376 0 m 0,48,49
 1294 0 1294 0 1244.5 51.5 c 128,-1,50
 1195 103 1195 103 1195 189 c 0,51,52
 1195 331 1195 331 1276.5 432 c 128,-1,53
 1358 533 1358 533 1473 533 c 0,54,55
 1557 533 1557 533 1607.5 481.5 c 128,-1,56
 1658 430 1658 430 1658 344 c 0,57,58
 1658 200 1658 200 1575.5 100 c 128,-1,59
 1493 0 1493 0 1376 0 c 0,48,49
1301 183 m 0,60,61
 1301 44 1301 44 1389 44 c 0,62,63
 1453 44 1453 44 1507 138 c 128,-1,64
 1561 232 1561 232 1561 347 c 0,65,66
 1561 490 1561 490 1473 490 c 0,67,68
 1406 490 1406 490 1353.5 395.5 c 128,-1,69
 1301 301 1301 301 1301 183 c 0,60,61
EndSplineSet
EndChar

StartChar: multiply
Encoding: 215 215 60
Width: 1116
Flags: W
LayerCount: 2
Fore
SplineSet
853 223 m 1,0,-1
 573 503 l 1,1,-1
 296 226 l 1,2,-1
 194 327 l 1,3,-1
 471 605 l 1,4,-1
 194 882 l 1,5,-1
 299 987 l 1,6,-1
 576 710 l 1,7,-1
 856 989 l 1,8,-1
 957 887 l 1,9,-1
 678 608 l 1,10,-1
 958 328 l 1,11,-1
 853 223 l 1,0,-1
EndSplineSet
EndChar

StartChar: macron
Encoding: 175 175 61
Width: 1118
Flags: W
LayerCount: 2
Fore
SplineSet
1134 1259 m 1,0,-1
 -16 1259 l 1,1,-1
 -16 1389 l 1,2,-1
 1134 1389 l 1,3,-1
 1134 1259 l 1,0,-1
EndSplineSet
EndChar

StartChar: periodcentered
Encoding: 183 183 62
Width: 724
Flags: W
LayerCount: 2
Fore
SplineSet
482 832 m 1,0,-1
 243 832 l 1,1,-1
 243 1117 l 1,2,-1
 482 1117 l 1,3,-1
 482 832 l 1,0,-1
EndSplineSet
EndChar

StartChar: H22073
Encoding: 9633 9633 63
Width: 1237
Flags: W
LayerCount: 2
Fore
SplineSet
146 944 m 1,0,-1
 1090 944 l 1,1,-1
 1090 0 l 1,2,-1
 146 0 l 1,3,-1
 146 944 l 1,0,-1
222 868 m 1,4,-1
 222 76 l 1,5,-1
 1014 76 l 1,6,-1
 1014 868 l 1,7,-1
 222 868 l 1,4,-1
EndSplineSet
EndChar

StartChar: H18543
Encoding: 9642 9642 64
Width: 1089
Flags: W
LayerCount: 2
Fore
SplineSet
886 894 m 1,0,-1
 886 200 l 1,1,-1
 192 200 l 1,2,-1
 192 894 l 1,3,-1
 886 894 l 1,0,-1
EndSplineSet
EndChar

StartChar: H18551
Encoding: 9643 9643 65
Width: 1089
Flags: W
LayerCount: 2
Fore
SplineSet
888 930 m 1,0,-1
 888 235 l 1,1,-1
 193 235 l 1,2,-1
 193 930 l 1,3,-1
 888 930 l 1,0,-1
774 816 m 1,4,-1
 307 816 l 1,5,-1
 307 349 l 1,6,-1
 774 349 l 1,7,-1
 774 816 l 1,4,-1
EndSplineSet
EndChar

StartChar: H18533
Encoding: 9679 9679 66
Width: 1339
Flags: W
LayerCount: 2
Fore
SplineSet
204 775 m 0,0,1
 204 976 204 976 345 1117 c 128,-1,2
 486 1258 486 1258 685 1258 c 0,3,4
 885 1258 885 1258 1026 1117 c 128,-1,5
 1167 976 1167 976 1167 775 c 0,6,7
 1167 577 1167 577 1026 436 c 128,-1,8
 885 295 885 295 685 295 c 0,9,10
 486 295 486 295 345 436 c 128,-1,11
 204 577 204 577 204 775 c 0,0,1
EndSplineSet
EndChar

StartChar: openbullet
Encoding: 9702 9702 67
Width: 1089
Flags: W
LayerCount: 2
Fore
SplineSet
544 1392 m 0,0,1
 700 1392 700 1392 810.5 1281.5 c 128,-1,2
 921 1171 921 1171 921 1015 c 256,3,4
 921 859 921 859 810.5 749 c 128,-1,5
 700 639 700 639 544 639 c 256,6,7
 388 639 388 639 278 749 c 128,-1,8
 168 859 168 859 168 1015 c 256,9,10
 168 1171 168 1171 277.5 1281.5 c 128,-1,11
 387 1392 387 1392 544 1392 c 0,0,1
544 1278 m 0,12,13
 435 1278 435 1278 358.5 1200.5 c 128,-1,14
 282 1123 282 1123 282 1015 c 0,15,16
 282 906 282 906 359 829.5 c 128,-1,17
 436 753 436 753 544 753 c 256,18,19
 652 753 652 753 729.5 829.5 c 128,-1,20
 807 906 807 906 807 1015 c 0,21,22
 807 1123 807 1123 730.5 1200.5 c 128,-1,23
 654 1278 654 1278 544 1278 c 0,12,13
EndSplineSet
EndChar

StartChar: uniFFFC
Encoding: 65532 65532 68
Width: 2048
Flags: W
LayerCount: 2
Fore
SplineSet
2048 1150 m 1,0,-1
 1948 1150 l 1,1,-1
 1948 1373 l 1,2,-1
 1725 1373 l 1,3,-1
 1725 1473 l 1,4,-1
 2048 1473 l 1,5,-1
 2048 1150 l 1,0,-1
1473 1373 m 1,6,-1
 1150 1373 l 1,7,-1
 1150 1473 l 1,8,-1
 1473 1473 l 1,9,-1
 1473 1373 l 1,6,-1
2048 575 m 1,10,-1
 1948 575 l 1,11,-1
 1948 898 l 1,12,-1
 2048 898 l 1,13,-1
 2048 575 l 1,10,-1
1782 611 m 2,14,15
 1782 370 1782 370 1571 370 c 0,16,17
 1485 370 1485 370 1433 415 c 1,18,-1
 1506 494 l 1,19,20
 1531 468 1531 468 1571 468 c 0,21,22
 1666 468 1666 468 1666 606 c 2,23,-1
 1666 1090 l 1,24,-1
 1782 1090 l 1,25,-1
 1782 611 l 2,14,15
898 1373 m 1,26,-1
 575 1373 l 1,27,-1
 575 1473 l 1,28,-1
 898 1473 l 1,29,-1
 898 1373 l 1,26,-1
2048 0 m 1,30,-1
 1725 0 l 1,31,-1
 1725 100 l 1,32,-1
 1948 100 l 1,33,-1
 1948 323 l 1,34,-1
 2048 323 l 1,35,-1
 2048 0 l 1,30,-1
1423 591 m 0,36,37
 1423 382 1423 382 1149 382 c 2,38,-1
 909 382 l 1,39,-1
 909 1090 l 1,40,-1
 1144 1090 l 2,41,42
 1393 1090 1393 1090 1393 904 c 0,43,44
 1393 813 1393 813 1304 759 c 1,45,46
 1423 713 1423 713 1423 591 c 0,36,37
323 1373 m 1,47,-1
 100 1373 l 1,48,-1
 100 1150 l 1,49,-1
 0 1150 l 1,50,-1
 0 1473 l 1,51,-1
 323 1473 l 1,52,-1
 323 1373 l 1,47,-1
1473 0 m 1,53,-1
 1150 0 l 1,54,-1
 1150 100 l 1,55,-1
 1473 100 l 1,56,-1
 1473 0 l 1,53,-1
854 735 m 0,57,58
 854 562 854 562 772 466 c 128,-1,59
 690 370 690 370 537 370 c 256,60,61
 384 370 384 370 303.5 466 c 128,-1,62
 223 562 223 562 223 735 c 0,63,64
 223 910 223 910 303.5 1006 c 128,-1,65
 384 1102 384 1102 537 1102 c 256,66,67
 690 1102 690 1102 772 1006 c 128,-1,68
 854 910 854 910 854 735 c 0,57,58
100 575 m 1,69,-1
 0 575 l 1,70,-1
 0 898 l 1,71,-1
 100 898 l 1,72,-1
 100 575 l 1,69,-1
898 0 m 1,73,-1
 575 0 l 1,74,-1
 575 100 l 1,75,-1
 898 100 l 1,76,-1
 898 0 l 1,73,-1
323 0 m 1,77,-1
 0 0 l 1,78,-1
 0 323 l 1,79,-1
 100 323 l 1,80,-1
 100 100 l 1,81,-1
 323 100 l 1,82,-1
 323 0 l 1,77,-1
1277 893 m 0,83,84
 1277 992 1277 992 1114 992 c 2,85,-1
 1025 992 l 1,86,-1
 1025 798 l 1,87,-1
 1126 798 l 2,88,89
 1277 798 1277 798 1277 893 c 0,83,84
1307 591 m 0,90,91
 1307 700 1307 700 1136 700 c 2,92,-1
 1025 700 l 1,93,-1
 1025 480 l 1,94,-1
 1149 480 l 2,95,96
 1307 480 1307 480 1307 591 c 0,90,91
738 735 m 0,97,98
 738 1004 738 1004 537 1004 c 0,99,100
 339 1004 339 1004 339 735 c 0,101,102
 339 468 339 468 537 468 c 0,103,104
 738 468 738 468 738 735 c 0,97,98
EndSplineSet
EndChar

StartChar: zerowidthnonjoiner
Encoding: 8204 8204 88
Width: 0
GlyphClass: 2
Flags: W
LayerCount: 2
Fore
SplineSet
36 1289 m 1,0,-1
 36 -275 l 1,1,-1
 -36 -275 l 1,2,-1
 -36 1289 l 1,3,-1
 36 1289 l 1,0,-1
EndSplineSet
EndChar

StartChar: zerowidthjoiner
Encoding: 8205 8205 89
Width: 0
GlyphClass: 2
Flags: W
LayerCount: 2
Fore
SplineSet
36 -275 m 1,0,-1
 -36 -275 l 1,1,-1
 -36 1114 l 1,2,-1
 -170 978 l 1,3,-1
 -219 1027 l 1,4,-1
 -48 1196 l 1,5,-1
 -219 1364 l 1,6,-1
 -170 1413 l 1,7,-1
 0 1242 l 1,8,-1
 170 1413 l 1,9,-1
 219 1364 l 1,10,-1
 48 1196 l 1,11,-1
 219 1027 l 1,12,-1
 170 978 l 1,13,-1
 36 1114 l 1,14,-1
 36 -275 l 1,0,-1
EndSplineSet
EndChar

StartChar: lefttorightmark
Encoding: 8206 8206 90
Width: 0
GlyphClass: 2
Flags: W
LayerCount: 2
Fore
SplineSet
430 1198 m 1,0,-1
 213 984 l 1,1,-1
 164 1033 l 1,2,-1
 301 1163 l 1,3,-1
 35 1163 l 1,4,-1
 35 -275 l 1,5,-1
 -36 -275 l 1,6,-1
 -36 1234 l 1,7,-1
 301 1234 l 1,8,-1
 164 1364 l 1,9,-1
 213 1413 l 1,10,-1
 430 1198 l 1,0,-1
EndSplineSet
EndChar

StartChar: righttoleftmark
Encoding: 8207 8207 91
Width: 0
GlyphClass: 2
Flags: W
LayerCount: 2
Fore
SplineSet
35 -275 m 1,0,-1
 -36 -275 l 1,1,-1
 -36 1163 l 1,2,-1
 -302 1163 l 1,3,-1
 -165 1033 l 1,4,-1
 -214 984 l 1,5,-1
 -431 1198 l 1,6,-1
 -214 1413 l 1,7,-1
 -165 1364 l 1,8,-1
 -302 1234 l 1,9,-1
 35 1234 l 1,10,-1
 35 -275 l 1,0,-1
EndSplineSet
EndChar

StartChar: afii57388.001
Encoding: 1644 1644 92
Width: 353
GlyphClass: 2
Flags: W
LayerCount: 2
Fore
SplineSet
210 654 m 0,0,1
 200 627 200 627 185 603 c 0,2,3
 180 597 180 597 173.5 593.5 c 128,-1,4
 167 590 167 590 162 590 c 128,-1,5
 157 590 157 590 154.5 593 c 128,-1,6
 152 596 152 596 155 603 c 0,7,8
 187 660 187 660 202.5 713.5 c 128,-1,9
 218 767 218 767 218 800 c 1,10,11
 194 806 194 806 179 816 c 128,-1,12
 164 826 164 826 155 837.5 c 128,-1,13
 146 849 146 849 143 859 c 128,-1,14
 140 869 140 869 140 874 c 0,15,16
 140 890 140 890 145.5 907 c 128,-1,17
 151 924 151 924 160.5 937.5 c 128,-1,18
 170 951 170 951 183.5 959.5 c 128,-1,19
 197 968 197 968 213 968 c 0,20,21
 272 968 272 968 272 874 c 0,22,23
 272 859 272 859 268 835 c 128,-1,24
 264 811 264 811 256 781.5 c 128,-1,25
 248 752 248 752 236.5 719.5 c 128,-1,26
 225 687 225 687 210 654 c 0,0,1
EndSplineSet
EndChar

StartChar: afii57409
Encoding: 1569 1569 93
Width: 698
GlyphClass: 2
Flags: W
AnchorPoint: "Anchor-3" 420 -375 basechar 0
AnchorPoint: "Anchor-2" 255 765 basechar 0
LayerCount: 2
Fore
SplineSet
364 164 m 1,0,1
 158 207 158 207 176 381 c 128,-1,2
 194 555 194 555 346 586.5 c 128,-1,3
 498 618 498 618 553 502 c 1,4,5
 471 526 471 526 394 493.5 c 128,-1,6
 317 461 317 461 314 374 c 128,-1,7
 311 287 311 287 429 263.5 c 128,-1,8
 547 240 547 240 657 291 c 1,9,-1
 612 123 l 1,10,11
 450 94 450 94 223 -27 c 1,12,13
 221 82 221 82 364 164 c 1,0,1
EndSplineSet
EndChar

StartChar: afii57440
Encoding: 1600 1600 94
Width: 377
GlyphClass: 2
Flags: W
LayerCount: 2
Fore
SplineSet
-47 0 m 1,0,-1
 -47 203 l 1,1,-1
 414 203 l 1,2,-1
 414 0 l 1,3,-1
 -47 0 l 1,0,-1
EndSplineSet
EndChar

StartChar: afii57453
Encoding: 1613 1613 95
Width: 0
GlyphClass: 4
Flags: W
AnchorPoint: "Anchor-3" 0 0 mark 0
AnchorPoint: "Anchor-1" 0 0 mark 0
LayerCount: 2
Fore
SplineSet
-232 -105 m 1,0,-1
 219 130 l 1,1,-1
 219 32 l 1,2,-1
 -232 -200 l 1,3,-1
 -232 -105 l 1,0,-1
-225 103 m 1,4,-1
 229 337 l 1,5,-1
 229 243 l 1,6,-1
 -225 7 l 1,7,-1
 -225 103 l 1,4,-1
EndSplineSet
EndChar

StartChar: afii57381
Encoding: 1642 1642 96
Width: 877
GlyphClass: 2
Flags: W
LayerCount: 2
Fore
SplineSet
688 1331 m 1,0,-1
 866 1331 l 1,1,-1
 197 -8 l 1,2,-1
 14 -8 l 1,3,-1
 688 1331 l 1,0,-1
666 299 m 1,4,-1
 842 168 l 1,5,-1
 702 10 l 1,6,-1
 535 123 l 1,7,-1
 666 299 l 1,4,-1
203 1346 m 1,8,-1
 379 1214 l 1,9,-1
 240 1057 l 1,10,-1
 72 1169 l 1,11,-1
 203 1346 l 1,8,-1
EndSplineSet
EndChar

StartChar: afii57461
Encoding: 1643 1643 97
Width: 536
GlyphClass: 2
Flags: W
LayerCount: 2
Fore
SplineSet
518 521 m 1,0,-1
 115 -382 l 1,1,-1
 19 -352 l 1,2,-1
 425 551 l 1,3,-1
 518 521 l 1,0,-1
EndSplineSet
EndChar

StartChar: afii63167
Encoding: 1645 1645 98
Width: 1118
GlyphClass: 2
Flags: W
LayerCount: 2
Fore
SplineSet
694 729 m 1,0,-1
 1057 733 l 1,1,-1
 1057 610 l 1,2,-1
 702 612 l 1,3,-1
 971 352 l 1,4,-1
 883 264 l 1,5,-1
 616 539 l 1,6,-1
 623 168 l 1,7,-1
 498 168 l 1,8,-1
 502 539 l 1,9,-1
 236 264 l 1,10,-1
 147 352 l 1,11,-1
 422 614 l 1,12,-1
 63 610 l 1,13,-1
 63 733 l 1,14,-1
 420 729 l 1,15,-1
 170 975 l 1,16,-1
 258 1065 l 1,17,-1
 502 817 l 1,18,-1
 498 1176 l 1,19,-1
 623 1176 l 1,20,-1
 616 813 l 1,21,-1
 860 1065 l 1,22,-1
 948 975 l 1,23,-1
 694 729 l 1,0,-1
EndSplineSet
EndChar

StartChar: afii57459
Encoding: 65543 -1 99
Width: 580
GlyphClass: 2
Flags: W
LayerCount: 2
Fore
SplineSet
-27 203 m 1,0,1
 180 199 180 199 240 203 c 0,2,3
 440 219 440 219 489 295 c 1,4,5
 489 354 489 354 451 434 c 1,6,7
 356 324 356 324 252 324 c 0,8,9
 127 324 127 324 125 457 c 0,10,11
 125 555 125 555 187.5 670.5 c 128,-1,12
 250 786 250 786 336 786 c 0,13,14
 442 786 442 786 514 612 c 0,15,16
 569 473 569 473 547.5 306 c 128,-1,17
 526 139 526 139 449 92 c 0,18,19
 279 -2 279 -2 -27 0 c 1,20,-1
 -27 203 l 1,0,1
211 504 m 0,21,22
 211 477 211 477 266 475 c 0,23,24
 311 477 311 477 422 532 c 1,25,26
 401 641 401 641 317 641 c 0,27,28
 285 641 285 641 248 594 c 128,-1,29
 211 547 211 547 211 504 c 0,21,22
EndSplineSet
EndChar

StartChar: afii57543
Encoding: 65544 -1 100
Width: 602
Flags: W
LayerCount: 2
Fore
SplineSet
295 203 m 1,0,1
 268 147 268 147 226 108.5 c 128,-1,2
 184 70 184 70 140 45 c 128,-1,3
 96 20 96 20 56 10 c 128,-1,4
 16 0 16 0 -6 0 c 1,5,-1
 -6 203 l 1,6,-1
 18 203 l 2,7,8
 158 203 158 203 230.5 270.5 c 128,-1,9
 303 338 303 338 332 416 c 1,10,11
 332 332 332 332 399.5 268.5 c 128,-1,12
 467 205 467 205 606 203 c 1,13,-1
 606 0 l 1,14,15
 489 2 489 2 415.5 50 c 128,-1,16
 342 98 342 98 295 203 c 1,0,1
EndSplineSet
EndChar

StartChar: afii57534
Encoding: 1749 1749 101
Width: 727
GlyphClass: 2
Flags: W
LayerCount: 2
Fore
SplineSet
139 172 m 0,0,1
 139 238 139 238 194.5 350.5 c 128,-1,2
 250 463 250 463 332 541 c 1,3,-1
 279 582 l 1,4,-1
 369 725 l 1,5,6
 713 500 713 500 713 238 c 0,7,8
 713 127 713 127 663.5 78 c 128,-1,9
 614 29 614 29 529 8.5 c 128,-1,10
 444 -12 444 -12 356 -2 c 0,11,12
 137 20 137 20 139 172 c 0,0,1
252 250 m 1,13,14
 256 152 256 152 414 152 c 0,15,16
 573 152 573 152 608 231 c 1,17,18
 608 283 608 283 537.5 370 c 128,-1,19
 467 457 467 457 422 469 c 1,20,21
 377 440 377 440 323.5 378.5 c 128,-1,22
 270 317 270 317 252 250 c 1,13,14
EndSplineSet
EndChar

StartChar: afii64240
Encoding: 65546 -1 103
Width: 374
Flags: W
LayerCount: 2
Fore
SplineSet
169 257 m 1,0,-1
 322 141 l 1,1,-1
 201 1 l 1,2,-1
 52 102 l 1,3,-1
 169 257 l 1,0,-1
EndSplineSet
EndChar

StartChar: afii64241
Encoding: 65547 -1 104
Width: 692
Flags: W
LayerCount: 2
Fore
SplineSet
208 259 m 1,0,-1
 347 157 l 1,1,-1
 458 306 l 1,2,-1
 609 189 l 1,3,-1
 488 50 l 1,4,-1
 355 138 l 1,5,-1
 239 5 l 1,6,-1
 93 107 l 1,7,-1
 208 259 l 1,0,-1
EndSplineSet
EndChar

StartChar: afii63954
Encoding: 65548 -1 105
Width: 716
Flags: W
LayerCount: 2
Fore
SplineSet
463 276 m 1,0,-1
 618 162 l 1,1,-1
 494 22 l 1,2,-1
 348 125 l 1,3,-1
 463 276 l 1,0,-1
199 254 m 1,4,-1
 350 141 l 1,5,-1
 229 0 l 1,6,-1
 84 100 l 1,7,-1
 199 254 l 1,4,-1
309 471 m 1,8,-1
 461 358 l 1,9,-1
 342 219 l 1,10,-1
 197 319 l 1,11,-1
 309 471 l 1,8,-1
EndSplineSet
EndChar

StartChar: afii57382
Encoding: 65549 -1 106
Width: 582
Flags: W
LayerCount: 2
Fore
SplineSet
425 -2 m 1,0,-1
 570 -121 l 1,1,-1
 439 -260 l 1,2,-1
 296 -131 l 1,3,-1
 425 -2 l 1,0,-1
124 -15 m 1,4,-1
 273 -131 l 1,5,-1
 142 -273 l 1,6,-1
 9 -139 l 1,7,-1
 124 -15 l 1,4,-1
292 -178 m 1,8,-1
 433 -293 l 1,9,-1
 306 -432 l 1,10,-1
 169 -303 l 1,11,-1
 292 -178 l 1,8,-1
EndSplineSet
EndChar

StartChar: afii64242
Encoding: 65550 -1 107
Width: 487
Flags: W
LayerCount: 2
Fore
SplineSet
-18 203 m 1,0,-1
 180 203 l 2,1,2
 369 203 369 203 365 262 c 0,3,4
 362 305 362 305 342 360.5 c 128,-1,5
 322 416 322 416 285 487 c 1,6,-1
 338 674 l 1,7,8
 371 639 371 639 392.5 582.5 c 128,-1,9
 414 526 414 526 426 461.5 c 128,-1,10
 438 397 438 397 443.5 329.5 c 128,-1,11
 449 262 449 262 449 205 c 0,12,13
 444 86 444 86 358 45 c 0,14,15
 303 18 303 18 182 9 c 128,-1,16
 61 0 61 0 2 0 c 2,17,-1
 -18 0 l 1,18,-1
 -18 203 l 1,0,-1
EndSplineSet
EndChar

StartChar: afii57373
Encoding: 65551 -1 112
Width: 0
Flags: W
LayerCount: 2
Fore
SplineSet
117 1784 m 0,0,1
 117 1843 117 1843 176.5 1888 c 128,-1,2
 236 1933 236 1933 310.5 1913.5 c 128,-1,3
 385 1894 385 1894 414 1849 c 1,4,5
 240 1868 240 1868 222.5 1809.5 c 128,-1,6
 205 1751 205 1751 268.5 1735.5 c 128,-1,7
 332 1720 332 1720 528 1720 c 1,8,9
 217 1610 217 1610 125 1503 c 1,10,11
 152 1591 152 1591 231 1655 c 1,12,13
 180 1661 180 1661 148.5 1698 c 128,-1,14
 117 1735 117 1735 117 1784 c 0,0,1
EndSplineSet
EndChar

StartChar: afii57374
Encoding: 65552 -1 113
Width: 801
GlyphClass: 2
Flags: W
LayerCount: 2
Fore
SplineSet
-14 203 m 1,0,-1
 176 203 l 1,1,2
 262 211 262 211 354 252 c 1,3,4
 266 362 266 362 264 492.5 c 128,-1,5
 262 623 262 623 351 708 c 128,-1,6
 440 793 440 793 564 742.5 c 128,-1,7
 688 692 688 692 685 523 c 128,-1,8
 682 354 682 354 553 250 c 1,9,10
 623 197 623 197 819 203 c 1,11,-1
 819 0 l 1,12,13
 715 0 715 0 601 47 c 128,-1,14
 487 94 487 94 434 170 c 1,15,16
 240 -6 240 -6 -14 0 c 1,17,-1
 -14 203 l 1,0,-1
375 500 m 1,18,19
 375 444 375 444 398.5 394 c 128,-1,20
 422 344 422 344 457 322 c 1,21,22
 496 336 496 336 534.5 386 c 128,-1,23
 573 436 573 436 568 512 c 128,-1,24
 563 588 563 588 488.5 604.5 c 128,-1,25
 414 621 414 621 375 500 c 1,18,19
EndSplineSet
EndChar

StartChar: afii57375
Encoding: 1619 1619 114
Width: 0
GlyphClass: 2
Flags: W
LayerCount: 2
Fore
SplineSet
-121 1556 m 1,0,1
 -61 1774 -61 1774 111 1769 c 0,2,3
 139 1769 139 1769 211 1749 c 128,-1,4
 283 1729 283 1729 375 1721.5 c 128,-1,5
 467 1714 467 1714 627 1784 c 1,6,7
 489 1563 489 1563 283.5 1614 c 128,-1,8
 78 1665 78 1665 -6 1628 c 128,-1,9
 -90 1591 -90 1591 -121 1556 c 1,0,1
EndSplineSet
EndChar

StartChar: afii57391
Encoding: 59450 59450 115
Width: 1024
GlyphClass: 2
Flags: W
LayerCount: 2
Fore
SplineSet
1024 0 m 1,0,-1
 -70 0 l 1,1,-1
 -70 188 l 1,2,-1
 1024 188 l 1,3,-1
 1024 0 l 1,0,-1
EndSplineSet
EndChar

StartChar: afii57471
Encoding: 65553 -1 116
Width: 1909
Flags: W
LayerCount: 2
Fore
SplineSet
1610 203 m 1,0,1
 1544 61 1544 61 1176 -2 c 1,2,3
 930 -39 930 -39 651 -39 c 0,4,5
 172 -39 172 -39 172 225 c 0,6,7
 172 358 172 358 258 494 c 1,8,-1
 244 434 l 1,9,-1
 244 395 l 2,10,11
 244 154 244 154 707 154 c 0,12,13
 1407 154 1407 154 1546 270 c 0,14,15
 1606 317 1606 317 1624 356 c 0,16,17
 1640 393 1640 393 1649 412 c 1,18,19
 1649 332 1649 332 1715.5 268.5 c 128,-1,20
 1782 205 1782 205 1921 203 c 1,21,-1
 1921 0 l 1,22,23
 1806 2 1806 2 1731.5 50 c 128,-1,24
 1657 98 1657 98 1610 203 c 1,0,1
EndSplineSet
EndChar

StartChar: afii52258
Encoding: 65554 -1 117
Width: 1960
GlyphClass: 2
Flags: W
LayerCount: 2
Fore
SplineSet
147 330 m 0,0,1
 147 457 147 457 211 569 c 1,2,3
 211 457 211 457 223 424 c 0,4,5
 279 266 279 266 466 232.5 c 128,-1,6
 653 199 653 199 847.5 198 c 128,-1,7
 1042 197 1042 197 1229.5 205 c 128,-1,8
 1417 213 1417 213 1511 252 c 1,9,10
 1423 362 1423 362 1420 492.5 c 128,-1,11
 1417 623 1417 623 1506 708 c 128,-1,12
 1595 793 1595 793 1719 742.5 c 128,-1,13
 1843 692 1843 692 1841 523 c 128,-1,14
 1839 354 1839 354 1708 250 c 1,15,16
 1806 203 1806 203 1974 203 c 1,17,-1
 1974 0 l 1,18,19
 1870 0 1870 0 1757.5 47 c 128,-1,20
 1645 94 1645 94 1585 170 c 1,21,22
 1452 47 1452 47 1284 19.5 c 128,-1,23
 1116 -8 1116 -8 865 -4 c 128,-1,24
 614 0 614 0 467 33 c 0,25,26
 147 104 147 104 147 330 c 0,0,1
1530 500 m 1,27,28
 1530 444 1530 444 1553.5 394 c 128,-1,29
 1577 344 1577 344 1612 322 c 1,30,31
 1651 336 1651 336 1694 385 c 128,-1,32
 1737 434 1737 434 1726.5 518 c 128,-1,33
 1716 602 1716 602 1636 610 c 128,-1,34
 1556 618 1556 618 1530 500 c 1,27,28
EndSplineSet
EndChar

StartChar: afii62889
Encoding: 65555 -1 123
Width: 1460
Flags: W
LayerCount: 2
Fore
SplineSet
145 -250 m 0,0,1
 145 -119 145 -119 193 -14 c 0,2,3
 217 33 217 33 322 180 c 1,4,5
 240 20 240 20 240 -104 c 0,6,7
 240 -250 240 -250 358 -362 c 1,8,9
 475 -467 475 -467 703.5 -468 c 128,-1,10
 932 -469 932 -469 1104 -353.5 c 128,-1,11
 1276 -238 1276 -238 1280 -47 c 0,12,13
 1280 -6 1280 -6 1276 0 c 1,14,15
 1249 -6 1249 -6 1221 -6 c 0,16,17
 1110 -6 1110 -6 1036 29 c 1,18,19
 942 80 942 80 942 176 c 0,20,21
 942 266 942 266 1001.5 380 c 128,-1,22
 1061 494 1061 494 1137 494 c 1,23,24
 1223 481 1223 481 1287.5 373.5 c 128,-1,25
 1352 266 1352 266 1352 203 c 1,26,-1
 1483 203 l 1,27,-1
 1483 0 l 1,28,-1
 1364 12 l 1,29,30
 1352 -322 1352 -322 1102 -516 c 1,31,32
 918 -668 918 -668 699.5 -673 c 128,-1,33
 481 -678 481 -678 313 -566.5 c 128,-1,34
 145 -455 145 -455 145 -250 c 0,0,1
1034 231 m 1,35,36
 1042 193 1042 193 1126 193 c 0,37,38
 1247 193 1247 193 1260 207 c 1,39,40
 1249 285 1249 285 1176.5 328 c 128,-1,41
 1104 371 1104 371 1071 328 c 128,-1,42
 1038 285 1038 285 1034 231 c 1,35,36
EndSplineSet
EndChar

StartChar: afii62887
Encoding: 65556 -1 124
Width: 1793
Flags: W
LayerCount: 2
Fore
SplineSet
169 225 m 0,0,1
 169 342 169 342 257 494 c 1,2,3
 239 440 239 440 239 385 c 0,4,5
 239 207 239 207 507 152 c 0,6,7
 628 127 628 127 911 127 c 0,8,9
 1060 127 1060 127 1341 172 c 1,10,11
 1656 217 1656 217 1724 262 c 1,12,13
 1717 371 1717 371 1629 451 c 1,14,-1
 1676 635 l 1,15,16
 1777 440 1777 440 1777 262 c 0,17,18
 1777 223 1777 223 1775 203 c 0,19,20
 1756 92 1756 92 1576 33 c 0,21,22
 1302 -59 1302 -59 693 -59 c 0,23,24
 501 -59 501 -59 364 -6 c 0,25,26
 169 66 169 66 169 225 c 0,0,1
EndSplineSet
EndChar

StartChar: afii62888
Encoding: 1697 1697 125
Width: 1901
GlyphClass: 2
Flags: W
LayerCount: 2
Fore
SplineSet
1616 219 m 1,0,1
 1710 246 1710 246 1743 295 c 1,2,3
 1743 354 1743 354 1704 434 c 1,4,5
 1610 324 1610 324 1505 324 c 0,6,7
 1380 324 1380 324 1378 457 c 0,8,9
 1378 555 1378 555 1440.5 670.5 c 128,-1,10
 1503 786 1503 786 1589 786 c 0,11,12
 1696 786 1696 786 1767 612 c 0,13,14
 1823 473 1823 473 1801.5 306 c 128,-1,15
 1780 139 1780 139 1698 98 c 1,16,17
 1538 8 1538 8 1269.5 -15.5 c 128,-1,18
 1001 -39 1001 -39 793 -39 c 0,19,20
 575 -39 575 -39 422 20 c 0,21,22
 199 100 199 100 199 279 c 0,23,24
 199 385 199 385 262 541 c 1,25,-1
 262 496 l 2,26,27
 262 166 262 166 829 166 c 0,28,29
 1096 166 1096 166 1364 193 c 0,30,31
 1509 205 1509 205 1616 223 c 1,32,-1
 1616 219 l 1,0,1
1464 504 m 0,33,34
 1464 477 1464 477 1520 475 c 0,35,36
 1565 477 1565 477 1675 532 c 1,37,38
 1655 641 1655 641 1571 641 c 0,39,40
 1538 641 1538 641 1501 594 c 128,-1,41
 1464 547 1464 547 1464 504 c 0,33,34
EndSplineSet
Substitution2: "'medi' Medial Forms in Arabic lookup 3 subtable" afii57374
Substitution2: "'fina' Terminal Forms in Arabic lookup 2 subtable" afii52258
Substitution2: "'init' Initial Forms in Arabic lookup 1 subtable" afii57459
EndChar

StartChar: afii57567
Encoding: 1705 1705 132
Width: 1713
GlyphClass: 2
Flags: W
AnchorPoint: "Anchor-3" 675 -645 basechar 0
AnchorPoint: "Anchor-2" 465 1200 basechar 0
LayerCount: 2
Fore
SplineSet
1491 160 m 1,0,1
 1425 20 1425 20 1057 -45 c 1,2,3
 811 -80 811 -80 532 -80 c 0,4,5
 53 -80 53 -80 53 184 c 0,6,7
 53 317 53 317 139 451 c 1,8,-1
 125 391 l 1,9,-1
 125 354 l 2,10,11
 125 113 125 113 588 113 c 0,12,13
 1288 113 1288 113 1425 231 c 0,14,15
 1450 250 1450 250 1452 262 c 1,16,17
 1188 721 1188 721 791 1018 c 1,18,19
 760 1075 760 1075 760 1141 c 0,20,21
 760 1214 760 1214 829 1262 c 1,22,-1
 1769 1681 l 1,23,-1
 1741 1466 l 1,24,-1
 932 1147 l 1,25,26
 1524 528 1524 528 1518 276 c 1,27,28
 1513 246 1513 246 1491 160 c 1,0,1
EndSplineSet
Substitution2: "'medi' Medial Forms in Arabic lookup 3 subtable" afii52306
Substitution2: "'fina' Terminal Forms in Arabic lookup 2 subtable" afii62964
Substitution2: "'init' Initial Forms in Arabic lookup 1 subtable" afii52305
EndChar

StartChar: afii62964
Encoding: 64399 64399 133
Width: 1602
GlyphClass: 2
Flags: W
AnchorPoint: "Anchor-3" 540 -525 basechar 0
AnchorPoint: "Anchor-2" 345 1170 basechar 0
LayerCount: 2
Fore
SplineSet
1452 53 m 0,0,1
 1384 104 1384 104 1354 145 c 1,2,3
 1268 27 1268 27 936 -33 c 1,4,5
 688 -68 688 -68 410 -68 c 0,6,7
 -68 -68 -68 -68 -68 197 c 0,8,9
 -68 330 -68 330 18 463 c 1,10,-1
 2 403 l 1,11,-1
 2 365 l 2,12,13
 2 125 2 125 467 125 c 0,14,15
 1135 125 1135 125 1292 229 c 1,16,-1
 1268 262 l 1,17,-1
 629 942 l 1,18,19
 600 997 600 997 600 1063 c 0,20,21
 600 1137 600 1137 668 1186 c 1,22,-1
 1610 1604 l 1,23,-1
 1579 1391 l 1,24,-1
 739 1042 l 1,25,-1
 1511 207 l 1,26,27
 1583 199 1583 199 1624 203 c 1,28,-1
 1624 0 l 1,29,30
 1530 -2 1530 -2 1452 53 c 0,0,1
EndSplineSet
EndChar

StartChar: afii52305
Encoding: 64400 64400 134
Width: 975
GlyphClass: 2
Flags: W
AnchorPoint: "Anchor-3" 210 -510 basechar 0
AnchorPoint: "Anchor-2" 150 1470 basechar 0
LayerCount: 2
Fore
SplineSet
-20 203 m 1,0,1
 434 203 434 203 733 262 c 1,2,3
 494 645 494 645 94 942 c 1,4,5
 66 997 66 997 66 1063 c 0,6,7
 66 1137 66 1137 133 1186 c 1,8,-1
 1075 1604 l 1,9,-1
 1044 1391 l 1,10,-1
 238 1069 l 1,11,12
 829 451 829 451 823 199 c 1,13,14
 813 172 813 172 813 164 c 0,15,16
 813 92 813 92 541 41 c 0,17,18
 305 0 305 0 45 0 c 2,19,-1
 -20 0 l 1,20,-1
 -20 203 l 1,0,1
EndSplineSet
EndChar

StartChar: afii52306
Encoding: 64401 64401 135
Width: 1071
GlyphClass: 2
Flags: W
AnchorPoint: "Anchor-3" 240 -495 basechar 0
AnchorPoint: "Anchor-2" 225 1485 basechar 0
LayerCount: 2
Fore
SplineSet
-20 203 m 1,0,1
 434 203 434 203 733 262 c 1,2,-1
 94 942 l 1,3,4
 66 997 66 997 66 1063 c 0,5,6
 66 1137 66 1137 133 1186 c 1,7,-1
 1075 1604 l 1,8,-1
 1044 1391 l 1,9,-1
 205 1042 l 1,10,-1
 977 207 l 1,11,12
 1049 199 1049 199 1090 203 c 1,13,-1
 1090 0 l 1,14,15
 995 -2 995 -2 919.5 54.5 c 128,-1,16
 844 111 844 111 813 158 c 1,17,18
 805 88 805 88 541 41 c 0,19,20
 305 0 305 0 45 0 c 2,21,-1
 -20 0 l 1,22,-1
 -20 203 l 1,0,1
EndSplineSet
EndChar

StartChar: afii57509
Encoding: 1711 1711 136
Width: 1716
GlyphClass: 2
Flags: W
AnchorPoint: "Anchor-3" 630 -660 basechar 0
AnchorPoint: "Anchor-2" 420 1125 basechar 0
LayerCount: 2
Fore
SplineSet
1491 160 m 1,0,1
 1425 20 1425 20 1057 -45 c 1,2,3
 811 -80 811 -80 532 -80 c 0,4,5
 53 -80 53 -80 53 184 c 0,6,7
 53 317 53 317 139 451 c 1,8,-1
 125 391 l 1,9,-1
 125 354 l 2,10,11
 125 113 125 113 588 113 c 0,12,13
 1288 113 1288 113 1425 231 c 0,14,15
 1450 250 1450 250 1452 262 c 1,16,17
 1188 721 1188 721 791 1018 c 1,18,19
 760 1075 760 1075 760 1141 c 0,20,21
 760 1214 760 1214 829 1262 c 1,22,-1
 1769 1681 l 1,23,-1
 1741 1466 l 1,24,-1
 932 1147 l 1,25,26
 1524 528 1524 528 1518 276 c 1,27,28
 1513 246 1513 246 1491 160 c 1,0,1
1083 1532 m 1,29,-1
 1794 1860 l 1,30,-1
 1763 1767 l 1,31,-1
 1055 1440 l 1,32,-1
 1083 1532 l 1,29,-1
EndSplineSet
Substitution2: "'medi' Medial Forms in Arabic lookup 3 subtable" afii62966
Substitution2: "'fina' Terminal Forms in Arabic lookup 2 subtable" afii62967
Substitution2: "'init' Initial Forms in Arabic lookup 1 subtable" afii62965
EndChar

StartChar: afii62967
Encoding: 64403 64403 137
Width: 1602
GlyphClass: 2
Flags: W
AnchorPoint: "Anchor-3" 675 -600 basechar 0
AnchorPoint: "Anchor-2" 360 1200 basechar 0
LayerCount: 2
Fore
SplineSet
1452 53 m 0,0,1
 1384 104 1384 104 1354 145 c 1,2,3
 1268 27 1268 27 936 -33 c 1,4,5
 688 -68 688 -68 410 -68 c 0,6,7
 -68 -68 -68 -68 -68 197 c 0,8,9
 -68 330 -68 330 18 463 c 1,10,-1
 2 403 l 1,11,-1
 2 365 l 2,12,13
 2 125 2 125 467 125 c 0,14,15
 1135 125 1135 125 1292 229 c 1,16,-1
 1268 262 l 1,17,-1
 629 942 l 1,18,19
 600 997 600 997 600 1063 c 0,20,21
 600 1137 600 1137 668 1186 c 1,22,-1
 1610 1604 l 1,23,-1
 1579 1391 l 1,24,-1
 739 1042 l 1,25,-1
 1511 207 l 1,26,27
 1583 199 1583 199 1624 203 c 1,28,-1
 1624 0 l 1,29,30
 1530 -2 1530 -2 1452 53 c 0,0,1
879 1464 m 1,31,-1
 1589 1790 l 1,32,-1
 1559 1698 l 1,33,-1
 850 1372 l 1,34,-1
 879 1464 l 1,31,-1
EndSplineSet
EndChar

StartChar: afii62965
Encoding: 64404 64404 138
Width: 975
GlyphClass: 2
Flags: W
AnchorPoint: "Anchor-3" 180 -525 basechar 0
AnchorPoint: "Anchor-2" 210 1665 basechar 0
LayerCount: 2
Fore
SplineSet
-20 203 m 1,0,1
 434 203 434 203 733 262 c 1,2,3
 494 645 494 645 94 942 c 1,4,5
 66 997 66 997 66 1063 c 0,6,7
 66 1137 66 1137 133 1186 c 1,8,-1
 1075 1604 l 1,9,-1
 1044 1391 l 1,10,-1
 238 1069 l 1,11,12
 829 451 829 451 823 199 c 1,13,14
 813 172 813 172 813 164 c 0,15,16
 813 92 813 92 541 41 c 0,17,18
 305 0 305 0 45 0 c 2,19,-1
 -20 0 l 1,20,-1
 -20 203 l 1,0,1
336 1470 m 1,21,-1
 1044 1796 l 1,22,-1
 1016 1704 l 1,23,-1
 305 1378 l 1,24,-1
 336 1470 l 1,21,-1
EndSplineSet
EndChar

StartChar: afii62966
Encoding: 64405 64405 139
Width: 1071
GlyphClass: 2
Flags: W
AnchorPoint: "Anchor-3" 255 -525 basechar 0
AnchorPoint: "Anchor-2" 315 1605 basechar 0
LayerCount: 2
Fore
SplineSet
-20 203 m 1,0,1
 434 203 434 203 733 262 c 1,2,-1
 94 942 l 1,3,4
 66 997 66 997 66 1063 c 0,5,6
 66 1137 66 1137 133 1186 c 1,7,-1
 1075 1604 l 1,8,-1
 1044 1391 l 1,9,-1
 205 1042 l 1,10,-1
 977 207 l 1,11,12
 1049 199 1049 199 1090 203 c 1,13,-1
 1090 0 l 1,14,15
 995 -2 995 -2 919.5 54.5 c 128,-1,16
 844 111 844 111 813 158 c 1,17,18
 805 88 805 88 541 41 c 0,19,20
 305 0 305 0 45 0 c 2,21,-1
 -20 0 l 1,22,-1
 -20 203 l 1,0,1
356 1473 m 1,23,-1
 1067 1800 l 1,24,-1
 1036 1708 l 1,25,-1
 326 1380 l 1,26,-1
 356 1473 l 1,23,-1
EndSplineSet
EndChar

StartChar: afii57555
Encoding: 1740 1740 140
Width: 1655
GlyphClass: 2
Flags: W
AnchorPoint: "Anchor-3" 705 -1230 basechar 0
AnchorPoint: "Anchor-2" 675 675 basechar 0
LayerCount: 2
Fore
SplineSet
164 -152 m 0,0,1
 164 100 164 100 332 297 c 1,2,3
 246 100 246 100 246 -45 c 0,4,5
 246 -236 246 -236 404.5 -359.5 c 128,-1,6
 563 -483 563 -483 760.5 -470 c 128,-1,7
 958 -457 958 -457 1144.5 -353.5 c 128,-1,8
 1331 -250 1331 -250 1524 -111 c 1,9,10
 1399 -59 1399 -59 1167.5 -19.5 c 128,-1,11
 936 20 936 20 905 27 c 0,12,13
 852 39 852 39 852 92 c 0,14,15
 852 262 852 262 1057 470 c 128,-1,16
 1262 678 1262 678 1432 678 c 0,17,18
 1542 678 1542 678 1591 547 c 1,19,-1
 1565 397 l 1,20,21
 1485 496 1485 496 1358 496 c 0,22,23
 1268 496 1268 496 1116 377 c 0,24,25
 991 279 991 279 915 172 c 1,26,27
 924 176 924 176 944 176 c 0,28,29
 1024 176 1024 176 1218.5 138 c 128,-1,30
 1413 100 1413 100 1473 80 c 0,31,32
 1616 29 1616 29 1616 -164 c 0,33,34
 1616 -244 1616 -244 1579 -272 c 0,35,36
 1366 -455 1366 -455 1122.5 -580 c 128,-1,37
 879 -705 879 -705 699.5 -692.5 c 128,-1,38
 520 -680 520 -680 344 -547 c 1,39,40
 164 -381 164 -381 164 -152 c 0,0,1
EndSplineSet
Substitution2: "'medi' Medial Forms in Arabic lookup 3 subtable" afii62832
Substitution2: "'fina' Terminal Forms in Arabic lookup 2 subtable" afii52364
Substitution2: "'init' Initial Forms in Arabic lookup 1 subtable" uniFBFE
EndChar

StartChar: afii52364
Encoding: 64509 64509 141
Width: 1416
GlyphClass: 2
Flags: W
AnchorPoint: "Anchor-3" 855 -1305 basechar 0
AnchorPoint: "Anchor-2" 630 570 basechar 0
LayerCount: 2
Fore
SplineSet
148 -422 m 1,0,1
 148 -154 148 -154 320 53 c 1,2,3
 275 -57 275 -57 269 -246.5 c 128,-1,4
 263 -436 263 -436 370.5 -547.5 c 128,-1,5
 478 -659 478 -659 648 -671.5 c 128,-1,6
 818 -684 818 -684 1022.5 -626.5 c 128,-1,7
 1227 -569 1227 -569 1324 -473 c 1,8,9
 1180 -410 1180 -410 1103 -395 c 0,10,11
 836 -336 836 -336 795 -315 c 1,12,13
 765 -311 765 -311 765 -262 c 0,14,15
 765 -133 765 -133 937 20 c 0,16,17
 1146 203 1146 203 1418 203 c 1,18,-1
 1418 0 l 1,19,20
 1139 0 1139 0 857 -172 c 1,21,22
 988 -197 988 -197 1162 -244 c 0,23,24
 1418 -317 1418 -317 1418 -494 c 0,25,26
 1418 -678 1418 -678 1146.5 -780.5 c 128,-1,27
 875 -883 875 -883 670.5 -873.5 c 128,-1,28
 466 -864 466 -864 321.5 -745.5 c 128,-1,29
 177 -627 177 -627 148 -422 c 1,0,1
EndSplineSet
EndChar

StartChar: afii62945
Encoding: 65557 -1 147
Width: 1655
GlyphClass: 3
Flags: W
LayerCount: 2
Fore
SplineSet
74 428 m 0,0,1
 74 481 74 481 182.5 589.5 c 128,-1,2
 291 698 291 698 344 719.5 c 128,-1,3
 397 741 397 741 418 748 c 1,4,-1
 485 932 l 1,5,6
 477 893 477 893 477 840 c 0,7,8
 477 614 477 614 541 436 c 0,9,10
 614 219 614 219 754 203 c 1,11,12
 819 207 819 207 856 225 c 0,13,14
 920 256 920 256 920 350 c 2,15,-1
 920 1042 l 2,16,17
 920 1102 920 1102 1042 1229 c 1,18,-1
 1042 348 l 2,19,20
 1042 276 1042 276 1108 238 c 1,21,22
 1153 207 1153 207 1212 199 c 1,23,24
 1280 199 1280 199 1346 217 c 1,25,26
 1470 240 1470 240 1470 305 c 2,27,-1
 1470 1030 l 1,28,-1
 1589 1229 l 1,29,-1
 1591 283 l 2,30,31
 1591 143 1591 143 1458 61 c 1,32,33
 1372 2 1372 2 1268 0 c 0,34,35
 1147 -6 1147 -6 1094 53 c 1,36,37
 1038 94 1038 94 989 207 c 1,38,39
 969 125 969 125 885 51 c 0,40,41
 817 -8 817 -8 733 0 c 1,42,43
 481 8 481 8 455 389 c 1,44,45
 414 303 414 303 299 303 c 0,46,47
 225 303 225 303 164 330 c 0,48,49
 74 365 74 365 74 428 c 0,0,1
193 508 m 1,50,51
 219 444 219 444 315 444 c 0,52,53
 369 444 369 444 451 467 c 1,54,-1
 422 674 l 2,55,56
 418 678 418 678 414 678 c 0,57,58
 369 678 369 678 281 612.5 c 128,-1,59
 193 547 193 547 193 508 c 1,50,51
EndSplineSet
EndChar

StartChar: afii64184
Encoding: 65010 65010 148
Width: 1655
GlyphClass: 3
Flags: W
AnchorPoint: "Anchor-1" 1530 -450 baselig 0
AnchorPoint: "Anchor-0" 1530 1350 baselig 0
AnchorPoint: "Anchor-1" 1035 -495 baselig 1
AnchorPoint: "Anchor-0" 990 1290 baselig 1
AnchorPoint: "Anchor-1" 510 -465 baselig 2
AnchorPoint: "Anchor-0" 285 1020 baselig 2
LayerCount: 2
Fore
SplineSet
74 428 m 0,0,1
 74 481 74 481 182.5 589.5 c 128,-1,2
 291 698 291 698 344 719.5 c 128,-1,3
 397 741 397 741 418 748 c 1,4,-1
 485 932 l 1,5,6
 477 893 477 893 477 840 c 0,7,8
 477 614 477 614 541 436 c 0,9,10
 614 219 614 219 754 203 c 1,11,12
 819 207 819 207 856 225 c 0,13,14
 920 256 920 256 920 350 c 2,15,-1
 920 1042 l 2,16,17
 920 1102 920 1102 1042 1229 c 1,18,-1
 1042 348 l 2,19,20
 1042 276 1042 276 1108 238 c 1,21,22
 1153 207 1153 207 1212 199 c 1,23,24
 1280 199 1280 199 1346 217 c 1,25,26
 1470 240 1470 240 1470 305 c 2,27,-1
 1470 1030 l 1,28,-1
 1589 1229 l 1,29,-1
 1591 283 l 2,30,31
 1591 143 1591 143 1458 61 c 1,32,33
 1372 2 1372 2 1268 0 c 0,34,35
 1147 -6 1147 -6 1094 53 c 1,36,37
 1038 94 1038 94 989 207 c 1,38,39
 969 125 969 125 885 51 c 0,40,41
 817 -8 817 -8 733 0 c 1,42,43
 481 8 481 8 455 389 c 1,44,45
 414 303 414 303 299 303 c 0,46,47
 225 303 225 303 164 330 c 0,48,49
 74 365 74 365 74 428 c 0,0,1
761 1386 m 0,50,51
 761 1552 761 1552 835 1552 c 1,52,-1
 851 1550 l 1,53,54
 845 1499 845 1499 845 1464 c 0,55,56
 845 1394 845 1394 874 1394 c 0,57,58
 933 1394 933 1394 954 1474 c 1,59,-1
 970 1597 l 1,60,-1
 1038 1623 l 1,61,-1
 1044 1540 l 1,62,63
 1058 1486 1058 1486 1097 1486 c 0,64,65
 1162 1486 1162 1486 1162 1677 c 1,66,-1
 1216 1701 l 1,67,68
 1236 1626 1236 1626 1236 1537 c 0,69,70
 1236 1333 1236 1333 1117 1333 c 0,71,72
 1062 1333 1062 1333 1023 1386 c 1,73,74
 960 1290 960 1290 954 1281 c 0,75,76
 911 1236 911 1236 847 1236 c 0,77,78
 808 1236 808 1236 782 1296 c 0,79,80
 761 1345 761 1345 761 1386 c 0,50,51
193 508 m 1,81,82
 219 444 219 444 315 444 c 0,83,84
 369 444 369 444 451 467 c 1,85,-1
 422 674 l 2,86,87
 418 678 418 678 414 678 c 0,88,89
 369 678 369 678 281 612.5 c 128,-1,90
 193 547 193 547 193 508 c 1,81,82
979 1959 m 2,91,92
 979 1973 979 1973 1049 2027 c 1,93,-1
 1049 1730 l 1,94,95
 1012 1685 1012 1685 979 1671 c 1,96,-1
 979 1959 l 2,91,92
EndSplineSet
Ligature2: "'rlig' Required Ligatures in Arabic lookup 5 subtable" afii62817 afii62818 uniFC63 afii62828
Ligature2: "'rlig' Required Ligatures in Arabic lookup 5 subtable" afii62817 afii62818 afii57457 uni0670 afii62828
EndChar

StartChar: afii57415.001
Encoding: 1575 1575 162
Width: 378
GlyphClass: 2
Flags: W
AnchorPoint: "Anchor-3" 270 -450 basechar 0
AnchorPoint: "Anchor-2" 255 1530 basechar 0
LayerCount: 2
Fore
SplineSet
176 1255 m 2,0,1
 176 1309 176 1309 319 1470 c 1,2,-1
 319 211 l 1,3,4
 274 68 274 68 176 6 c 1,5,-1
 176 1255 l 2,0,1
EndSplineSet
Substitution2: "'fina' Terminal Forms in Arabic lookup 2 subtable" afii62760
EndChar

StartChar: afii62760.001
Encoding: 65558 -1 163
Width: 505
GlyphClass: 2
Flags: W
LayerCount: 2
Fore
SplineSet
181 1260 m 1,0,1
 181 1319 181 1319 316 1470 c 1,2,-1
 316 356 l 2,3,4
 316 190 316 190 507 203 c 1,5,-1
 507 0 l 1,6,7
 214 -14 214 -14 197 197 c 1,8,-1
 181 1260 l 1,9,-1
 181 1260 l 1,0,1
EndSplineSet
EndChar

StartChar: afii57421
Encoding: 1581 1581 182
Width: 1368
GlyphClass: 2
Flags: W
AnchorPoint: "Anchor-3" 675 -1545 basechar 0
AnchorPoint: "Anchor-2" 690 930 basechar 0
LayerCount: 2
Fore
SplineSet
203 -403 m 1,0,1
 203 -180 203 -180 333 11.5 c 128,-1,2
 463 203 463 203 668 344 c 1,3,4
 553 389 553 389 442.5 385 c 128,-1,5
 332 381 332 381 225 322 c 1,6,7
 225 389 225 389 274.5 463 c 128,-1,8
 324 537 324 537 408 547 c 1,9,-1
 1333 547 l 1,10,-1
 1260 403 l 1,11,12
 1090 397 1090 397 975 362 c 0,13,14
 713 285 713 285 509 103.5 c 128,-1,15
 305 -78 305 -78 305 -322 c 1,16,17
 315 -565 315 -565 543.5 -708.5 c 128,-1,18
 772 -852 772 -852 1526 -778 c 1,19,20
 1446 -885 1446 -885 1208.5 -951.5 c 128,-1,21
 971 -1018 971 -1018 791 -1012 c 0,22,23
 434 -995 434 -995 309 -798.5 c 128,-1,24
 184 -602 184 -602 203 -403 c 1,0,1
EndSplineSet
Substitution2: "'medi' Medial Forms in Arabic lookup 3 subtable" afii62775
Substitution2: "'fina' Terminal Forms in Arabic lookup 2 subtable" afii62776
Substitution2: "'init' Initial Forms in Arabic lookup 1 subtable" afii62774
EndChar

StartChar: afii62776
Encoding: 65186 65186 183
Width: 1425
GlyphClass: 2
Flags: W
AnchorPoint: "Anchor-3" 735 -1515 basechar 0
AnchorPoint: "Anchor-2" 825 900 basechar 0
LayerCount: 2
Fore
SplineSet
231 -434 m 1,0,1
 231 -211 231 -211 362.5 -19.5 c 128,-1,2
 494 172 494 172 698 315 c 1,3,4
 582 358 582 358 472 354 c 128,-1,5
 362 350 362 350 256 291 c 1,6,7
 256 358 256 358 305 433 c 128,-1,8
 354 508 354 508 436 516 c 1,9,-1
 1364 516 l 1,10,-1
 1288 375 l 1,11,12
 1120 369 1120 369 1075 348 c 1,13,14
 1075 297 1075 297 1137.5 247 c 128,-1,15
 1200 197 1200 197 1444 203 c 1,16,-1
 1444 0 l 1,17,18
 1176 -2 1176 -2 1090 79 c 128,-1,19
 1004 160 1004 160 1004 332 c 1,20,21
 741 256 741 256 538.5 75 c 128,-1,22
 336 -106 336 -106 336 -350 c 1,23,24
 344 -594 344 -594 572.5 -738.5 c 128,-1,25
 801 -883 801 -883 1556 -807 c 1,26,27
 1477 -915 1477 -915 1239 -982 c 128,-1,28
 1001 -1049 1001 -1049 819 -1042 c 0,29,30
 463 -1024 463 -1024 338 -828.5 c 128,-1,31
 213 -633 213 -633 231 -434 c 1,0,1
EndSplineSet
EndChar

StartChar: afii62774
Encoding: 65187 65187 184
Width: 1294
GlyphClass: 2
Flags: W
AnchorPoint: "Anchor-3" 435 -480 basechar 0
AnchorPoint: "Anchor-2" 480 870 basechar 0
LayerCount: 2
Fore
SplineSet
-14 203 m 1,0,-1
 166 203 l 1,1,2
 469 197 469 197 791 270 c 1,3,4
 711 317 711 317 566.5 392 c 128,-1,5
 422 467 422 467 352.5 458 c 128,-1,6
 283 449 283 449 164 397 c 1,7,8
 236 508 236 508 297 557 c 128,-1,9
 358 606 358 606 427 614.5 c 128,-1,10
 496 623 496 623 618.5 553 c 128,-1,11
 741 483 741 483 863 418.5 c 128,-1,12
 985 354 985 354 1112 345 c 128,-1,13
 1239 336 1239 336 1292 336 c 1,14,-1
 1217 203 l 1,15,16
 1108 197 1108 197 706.5 105.5 c 128,-1,17
 305 14 305 14 -14 0 c 1,18,-1
 -14 203 l 1,0,-1
EndSplineSet
EndChar

StartChar: afii62775
Encoding: 65188 65188 185
Width: 1395
GlyphClass: 2
Flags: W
AnchorPoint: "Anchor-3" 495 -465 basechar 0
AnchorPoint: "Anchor-2" 705 1095 basechar 0
LayerCount: 2
Fore
SplineSet
-14 203 m 1,0,1
 375 199 375 199 778 362 c 1,2,3
 739 385 739 385 600 473 c 128,-1,4
 461 561 461 561 330 561 c 0,5,6
 217 561 217 561 143 473 c 1,7,8
 246 715 246 715 401 715 c 1,9,10
 500 719 500 719 678 611.5 c 128,-1,11
 856 504 856 504 965.5 457 c 128,-1,12
 1075 410 1075 410 1235 414 c 1,13,-1
 1309 414 l 1,14,-1
 1266 276 l 1,15,-1
 1176 276 l 1,16,17
 1194 223 1194 223 1249.5 213 c 128,-1,18
 1305 203 1305 203 1413 203 c 1,19,-1
 1413 0 l 1,20,-1
 1360 0 l 2,21,22
 1255 0 1255 0 1178.5 60.5 c 128,-1,23
 1102 121 1102 121 1083 270 c 1,24,25
 932 266 932 266 686 163.5 c 128,-1,26
 440 61 440 61 276.5 27.5 c 128,-1,27
 113 -6 113 -6 -14 0 c 1,28,-1
 -14 203 l 1,0,1
EndSplineSet
EndChar

StartChar: afii57423
Encoding: 1583 1583 190
Width: 970
GlyphClass: 2
Flags: W
AnchorPoint: "Anchor-3" 405 -525 basechar 0
AnchorPoint: "Anchor-2" 450 1185 basechar 0
LayerCount: 2
Fore
SplineSet
173 61 m 1,0,1
 153 129 153 129 162 191.5 c 128,-1,2
 171 254 171 254 198 295 c 1,3,4
 309 199 309 199 554 199 c 0,5,6
 800 199 800 199 892 240 c 1,7,8
 892 401 892 401 753 526 c 0,9,10
 618 651 618 651 454 651 c 0,11,12
 409 651 409 651 395 635 c 1,13,-1
 503 838 l 1,14,15
 698 807 698 807 827 657.5 c 128,-1,16
 956 508 956 508 956 315 c 0,17,18
 956 113 956 113 804 51 c 0,19,20
 767 39 767 39 650.5 16.5 c 128,-1,21
 534 -6 534 -6 495 -6 c 0,22,23
 321 -6 321 -6 173 61 c 1,0,1
EndSplineSet
Substitution2: "'fina' Terminal Forms in Arabic lookup 2 subtable" afii62780
PairPos2: "'kern' Horizontal Kerning in Arabic lookup 0 subtable" afii57444 dx=0 dy=0 dh=0 dv=0 dx=0 dy=0 dh=-50 dv=0
PairPos2: "'kern' Horizontal Kerning in Arabic lookup 0 subtable" afii57434 dx=0 dy=0 dh=0 dv=0 dx=0 dy=0 dh=-100 dv=0
PairPos2: "'kern' Horizontal Kerning in Arabic lookup 0 subtable" afii57433 dx=0 dy=0 dh=0 dv=0 dx=0 dy=0 dh=-100 dv=0
EndChar

StartChar: afii62780
Encoding: 65194 65194 191
Width: 1327
GlyphClass: 2
Flags: W
AnchorPoint: "Anchor-3" 600 -540 basechar 0
AnchorPoint: "Anchor-2" 750 1170 basechar 0
LayerCount: 2
Fore
SplineSet
297 197 m 0,0,1
 297 279 297 279 348 375 c 1,2,3
 348 199 348 199 582 199 c 0,4,5
 817 199 817 199 977 358 c 1,6,7
 866 680 866 680 807 801 c 1,8,-1
 858 977 l 1,9,-1
 977 674 l 1,10,11
 1122 252 1122 252 1288 203 c 1,12,-1
 1341 203 l 1,13,-1
 1341 0 l 1,14,15
 1229 -2 1229 -2 1133.5 87 c 128,-1,16
 1038 176 1038 176 1010 291 c 1,17,18
 995 178 995 178 969 147 c 0,19,20
 860 -6 860 -6 555 -6 c 0,21,22
 297 -6 297 -6 297 197 c 0,0,1
EndSplineSet
PairPos2: "'kern' Horizontal Kerning in Arabic lookup 0 subtable" afii57444 dx=0 dy=0 dh=0 dv=0 dx=0 dy=0 dh=-50 dv=0
PairPos2: "'kern' Horizontal Kerning in Arabic lookup 0 subtable" afii57434 dx=0 dy=0 dh=0 dv=0 dx=0 dy=0 dh=-100 dv=0
PairPos2: "'kern' Horizontal Kerning in Arabic lookup 0 subtable" afii57433 dx=0 dy=0 dh=0 dv=0 dx=0 dy=0 dh=-100 dv=0
EndChar

StartChar: afii57425
Encoding: 1585 1585 194
Width: 873
GlyphClass: 2
Flags: W
AnchorPoint: "Anchor-3" 405 -1110 basechar 0
AnchorPoint: "Anchor-2" 555 825 basechar 0
LayerCount: 2
Fore
SplineSet
-143 -547 m 1,0,1
 -12 -537 -12 -537 216.5 -469 c 128,-1,2
 445 -401 445 -401 570 -316 c 128,-1,3
 695 -231 695 -231 747 -157.5 c 128,-1,4
 799 -84 799 -84 799 -31 c 0,5,6
 799 39 799 39 731.5 125 c 128,-1,7
 664 211 664 211 596 256 c 1,8,-1
 691 434 l 1,9,10
 873 266 873 266 873 0 c 0,11,12
 873 -186 873 -186 775 -328 c 1,13,14
 680 -475 680 -475 510 -532 c 0,15,16
 410 -569 410 -569 216 -569 c 0,17,18
 50 -569 50 -569 -143 -547 c 1,0,1
EndSplineSet
Substitution2: "'fina' Terminal Forms in Arabic lookup 2 subtable" afii62782
PairPos2: "'kern' Horizontal Kerning in Arabic lookup 0 subtable" afii57415 dx=0 dy=0 dh=0 dv=0 dx=0 dy=0 dh=-50 dv=0
PairPos2: "'kern' Horizontal Kerning in Arabic lookup 0 subtable" uni0675 dx=0 dy=0 dh=0 dv=0 dx=0 dy=0 dh=-50 dv=0
PairPos2: "'kern' Horizontal Kerning in Arabic lookup 0 subtable" uni0672 dx=0 dy=0 dh=0 dv=0 dx=0 dy=0 dh=-50 dv=0
PairPos2: "'kern' Horizontal Kerning in Arabic lookup 0 subtable" afii62831 dx=0 dy=0 dh=0 dv=0 dx=0 dy=0 dh=100 dv=0
PairPos2: "'kern' Horizontal Kerning in Arabic lookup 0 subtable" afii57410 dx=0 dy=0 dh=0 dv=0 dx=0 dy=0 dh=-200 dv=0
PairPos2: "'kern' Horizontal Kerning in Arabic lookup 0 subtable" afii57434 dx=0 dy=0 dh=0 dv=0 dx=0 dy=0 dh=-100 dv=0
PairPos2: "'kern' Horizontal Kerning in Arabic lookup 0 subtable" afii57433 dx=0 dy=0 dh=0 dv=0 dx=0 dy=0 dh=-100 dv=0
PairPos2: "'kern' Horizontal Kerning in Arabic lookup 0 subtable" afii62761 dx=0 dy=0 dh=0 dv=0 dx=0 dy=0 dh=100 dv=0
PairPos2: "'kern' Horizontal Kerning in Arabic lookup 0 subtable" afii57411 dx=0 dy=0 dh=0 dv=0 dx=0 dy=0 dh=-50 dv=0
PairPos2: "'kern' Horizontal Kerning in Arabic lookup 0 subtable" afii62965 dx=0 dy=0 dh=0 dv=0 dx=0 dy=0 dh=-200 dv=0
PairPos2: "'kern' Horizontal Kerning in Arabic lookup 0 subtable" afii57509 dx=0 dy=0 dh=0 dv=0 dx=0 dy=0 dh=-200 dv=0
PairPos2: "'kern' Horizontal Kerning in Arabic lookup 0 subtable" afii52305 dx=0 dy=0 dh=0 dv=0 dx=0 dy=0 dh=-200 dv=0
PairPos2: "'kern' Horizontal Kerning in Arabic lookup 0 subtable" afii57567 dx=0 dy=0 dh=0 dv=0 dx=0 dy=0 dh=-200 dv=0
PairPos2: "'kern' Horizontal Kerning in Arabic lookup 0 subtable" afii62956 dx=0 dy=0 dh=0 dv=0 dx=0 dy=0 dh=100 dv=0
EndChar

StartChar: afii62782
Encoding: 65198 65198 195
Width: 1056
GlyphClass: 2
Flags: W
AnchorPoint: "Anchor-3" 495 -1005 basechar 0
AnchorPoint: "Anchor-2" 570 780 basechar 0
LayerCount: 2
Fore
SplineSet
-125 -547 m 1,0,1
 -13 -528 -13 -528 80 -510 c 0,2,3
 534 -422 534 -422 759 -133 c 1,4,5
 856 6 856 6 856 45 c 1,6,7
 852 59 852 59 845 61 c 1,8,9
 805 113 805 113 704 207 c 1,10,-1
 684 231 l 1,11,-1
 757 434 l 1,12,13
 776 330 776 330 856 264.5 c 128,-1,14
 936 199 936 199 1042 203 c 1,15,-1
 1073 203 l 1,16,-1
 1073 0 l 1,17,18
 1048 0 1048 0 1008 6 c 128,-1,19
 968 12 968 12 938 29 c 1,20,21
 923 -51 923 -51 909 -106 c 0,22,23
 802 -442 802 -442 553 -522 c 0,24,25
 415 -569 415 -569 348 -569 c 2,26,-1
 225 -569 l 2,27,28
 100 -569 100 -569 -125 -547 c 1,0,1
EndSplineSet
PairPos2: "'kern' Horizontal Kerning in Arabic lookup 0 subtable" afii57415 dx=0 dy=0 dh=0 dv=0 dx=0 dy=0 dh=-100 dv=0
PairPos2: "'kern' Horizontal Kerning in Arabic lookup 0 subtable" afii62831 dx=0 dy=0 dh=0 dv=0 dx=0 dy=0 dh=80 dv=0
PairPos2: "'kern' Horizontal Kerning in Arabic lookup 0 subtable" afii62817 dx=0 dy=0 dh=0 dv=0 dx=0 dy=0 dh=-70 dv=0
PairPos2: "'kern' Horizontal Kerning in Arabic lookup 0 subtable" afii57410 dx=0 dy=0 dh=0 dv=0 dx=0 dy=0 dh=-200 dv=0
PairPos2: "'kern' Horizontal Kerning in Arabic lookup 0 subtable" afii57443 dx=0 dy=0 dh=0 dv=0 dx=0 dy=0 dh=-70 dv=0
PairPos2: "'kern' Horizontal Kerning in Arabic lookup 0 subtable" afii57434 dx=0 dy=0 dh=0 dv=0 dx=0 dy=0 dh=-80 dv=0
PairPos2: "'kern' Horizontal Kerning in Arabic lookup 0 subtable" afii57433 dx=0 dy=0 dh=0 dv=0 dx=0 dy=0 dh=-80 dv=0
PairPos2: "'kern' Horizontal Kerning in Arabic lookup 0 subtable" afii62761 dx=0 dy=0 dh=0 dv=0 dx=0 dy=0 dh=80 dv=0
PairPos2: "'kern' Horizontal Kerning in Arabic lookup 0 subtable" afii57413 dx=0 dy=0 dh=0 dv=0 dx=0 dy=0 dh=120 dv=0
PairPos2: "'kern' Horizontal Kerning in Arabic lookup 0 subtable" afii62965 dx=0 dy=0 dh=0 dv=0 dx=0 dy=0 dh=-200 dv=0
PairPos2: "'kern' Horizontal Kerning in Arabic lookup 0 subtable" afii57509 dx=0 dy=0 dh=0 dv=0 dx=0 dy=0 dh=-200 dv=0
PairPos2: "'kern' Horizontal Kerning in Arabic lookup 0 subtable" afii52305 dx=0 dy=0 dh=0 dv=0 dx=0 dy=0 dh=-200 dv=0
PairPos2: "'kern' Horizontal Kerning in Arabic lookup 0 subtable" afii57567 dx=0 dy=0 dh=0 dv=0 dx=0 dy=0 dh=-200 dv=0
PairPos2: "'kern' Horizontal Kerning in Arabic lookup 0 subtable" afii62956 dx=0 dy=0 dh=0 dv=0 dx=0 dy=0 dh=80 dv=0
EndChar

StartChar: afii57427
Encoding: 1587 1587 198
Width: 2223
GlyphClass: 2
Flags: W
AnchorPoint: "Anchor-3" 705 -1200 basechar 0
AnchorPoint: "Anchor-2" 1440 930 basechar 0
LayerCount: 2
Fore
SplineSet
193 -256 m 0,0,1
 193 -14 193 -14 381 152 c 1,2,3
 295 25 295 25 295 -127 c 0,4,5
 295 -299 295 -299 408 -401 c 1,6,7
 532 -526 532 -526 715.5 -531.5 c 128,-1,8
 899 -537 899 -537 1066 -440.5 c 128,-1,9
 1233 -344 1233 -344 1247 -104 c 0,10,11
 1253 66 1253 66 1147 203 c 1,12,-1
 1223 381 l 1,13,14
 1260 305 1260 305 1332.5 240.5 c 128,-1,15
 1405 176 1405 176 1520.5 196.5 c 128,-1,16
 1636 217 1636 217 1704 449 c 1,17,18
 1720 356 1720 356 1784.5 273 c 128,-1,19
 1849 190 1849 190 1962 190 c 0,20,21
 2079 190 2079 190 2120 244 c 1,22,-1
 2048 408 l 1,23,-1
 2114 608 l 1,24,25
 2195 389 2195 389 2195 211 c 0,26,27
 2195 121 2195 121 2133 57.5 c 128,-1,28
 2071 -6 2071 -6 1963 -7 c 128,-1,29
 1855 -8 1855 -8 1795 48 c 128,-1,30
 1735 104 1735 104 1714 158 c 1,31,32
 1622 18 1622 18 1514.5 3 c 128,-1,33
 1407 -12 1407 -12 1335 18 c 1,34,35
 1348 -98 1348 -98 1339 -127 c 1,36,37
 1327 -414 1327 -414 1141.5 -578.5 c 128,-1,38
 956 -743 956 -743 725 -743 c 0,39,40
 489 -743 489 -743 341 -600 c 128,-1,41
 193 -457 193 -457 193 -256 c 0,0,1
EndSplineSet
Substitution2: "'medi' Medial Forms in Arabic lookup 3 subtable" afii62785
Substitution2: "'fina' Terminal Forms in Arabic lookup 2 subtable" afii62786
Substitution2: "'init' Initial Forms in Arabic lookup 1 subtable" afii62784
EndChar

StartChar: afii62786
Encoding: 65202 65202 199
Width: 2447
GlyphClass: 2
Flags: W
AnchorPoint: "Anchor-3" 765 -1275 basechar 0
AnchorPoint: "Anchor-2" 780 585 basechar 0
LayerCount: 2
Fore
SplineSet
193 -256 m 0,0,1
 193 -14 193 -14 381 152 c 1,2,3
 295 25 295 25 295 -127 c 0,4,5
 295 -299 295 -299 408 -401 c 1,6,7
 532 -526 532 -526 715.5 -531.5 c 128,-1,8
 899 -537 899 -537 1066 -440.5 c 128,-1,9
 1233 -344 1233 -344 1247 -104 c 0,10,11
 1253 66 1253 66 1147 203 c 1,12,-1
 1223 381 l 1,13,14
 1294 236 1294 236 1331 219 c 1,15,16
 1380 180 1380 180 1505 196.5 c 128,-1,17
 1630 213 1630 213 1702 418 c 1,18,19
 1716 356 1716 356 1775.5 277.5 c 128,-1,20
 1835 199 1835 199 1936.5 201 c 128,-1,21
 2038 203 2038 203 2105.5 270.5 c 128,-1,22
 2173 338 2173 338 2204 416 c 1,23,24
 2218 330 2218 330 2280.5 266.5 c 128,-1,25
 2343 203 2343 203 2476 203 c 1,26,-1
 2476 0 l 1,27,28
 2361 2 2361 2 2283.5 41 c 128,-1,29
 2206 80 2206 80 2167 186 c 1,30,31
 2144 109 2144 109 2086 60.5 c 128,-1,32
 2028 12 2028 12 1957 3 c 128,-1,33
 1886 -6 1886 -6 1816.5 30 c 128,-1,34
 1747 66 1747 66 1702 158 c 1,35,36
 1606 18 1606 18 1491 2 c 0,37,38
 1405 -8 1405 -8 1335 14 c 1,39,40
 1346 -98 1346 -98 1339 -127 c 1,41,42
 1327 -414 1327 -414 1141.5 -578.5 c 128,-1,43
 956 -743 956 -743 725 -743 c 0,44,45
 489 -743 489 -743 341 -600 c 128,-1,46
 193 -457 193 -457 193 -256 c 0,0,1
EndSplineSet
EndChar

StartChar: afii62784
Encoding: 65203 65203 200
Width: 1305
GlyphClass: 2
Flags: W
AnchorPoint: "Anchor-3" 645 -600 basechar 0
AnchorPoint: "Anchor-2" 735 795 basechar 0
LayerCount: 2
Fore
SplineSet
279 203 m 1,0,1
 254 147 254 147 212 108.5 c 128,-1,2
 170 70 170 70 126 45 c 128,-1,3
 82 20 82 20 42 10 c 128,-1,4
 2 0 2 0 -20 0 c 1,5,-1
 -20 203 l 1,6,-1
 2 203 l 2,7,8
 143 203 143 203 219 270.5 c 128,-1,9
 295 338 295 338 324 416 c 1,10,11
 338 317 338 317 402.5 247.5 c 128,-1,12
 467 178 467 178 602 195.5 c 128,-1,13
 737 213 737 213 807 449 c 1,14,15
 823 356 823 356 887.5 273 c 128,-1,16
 952 190 952 190 1067 190 c 256,17,18
 1182 190 1182 190 1223 244 c 1,19,-1
 1153 408 l 1,20,-1
 1217 608 l 1,21,22
 1298 389 1298 389 1298 211 c 0,23,24
 1298 121 1298 121 1236 57.5 c 128,-1,25
 1174 -6 1174 -6 1066 -7 c 128,-1,26
 958 -8 958 -8 898 48 c 128,-1,27
 838 104 838 104 817 158 c 1,28,29
 725 18 725 18 606 3 c 128,-1,30
 487 -12 487 -12 405.5 36 c 128,-1,31
 324 84 324 84 279 203 c 1,0,1
EndSplineSet
EndChar

StartChar: afii62785
Encoding: 65204 65204 201
Width: 1585
GlyphClass: 2
Flags: W
AnchorPoint: "Anchor-3" 705 -645 basechar 0
AnchorPoint: "Anchor-2" 735 840 basechar 0
LayerCount: 2
Fore
SplineSet
1286 186 m 1,0,1
 1264 109 1264 109 1205.5 60.5 c 128,-1,2
 1147 12 1147 12 1076.5 3 c 128,-1,3
 1006 -6 1006 -6 935 30 c 128,-1,4
 864 66 864 66 819 158 c 1,5,6
 725 18 725 18 610.5 3 c 128,-1,7
 496 -12 496 -12 416 36 c 128,-1,8
 336 84 336 84 291 203 c 1,9,10
 266 147 266 147 224 108.5 c 128,-1,11
 182 70 182 70 138 45 c 128,-1,12
 94 20 94 20 54 10 c 128,-1,13
 14 0 14 0 -8 0 c 1,14,-1
 -8 203 l 1,15,-1
 14 203 l 2,16,17
 154 203 154 203 229.5 270.5 c 128,-1,18
 305 338 305 338 336 416 c 1,19,20
 350 317 350 317 413.5 247.5 c 128,-1,21
 477 178 477 178 612.5 195.5 c 128,-1,22
 748 213 748 213 819 418 c 1,23,24
 834 356 834 356 893 277.5 c 128,-1,25
 952 199 952 199 1053.5 201 c 128,-1,26
 1155 203 1155 203 1223.5 270.5 c 128,-1,27
 1292 338 1292 338 1321 416 c 1,28,29
 1335 330 1335 330 1397.5 266.5 c 128,-1,30
 1460 203 1460 203 1595 203 c 1,31,-1
 1595 0 l 1,32,33
 1479 2 1479 2 1402 41 c 128,-1,34
 1325 80 1325 80 1286 186 c 1,0,1
EndSplineSet
EndChar

StartChar: afii57429
Encoding: 1589 1589 206
Width: 2432
GlyphClass: 2
Flags: W
AnchorPoint: "Anchor-3" 600 -1260 basechar 0
AnchorPoint: "Anchor-2" 1515 1065 basechar 0
LayerCount: 2
Fore
SplineSet
1272 270 m 0,0,1
 1321 229 1321 229 1369 216 c 128,-1,2
 1417 203 1417 203 1444 203 c 1,3,4
 1460 246 1460 246 1638.5 394.5 c 128,-1,5
 1817 543 1817 543 1925.5 578.5 c 128,-1,6
 2034 614 2034 614 2111 614 c 0,7,8
 2222 614 2222 614 2309 535.5 c 128,-1,9
 2396 457 2396 457 2396 344 c 0,10,11
 2396 166 2396 166 2257 88 c 0,12,13
 2163 33 2163 33 1913 9.5 c 128,-1,14
 1663 -14 1663 -14 1511.5 -1 c 128,-1,15
 1360 12 1360 12 1313 33 c 1,16,17
 1327 -94 1327 -94 1319 -127 c 1,18,19
 1307 -414 1307 -414 1121.5 -578.5 c 128,-1,20
 936 -743 936 -743 705 -743 c 0,21,22
 469 -743 469 -743 320.5 -600 c 128,-1,23
 172 -457 172 -457 172 -256 c 0,24,25
 172 -14 172 -14 358 152 c 1,26,27
 272 25 272 25 272 -127 c 0,28,29
 272 -299 272 -299 385 -401 c 1,30,31
 510 -526 510 -526 694.5 -531.5 c 128,-1,32
 879 -537 879 -537 1045.5 -440.5 c 128,-1,33
 1212 -344 1212 -344 1227 -104 c 1,34,35
 1233 66 1233 66 1126 203 c 1,36,-1
 1202 381 l 1,37,38
 1206 358 1206 358 1220.5 331.5 c 128,-1,39
 1235 305 1235 305 1272 270 c 0,0,1
1868 203 m 2,40,41
 2087 203 2087 203 2329 276 c 1,42,43
 2238 444 2238 444 2145 469 c 128,-1,44
 2052 494 2052 494 1967 472.5 c 128,-1,45
 1882 451 1882 451 1746 361.5 c 128,-1,46
 1610 272 1610 272 1552 203 c 1,47,-1
 1868 203 l 2,40,41
EndSplineSet
Substitution2: "'medi' Medial Forms in Arabic lookup 3 subtable" afii62791
Substitution2: "'fina' Terminal Forms in Arabic lookup 2 subtable" afii62792
Substitution2: "'init' Initial Forms in Arabic lookup 1 subtable" afii62790
EndChar

StartChar: afii62792
Encoding: 65210 65210 207
Width: 2578
GlyphClass: 2
Flags: W
AnchorPoint: "Anchor-3" 660 -1245 basechar 0
AnchorPoint: "Anchor-2" 1260 825 basechar 0
LayerCount: 2
Fore
SplineSet
172 -256 m 0,0,1
 172 -14 172 -14 358 152 c 1,2,3
 272 25 272 25 272 -127 c 0,4,5
 272 -299 272 -299 385 -401 c 1,6,7
 510 -526 510 -526 694.5 -531.5 c 128,-1,8
 879 -537 879 -537 1045.5 -440.5 c 128,-1,9
 1212 -344 1212 -344 1227 -104 c 1,10,11
 1233 66 1233 66 1126 203 c 1,12,-1
 1202 381 l 1,13,14
 1208 332 1208 332 1270.5 271.5 c 128,-1,15
 1333 211 1333 211 1450 203 c 1,16,17
 1466 246 1466 246 1644.5 394.5 c 128,-1,18
 1823 543 1823 543 1931.5 578.5 c 128,-1,19
 2040 614 2040 614 2118 614 c 0,20,21
 2226 614 2226 614 2314 535.5 c 128,-1,22
 2402 457 2402 457 2402 344 c 0,23,24
 2402 283 2402 283 2384 231 c 1,25,26
 2456 199 2456 199 2587 203 c 1,27,-1
 2587 0 l 1,28,29
 2474 -2 2474 -2 2389 22.5 c 128,-1,30
 2304 47 2304 47 2271 92 c 1,31,32
 2265 92 2265 92 2263 88 c 0,33,34
 2167 39 2167 39 1929.5 13.5 c 128,-1,35
 1692 -12 1692 -12 1528 0 c 128,-1,36
 1364 12 1364 12 1313 39 c 1,37,38
 1327 -94 1327 -94 1319 -127 c 1,39,40
 1307 -414 1307 -414 1121.5 -578.5 c 128,-1,41
 936 -743 936 -743 705 -743 c 0,42,43
 469 -743 469 -743 320.5 -600 c 128,-1,44
 172 -457 172 -457 172 -256 c 0,0,1
1874 203 m 2,45,46
 2093 203 2093 203 2335 276 c 1,47,48
 2245 444 2245 444 2151.5 469 c 128,-1,49
 2058 494 2058 494 1973 472.5 c 128,-1,50
 1888 451 1888 451 1752 361.5 c 128,-1,51
 1616 272 1616 272 1559 203 c 1,52,-1
 1874 203 l 2,45,46
EndSplineSet
EndChar

StartChar: afii62790
Encoding: 65211 65211 208
Width: 1557
GlyphClass: 2
Flags: W
AnchorPoint: "Anchor-3" 450 -570 basechar 0
AnchorPoint: "Anchor-2" 525 990 basechar 0
LayerCount: 2
Fore
SplineSet
285 203 m 1,0,1
 260 147 260 147 218 108.5 c 128,-1,2
 176 70 176 70 132 45 c 128,-1,3
 88 20 88 20 48 10 c 128,-1,4
 8 0 8 0 -14 0 c 1,5,-1
 -14 203 l 1,6,-1
 8 203 l 2,7,8
 147 203 147 203 221 270.5 c 128,-1,9
 295 338 295 338 324 416 c 1,10,11
 324 332 324 332 386.5 271.5 c 128,-1,12
 449 211 449 211 563 203 c 1,13,14
 582 246 582 246 760 394.5 c 128,-1,15
 938 543 938 543 1046.5 578.5 c 128,-1,16
 1155 614 1155 614 1233 614 c 0,17,18
 1341 614 1341 614 1429.5 535.5 c 128,-1,19
 1518 457 1518 457 1518 344 c 0,20,21
 1518 166 1518 166 1378 88 c 0,22,23
 1262 27 1262 27 1048 4.5 c 128,-1,24
 834 -18 834 -18 721 -13 c 128,-1,25
 608 -8 608 -8 537.5 3 c 128,-1,26
 467 14 467 14 398.5 56 c 128,-1,27
 330 98 330 98 285 203 c 1,0,1
989 203 m 2,28,29
 1208 203 1208 203 1450 276 c 1,30,31
 1360 444 1360 444 1267 469 c 128,-1,32
 1174 494 1174 494 1089 472.5 c 128,-1,33
 1004 451 1004 451 867.5 361.5 c 128,-1,34
 731 272 731 272 674 203 c 1,35,-1
 989 203 l 2,28,29
EndSplineSet
EndChar

StartChar: afii62791
Encoding: 65212 65212 209
Width: 1692
GlyphClass: 2
Flags: W
AnchorPoint: "Anchor-3" 645 -600 basechar 0
AnchorPoint: "Anchor-2" 615 990 basechar 0
LayerCount: 2
Fore
SplineSet
285 203 m 1,0,1
 260 147 260 147 218 108.5 c 128,-1,2
 176 70 176 70 132 45 c 128,-1,3
 88 20 88 20 48 10 c 128,-1,4
 8 0 8 0 -14 0 c 1,5,-1
 -14 203 l 1,6,-1
 8 203 l 2,7,8
 147 203 147 203 221 270.5 c 128,-1,9
 295 338 295 338 324 416 c 1,10,11
 324 332 324 332 386.5 271.5 c 128,-1,12
 449 211 449 211 563 203 c 1,13,14
 582 246 582 246 760 394.5 c 128,-1,15
 938 543 938 543 1046.5 578.5 c 128,-1,16
 1155 614 1155 614 1233 614 c 0,17,18
 1341 614 1341 614 1429.5 535.5 c 128,-1,19
 1518 457 1518 457 1518 344 c 0,20,21
 1518 283 1518 283 1499 231 c 1,22,23
 1571 199 1571 199 1702 203 c 1,24,-1
 1702 0 l 1,25,26
 1589 -2 1589 -2 1503 22.5 c 128,-1,27
 1417 47 1417 47 1386 92 c 1,28,29
 1380 92 1380 92 1378 88 c 0,30,31
 1282 39 1282 39 1086.5 9.5 c 128,-1,32
 891 -20 891 -20 742.5 -16 c 128,-1,33
 594 -12 594 -12 528.5 1 c 128,-1,34
 463 14 463 14 396.5 56 c 128,-1,35
 330 98 330 98 285 203 c 1,0,1
989 203 m 2,36,37
 1208 203 1208 203 1450 276 c 1,38,39
 1360 444 1360 444 1267 469 c 128,-1,40
 1174 494 1174 494 1089 472.5 c 128,-1,41
 1004 451 1004 451 867.5 361.5 c 128,-1,42
 731 272 731 272 674 203 c 1,43,-1
 989 203 l 2,36,37
EndSplineSet
EndChar

StartChar: afii57431
Encoding: 1591 1591 214
Width: 1648
GlyphClass: 2
Flags: W
AnchorPoint: "Anchor-3" 795 -480 basechar 0
AnchorPoint: "Anchor-2" 1290 1200 basechar 0
LayerCount: 2
Fore
SplineSet
416 0 m 1,0,1
 379 20 379 20 337 43 c 128,-1,2
 295 66 295 66 258 90.5 c 128,-1,3
 221 115 221 115 191.5 143.5 c 128,-1,4
 162 172 162 172 147 203 c 1,5,-1
 627 203 l 1,6,-1
 627 205 l 1,7,-1
 659 203 l 1,8,9
 666 217 666 217 692 246 c 1,10,-1
 668 1346 l 1,11,-1
 784 1577 l 1,12,13
 793 1559 793 1559 834 1458 c 0,14,15
 870 1372 870 1372 870 1352 c 0,16,17
 870 1331 870 1331 835.5 1262.5 c 128,-1,18
 801 1194 801 1194 789.5 1094.5 c 128,-1,19
 778 995 778 995 779 699 c 128,-1,20
 780 403 780 403 772 324 c 1,21,22
 807 356 807 356 856 395 c 0,23,24
 1034 543 1034 543 1141.5 578.5 c 128,-1,25
 1249 614 1249 614 1327 614 c 0,26,27
 1438 614 1438 614 1525 535.5 c 128,-1,28
 1612 457 1612 457 1612 344 c 0,29,30
 1612 166 1612 166 1473 88 c 0,31,32
 1358 27 1358 27 1144 13.5 c 128,-1,33
 930 0 930 0 817 0 c 2,34,-1
 416 0 l 1,0,1
1083 203 m 2,35,36
 1305 203 1305 203 1544 276 c 1,37,38
 1454 444 1454 444 1361 469 c 128,-1,39
 1268 494 1268 494 1183 472.5 c 128,-1,40
 1098 451 1098 451 961.5 361.5 c 128,-1,41
 825 272 825 272 770 203 c 1,42,-1
 1083 203 l 2,35,36
EndSplineSet
Substitution2: "'medi' Medial Forms in Arabic lookup 3 subtable" afii62797
Substitution2: "'fina' Terminal Forms in Arabic lookup 2 subtable" afii62798
Substitution2: "'init' Initial Forms in Arabic lookup 1 subtable" afii62796
EndChar

StartChar: afii62798
Encoding: 65218 65218 215
Width: 1704
GlyphClass: 2
Flags: W
AnchorPoint: "Anchor-3" 915 -615 basechar 0
AnchorPoint: "Anchor-2" 1260 1035 basechar 0
LayerCount: 2
Fore
SplineSet
324 0 m 1,0,1
 293 20 293 20 258 41.5 c 128,-1,2
 223 63 223 63 192.5 89 c 128,-1,3
 162 115 162 115 141.5 142.5 c 128,-1,4
 121 170 121 170 117 203 c 1,5,-1
 563 203 l 1,6,-1
 563 205 l 1,7,-1
 596 203 l 1,8,9
 602 217 602 217 629 246 c 1,10,-1
 606 1346 l 1,11,-1
 721 1577 l 1,12,13
 731 1559 731 1559 772 1458 c 0,14,15
 807 1372 807 1372 807 1352 c 0,16,17
 807 1331 807 1331 773 1262.5 c 128,-1,18
 739 1194 739 1194 727 1094.5 c 128,-1,19
 715 995 715 995 717 699 c 128,-1,20
 719 403 719 403 711 324 c 1,21,22
 745 356 745 356 793 395 c 0,23,24
 971 543 971 543 1079.5 578.5 c 128,-1,25
 1188 614 1188 614 1266 614 c 0,26,27
 1374 614 1374 614 1462 535.5 c 128,-1,28
 1550 457 1550 457 1550 344 c 0,29,30
 1550 262 1550 262 1520 203 c 1,31,-1
 1729 203 l 1,32,-1
 1729 0 l 1,33,-1
 324 0 l 1,0,1
1022 203 m 2,34,35
 1241 203 1241 203 1483 276 c 1,36,37
 1393 444 1393 444 1299.5 469 c 128,-1,38
 1206 494 1206 494 1121 472.5 c 128,-1,39
 1036 451 1036 451 900 361.5 c 128,-1,40
 764 272 764 272 707 203 c 1,41,-1
 1022 203 l 2,34,35
EndSplineSet
EndChar

StartChar: afii62796
Encoding: 65219 65219 216
Width: 1254
GlyphClass: 2
Flags: W
AnchorPoint: "Anchor-3" 465 -510 basechar 0
AnchorPoint: "Anchor-2" 825 1095 basechar 0
LayerCount: 2
Fore
SplineSet
-59 203 m 1,0,-1
 240 203 l 1,1,-1
 240 205 l 1,2,-1
 272 203 l 1,3,4
 279 217 279 217 305 246 c 1,5,-1
 283 1346 l 1,6,-1
 397 1577 l 1,7,8
 408 1559 408 1559 449 1458 c 0,9,10
 483 1372 483 1372 483 1352 c 0,11,12
 483 1331 483 1331 449.5 1262.5 c 128,-1,13
 416 1194 416 1194 403.5 1094.5 c 128,-1,14
 391 995 391 995 393 699 c 128,-1,15
 395 403 395 403 385 324 c 1,16,17
 422 356 422 356 469 395 c 0,18,19
 647 543 647 543 755.5 578.5 c 128,-1,20
 864 614 864 614 942 614 c 0,21,22
 1051 614 1051 614 1139 535.5 c 128,-1,23
 1227 457 1227 457 1227 344 c 0,24,25
 1227 166 1227 166 1087 88 c 0,26,27
 971 27 971 27 757 13.5 c 128,-1,28
 543 0 543 0 430 0 c 2,29,-1
 -59 0 l 1,30,-1
 -59 203 l 1,0,-1
698 203 m 2,31,32
 918 203 918 203 1157 276 c 1,33,34
 1069 444 1069 444 976 469 c 128,-1,35
 883 494 883 494 798 472.5 c 128,-1,36
 713 451 713 451 576.5 361.5 c 128,-1,37
 440 272 440 272 383 203 c 1,38,-1
 698 203 l 2,31,32
EndSplineSet
EndChar

StartChar: afii62797
Encoding: 65220 65220 217
Width: 1378
GlyphClass: 2
Flags: W
AnchorPoint: "Anchor-3" 540 -525 basechar 0
AnchorPoint: "Anchor-2" 855 1170 basechar 0
LayerCount: 2
Fore
SplineSet
-61 203 m 1,0,-1
 238 203 l 1,1,-1
 238 205 l 1,2,-1
 270 203 l 1,3,4
 276 217 276 217 303 246 c 1,5,-1
 279 1346 l 1,6,-1
 395 1577 l 1,7,8
 403 1559 403 1559 444 1458 c 0,9,10
 481 1372 481 1372 481 1352 c 0,11,12
 481 1331 481 1331 447.5 1262.5 c 128,-1,13
 414 1194 414 1194 401.5 1094.5 c 128,-1,14
 389 995 389 995 390 699 c 128,-1,15
 391 403 391 403 383 324 c 1,16,17
 418 356 418 356 467 395 c 0,18,19
 645 543 645 543 752.5 578.5 c 128,-1,20
 860 614 860 614 938 614 c 0,21,22
 1049 614 1049 614 1136 535.5 c 128,-1,23
 1223 457 1223 457 1223 344 c 0,24,25
 1223 262 1223 262 1194 203 c 1,26,-1
 1401 203 l 1,27,-1
 1401 0 l 1,28,-1
 -61 0 l 1,29,-1
 -61 203 l 1,0,-1
694 203 m 2,30,31
 915 203 915 203 1155 276 c 1,32,33
 1067 444 1067 444 973 469 c 128,-1,34
 879 494 879 494 795 472.5 c 128,-1,35
 711 451 711 451 573.5 361.5 c 128,-1,36
 436 272 436 272 381 203 c 1,37,-1
 694 203 l 2,30,31
EndSplineSet
EndChar

StartChar: afii57433
Encoding: 1593 1593 222
Width: 1271
GlyphClass: 2
Flags: W
AnchorPoint: "Anchor-3" 570 -1440 basechar 0
AnchorPoint: "Anchor-2" 645 1185 basechar 0
LayerCount: 2
Fore
SplineSet
180 -375 m 1,0,1
 180 -152 180 -152 309 39 c 0,2,3
 421 205 421 205 591 336 c 1,4,5
 520 348 520 348 464 401 c 0,6,7
 391 469 391 469 391 567 c 0,8,9
 391 680 391 680 470.5 770 c 128,-1,10
 550 860 550 860 665 860 c 0,11,12
 817 860 817 860 901 741 c 1,13,14
 800 758 800 758 770 758 c 0,15,16
 628 758 628 758 497 680 c 1,17,18
 526 586 526 586 607 527.5 c 128,-1,19
 688 469 688 469 790 469 c 0,20,21
 808 469 808 469 1140 614 c 1,22,-1
 1085 418 l 1,23,24
 690 315 690 315 496.5 134 c 128,-1,25
 303 -47 303 -47 282 -291 c 1,26,27
 292 -535 292 -535 520.5 -679 c 128,-1,28
 749 -823 749 -823 1503 -748 c 1,29,30
 1423 -856 1423 -856 1185.5 -922.5 c 128,-1,31
 948 -989 948 -989 768 -983 c 0,32,33
 411 -965 411 -965 286 -769 c 128,-1,34
 161 -573 161 -573 180 -375 c 1,0,1
EndSplineSet
Substitution2: "'medi' Medial Forms in Arabic lookup 3 subtable" afii62803
Substitution2: "'fina' Terminal Forms in Arabic lookup 2 subtable" afii62804
Substitution2: "'init' Initial Forms in Arabic lookup 1 subtable" afii62802
EndChar

StartChar: afii62804
Encoding: 65226 65226 223
Width: 1175
GlyphClass: 2
Flags: W
AnchorPoint: "Anchor-3" 660 -1560 basechar 0
AnchorPoint: "Anchor-2" 630 915 basechar 0
LayerCount: 2
Fore
SplineSet
167 -561 m 0,0,1
 167 -193 167 -193 609 229 c 1,2,3
 603 279 603 279 550 311 c 1,4,5
 505 344 505 344 456 344 c 1,6,-1
 411 336 l 1,7,-1
 439 494 l 1,8,9
 538 573 538 573 730 573 c 0,10,11
 919 573 919 573 919 444 c 0,12,13
 919 330 919 330 826 262 c 1,14,15
 951 197 951 197 1189 203 c 1,16,-1
 1189 0 l 1,17,18
 1058 0 1058 0 910.5 52 c 128,-1,19
 763 104 763 104 681 186 c 1,20,21
 568 127 568 127 420.5 -89 c 128,-1,22
 273 -305 273 -305 273 -463 c 0,23,24
 273 -705 273 -705 525 -786 c 1,25,26
 671 -840 671 -840 978 -840 c 0,27,28
 1261 -840 1261 -840 1328 -823 c 1,29,30
 1056 -1004 1056 -1004 708 -1004 c 0,31,32
 167 -1004 167 -1004 167 -561 c 0,0,1
EndSplineSet
EndChar

StartChar: afii62802
Encoding: 65227 65227 224
Width: 936
GlyphClass: 2
Flags: W
AnchorPoint: "Anchor-3" 405 -420 basechar 0
AnchorPoint: "Anchor-2" 390 1050 basechar 0
LayerCount: 2
Fore
SplineSet
-14 203 m 1,0,1
 231 203 231 203 305 240 c 1,2,3
 199 311 199 311 199 449 c 0,4,5
 199 592 199 592 298 678 c 128,-1,6
 397 764 397 764 543 764 c 0,7,8
 688 764 688 764 778 592 c 1,9,10
 666 647 666 647 523.5 638 c 128,-1,11
 381 629 381 629 283 516 c 1,12,13
 315 449 315 449 404.5 370 c 128,-1,14
 494 291 494 291 561 291 c 0,15,16
 612 291 612 291 748 344 c 2,17,-1
 936 418 l 1,18,-1
 866 305 l 1,19,20
 324 39 324 39 -14 0 c 1,21,-1
 -14 203 l 1,0,1
EndSplineSet
EndChar

StartChar: afii62803
Encoding: 65228 65228 225
Width: 915
GlyphClass: 2
Flags: W
AnchorPoint: "Anchor-3" 375 -525 basechar 0
AnchorPoint: "Anchor-2" 450 990 basechar 0
LayerCount: 2
Fore
SplineSet
-14 203 m 1,0,1
 145 203 145 203 172 207 c 0,2,3
 225 211 225 211 354 246 c 1,4,5
 358 283 358 283 358 291 c 0,6,7
 358 383 358 383 262 383 c 0,8,9
 225 383 225 383 186 358 c 1,10,-1
 223 520 l 1,11,12
 389 606 389 606 549 606 c 0,13,14
 614 606 614 606 666 569 c 1,15,16
 715 522 715 522 715 467 c 0,17,18
 715 416 715 416 669 356.5 c 128,-1,19
 623 297 623 297 575 276 c 1,20,21
 678 184 678 184 936 203 c 1,22,-1
 936 0 l 1,23,24
 641 0 641 0 496 186 c 1,25,26
 311 14 311 14 -14 0 c 1,27,-1
 -14 203 l 1,0,1
EndSplineSet
EndChar

StartChar: afii57443
Encoding: 1603 1603 238
Width: 1586
GlyphClass: 2
Flags: W
AnchorPoint: "Anchor-3" 720 -585 basechar 0
AnchorPoint: "Anchor-2" 735 1260 basechar 0
LayerCount: 2
Fore
SplineSet
158 211 m 0,0,1
 158 252 158 252 186 332 c 1,2,3
 186 223 186 223 395 199 c 1,4,5
 635 166 635 166 774 166 c 0,6,7
 1075 166 1075 166 1413 219 c 1,8,-1
 1364 1098 l 1,9,10
 1300 1247 1300 1247 1300 1321 c 0,11,12
 1300 1364 1300 1364 1452 1464 c 1,13,14
 1458 1380 1458 1380 1475.5 1347.5 c 128,-1,15
 1493 1315 1493 1315 1559 1268 c 1,16,17
 1538 1249 1538 1249 1518.5 1209 c 128,-1,18
 1499 1169 1499 1169 1499 1147 c 2,19,-1
 1518 223 l 1,20,21
 1511 145 1511 145 1304.5 75.5 c 128,-1,22
 1098 6 1098 6 866.5 -6 c 128,-1,23
 635 -18 635 -18 582 -14 c 1,24,25
 158 -14 158 -14 158 211 c 0,0,1
655 918 m 0,26,27
 655 977 655 977 714.5 1022 c 128,-1,28
 774 1067 774 1067 850 1047.5 c 128,-1,29
 926 1028 926 1028 952 983 c 1,30,31
 780 1001 780 1001 762.5 943 c 128,-1,32
 745 885 745 885 808.5 868.5 c 128,-1,33
 872 852 872 852 1069 852 c 1,34,35
 758 741 758 741 666 635 c 1,36,37
 692 725 692 725 772 786 c 1,38,39
 721 793 721 793 688 829.5 c 128,-1,40
 655 866 655 866 655 918 c 0,26,27
EndSplineSet
Substitution2: "'medi' Medial Forms in Arabic lookup 3 subtable" afii52306
Substitution2: "'fina' Terminal Forms in Arabic lookup 2 subtable" afii62816
Substitution2: "'init' Initial Forms in Arabic lookup 1 subtable" afii52305
EndChar

StartChar: afii62816
Encoding: 65242 65242 239
Width: 1545
GlyphClass: 2
Flags: W
AnchorPoint: "Anchor-3" 825 -555 basechar 0
AnchorPoint: "Anchor-2" 780 1275 basechar 0
LayerCount: 2
Fore
SplineSet
146 158 m 0,0,1
 146 199 146 199 177 276 c 1,2,3
 191 158 191 158 476 158 c 0,4,5
 589 158 589 158 767 166 c 0,6,7
 957 176 957 176 1050 176 c 1,8,9
 1263 186 1263 186 1308 250 c 1,10,-1
 1308 1126 l 2,11,12
 1308 1233 1308 1233 1269 1325 c 1,13,14
 1269 1393 1269 1393 1342 1470 c 1,15,16
 1373 1417 1373 1417 1389.5 1397.5 c 128,-1,17
 1406 1378 1406 1378 1453 1335 c 1,18,-1
 1398 1190 l 1,19,-1
 1398 303 l 2,20,21
 1398 262 1398 262 1406 246 c 1,22,23
 1426 229 1426 229 1451 217 c 0,24,25
 1494 199 1494 199 1533 199 c 0,26,27
 1547 199 1547 199 1564 203 c 1,28,-1
 1564 0 l 1,29,30
 1500 -2 1500 -2 1433.5 43 c 128,-1,31
 1367 88 1367 88 1359 152 c 1,32,33
 1170 -14 1170 -14 431 -14 c 0,34,35
 146 -14 146 -14 146 158 c 0,0,1
574 866 m 0,36,37
 574 926 574 926 633.5 971 c 128,-1,38
 693 1016 693 1016 769 996.5 c 128,-1,39
 845 977 845 977 871 932 c 1,40,41
 699 950 699 950 681 892 c 128,-1,42
 663 834 663 834 727.5 817.5 c 128,-1,43
 792 801 792 801 986 801 c 1,44,45
 675 692 675 692 583 586 c 1,46,47
 609 674 609 674 689 737 c 1,48,49
 640 741 640 741 607 779 c 128,-1,50
 574 817 574 817 574 866 c 0,36,37
EndSplineSet
EndChar

StartChar: afii57444
Encoding: 1604 1604 242
Width: 1272
GlyphClass: 2
Flags: W
AnchorPoint: "Anchor-3" 600 -1140 basechar 0
AnchorPoint: "Anchor-2" 810 1545 basechar 0
LayerCount: 2
Fore
SplineSet
98 -125 m 0,0,1
 98 113 98 113 289 258 c 1,2,3
 199 117 199 117 199 -18 c 0,4,5
 199 -211 199 -211 325 -316.5 c 128,-1,6
 451 -422 451 -422 628 -415 c 128,-1,7
 805 -408 805 -408 938 -316.5 c 128,-1,8
 1071 -225 1071 -225 1071 -94 c 2,9,-1
 1038 1110 l 2,10,11
 1038 1137 1038 1137 1007.5 1217.5 c 128,-1,12
 977 1298 977 1298 977 1335 c 0,13,14
 977 1378 977 1378 1128 1473 c 1,15,16
 1128 1348 1128 1348 1233 1276 c 1,17,18
 1196 1239 1196 1239 1174 1116 c 1,19,-1
 1188 -45 l 2,20,21
 1188 -299 1188 -299 993.5 -466 c 128,-1,22
 799 -633 799 -633 587 -617.5 c 128,-1,23
 375 -602 375 -602 236.5 -476 c 128,-1,24
 98 -350 98 -350 98 -125 c 0,0,1
EndSplineSet
Substitution2: "'medi' Medial Forms in Arabic lookup 3 subtable" afii62818
Substitution2: "'fina' Terminal Forms in Arabic lookup 2 subtable" afii62819
Substitution2: "'init' Initial Forms in Arabic lookup 1 subtable" afii62817
EndChar

StartChar: afii62817
Encoding: 65247 65247 243
Width: 436
GlyphClass: 2
Flags: W
AnchorPoint: "Anchor-3" 225 -480 basechar 0
AnchorPoint: "Anchor-2" 300 1575 basechar 0
LayerCount: 2
Fore
SplineSet
-25 203 m 1,0,1
 66 197 66 197 174.5 218.5 c 128,-1,2
 283 240 283 240 283 305 c 2,3,-1
 283 1272 l 1,4,-1
 365 1470 l 1,5,6
 436 1368 436 1368 436 1276 c 0,7,8
 436 1235 436 1235 419.5 1159 c 128,-1,9
 403 1083 403 1083 403 1044 c 2,10,-1
 403 283 l 2,11,12
 403 143 403 143 272 61 c 1,13,14
 166 0 166 0 12 0 c 2,15,-1
 -25 0 l 1,16,-1
 -25 203 l 1,0,1
EndSplineSet
EndChar

StartChar: afii62818
Encoding: 65248 65248 244
Width: 516
GlyphClass: 2
Flags: W
AnchorPoint: "Anchor-3" 240 -525 basechar 0
AnchorPoint: "Anchor-2" 240 1545 basechar 0
LayerCount: 2
Fore
SplineSet
-25 203 m 1,0,1
 78 203 78 203 125 225 c 0,2,3
 193 256 193 256 193 350 c 2,4,-1
 193 1282 l 2,5,6
 193 1339 193 1339 311 1470 c 1,7,-1
 311 348 l 2,8,9
 311 276 311 276 372.5 239.5 c 128,-1,10
 434 203 434 203 514 203 c 2,11,-1
 541 203 l 1,12,-1
 541 0 l 1,13,14
 424 0 424 0 353.5 40 c 128,-1,15
 283 80 283 80 246 193 c 1,16,17
 213 100 213 100 139.5 50 c 128,-1,18
 66 0 66 0 -25 0 c 1,19,-1
 -25 203 l 1,0,1
EndSplineSet
EndChar

StartChar: afii57445
Encoding: 1605 1605 245
Width: 924
GlyphClass: 2
Flags: W
AnchorPoint: "Anchor-3" 570 -570 basechar 0
AnchorPoint: "Anchor-2" 390 855 basechar 0
LayerCount: 2
Fore
SplineSet
66 -53 m 2,0,1
 66 -6 66 -6 129.5 69.5 c 128,-1,2
 193 145 193 145 250 180 c 0,3,4
 358 252 358 252 504 305 c 1,5,6
 375 401 375 401 297 401 c 0,7,8
 223 401 223 401 164 348 c 1,9,10
 164 434 164 434 237.5 500.5 c 128,-1,11
 311 567 311 567 397 567 c 0,12,13
 504 567 504 567 672 383 c 0,14,15
 778 262 778 262 879 219 c 1,16,-1
 731 88 l 1,17,18
 621 117 621 117 423 79 c 128,-1,19
 225 41 225 41 184 -80 c 1,20,-1
 170 -791 l 1,21,22
 80 -899 80 -899 80 -858 c 2,23,-1
 66 -53 l 2,0,1
EndSplineSet
Substitution2: "'medi' Medial Forms in Arabic lookup 3 subtable" afii62821
Substitution2: "'fina' Terminal Forms in Arabic lookup 2 subtable" afii62822
Substitution2: "'init' Initial Forms in Arabic lookup 1 subtable" afii62820
EndChar

StartChar: afii62822
Encoding: 65250 65250 246
Width: 1114
GlyphClass: 2
Flags: W
AnchorPoint: "Anchor-3" 720 -630 basechar 0
AnchorPoint: "Anchor-2" 510 840 basechar 0
LayerCount: 2
Fore
SplineSet
213 -53 m 2,0,1
 213 -6 213 -6 277.5 69.5 c 128,-1,2
 342 145 342 145 397 180 c 0,3,4
 508 252 508 252 653 305 c 1,5,6
 522 401 522 401 446 401 c 0,7,8
 371 401 371 401 311 348 c 1,9,10
 311 434 311 434 386 500.5 c 128,-1,11
 461 567 461 567 547 567 c 0,12,13
 653 567 653 567 819 385 c 128,-1,14
 985 203 985 203 1135 203 c 1,15,-1
 1135 0 l 1,16,17
 997 2 997 2 899 57.5 c 128,-1,18
 801 113 801 113 709.5 115 c 128,-1,19
 618 117 618 117 487 78 c 1,20,21
 338 2 338 2 332 -80 c 1,22,-1
 317 -791 l 1,23,24
 229 -899 229 -899 229 -858 c 2,25,-1
 213 -53 l 2,0,1
EndSplineSet
EndChar

StartChar: afii62820
Encoding: 65251 65251 247
Width: 764
GlyphClass: 2
Flags: W
AnchorPoint: "Anchor-3" 345 -450 basechar 0
AnchorPoint: "Anchor-2" 315 810 basechar 0
LayerCount: 2
Fore
SplineSet
-20 203 m 1,0,1
 145 223 145 223 252 322 c 0,2,3
 279 348 279 348 371 465 c 128,-1,4
 463 582 463 582 532 582 c 0,5,6
 635 582 635 582 687 491.5 c 128,-1,7
 739 401 739 401 739 291 c 0,8,9
 739 84 739 84 618 14 c 1,10,11
 389 66 389 66 266 229 c 1,12,13
 256 131 256 131 180 68.5 c 128,-1,14
 104 6 104 6 25 2 c 2,15,-1
 -20 0 l 1,16,-1
 -20 203 l 1,0,1
358 348 m 1,17,18
 477 219 477 219 633 154 c 1,19,20
 666 199 666 199 666 258 c 256,21,22
 666 317 666 317 630 378.5 c 128,-1,23
 594 440 594 440 522 467 c 1,24,25
 487 467 487 467 429 426 c 128,-1,26
 371 385 371 385 358 348 c 1,17,18
EndSplineSet
EndChar

StartChar: afii57446
Encoding: 1606 1606 248
Width: 1309
GlyphClass: 2
Flags: W
AnchorPoint: "Anchor-3" 690 -1020 basechar 0
AnchorPoint: "Anchor-2" 630 1080 basechar 0
LayerCount: 2
Fore
SplineSet
86 -12 m 0,0,1
 86 125 86 125 131 225 c 0,2,3
 154 279 154 279 262 430 c 1,4,5
 172 258 172 258 172 117 c 0,6,7
 172 -53 172 -53 291 -161.5 c 128,-1,8
 410 -270 410 -270 582 -270 c 0,9,10
 819 -270 819 -270 958 -170 c 1,11,12
 1202 -33 1202 -33 1202 166 c 0,13,14
 1202 383 1202 383 1083 504 c 1,15,-1
 1141 668 l 1,16,17
 1182 594 1182 594 1208 559 c 1,18,19
 1274 424 1274 424 1274 199 c 0,20,21
 1274 -305 1274 -305 807 -451 c 0,22,23
 659 -494 659 -494 586 -494 c 0,24,25
 375 -483 375 -483 230.5 -343 c 128,-1,26
 86 -203 86 -203 86 -12 c 0,0,1
639 883 m 1,27,-1
 797 766 l 1,28,-1
 668 629 l 1,29,-1
 526 731 l 1,30,-1
 639 883 l 1,27,-1
EndSplineSet
Substitution2: "'medi' Medial Forms in Arabic lookup 3 subtable" afii62824
Substitution2: "'fina' Terminal Forms in Arabic lookup 2 subtable" afii62825
Substitution2: "'init' Initial Forms in Arabic lookup 1 subtable" afii62823
EndChar

StartChar: afii62825
Encoding: 65254 65254 249
Width: 1536
GlyphClass: 2
Flags: W
AnchorPoint: "Anchor-3" 720 -1260 basechar 0
AnchorPoint: "Anchor-2" 690 825 basechar 0
LayerCount: 2
Fore
SplineSet
172 -342 m 0,0,1
 172 -80 172 -80 332 152 c 1,2,3
 252 -33 252 -33 252 -172 c 0,4,5
 252 -336 252 -336 377 -441.5 c 128,-1,6
 502 -547 502 -547 674 -537 c 1,7,8
 893 -537 893 -537 1100 -423 c 128,-1,9
 1307 -309 1307 -309 1307 -92 c 0,10,11
 1307 53 1307 53 1190 225 c 1,12,-1
 1245 389 l 1,13,14
 1245 354 1245 354 1286 305 c 0,15,16
 1335 240 1335 240 1380 219.5 c 128,-1,17
 1425 199 1425 199 1511 199 c 1,18,-1
 1552 203 l 1,19,-1
 1552 0 l 1,20,-1
 1364 0 l 1,21,22
 1368 -78 1368 -78 1368 -92 c 0,23,24
 1384 -387 1384 -387 1207 -569.5 c 128,-1,25
 1030 -752 1030 -752 662 -764 c 1,26,27
 475 -764 475 -764 326 -651 c 1,28,29
 172 -522 172 -522 172 -342 c 0,0,1
727 602 m 1,30,-1
 883 487 l 1,31,-1
 758 350 l 1,32,-1
 614 451 l 1,33,-1
 727 602 l 1,30,-1
EndSplineSet
EndChar

StartChar: afii62828
Encoding: 65258 65258 253
Width: 805
GlyphClass: 2
Flags: W
AnchorPoint: "Anchor-3" 420 -465 basechar 0
AnchorPoint: "Anchor-2" 375 1050 basechar 0
LayerCount: 2
Fore
SplineSet
117 428 m 0,0,1
 117 481 117 481 221.5 580.5 c 128,-1,2
 326 680 326 680 383 710.5 c 128,-1,3
 440 741 440 741 461 748 c 1,4,-1
 526 936 l 1,5,6
 522 864 522 864 532.5 713.5 c 128,-1,7
 543 563 543 563 602.5 383 c 128,-1,8
 662 203 662 203 819 203 c 1,9,-1
 819 0 l 1,10,11
 559 -6 559 -6 500 383 c 1,12,13
 455 303 455 303 338 303 c 0,14,15
 264 303 264 303 205 330 c 0,16,17
 117 365 117 365 117 428 c 0,0,1
231 508 m 1,18,19
 258 444 258 444 356 444 c 0,20,21
 410 444 410 444 494 467 c 1,22,-1
 463 674 l 2,23,24
 461 678 461 678 435.5 668.5 c 128,-1,25
 410 659 410 659 320.5 603 c 128,-1,26
 231 547 231 547 231 508 c 1,18,19
EndSplineSet
EndChar

StartChar: afii57448
Encoding: 1608 1608 254
Width: 932
GlyphClass: 2
Flags: W
AnchorPoint: "Anchor-3" 405 -1200 basechar 0
AnchorPoint: "Anchor-2" 585 810 basechar 0
LayerCount: 2
Fore
SplineSet
-164 -606 m 1,0,1
 358 -549 358 -549 659 -295 c 1,2,3
 848 -125 848 -125 799 113 c 1,4,5
 774 72 774 72 711.5 37 c 128,-1,6
 649 2 649 2 600 2 c 0,7,8
 471 2 471 2 471 145 c 0,9,10
 471 250 471 250 530 369 c 0,11,12
 596 508 596 508 680 508 c 0,13,14
 713 508 713 508 762 462 c 128,-1,15
 811 416 811 416 851 274.5 c 128,-1,16
 891 133 891 133 891 8 c 0,17,18
 891 -299 891 -299 635 -500 c 0,19,20
 530 -582 530 -582 442 -602 c 0,21,22
 317 -629 317 -629 184 -629 c 0,23,24
 35 -629 35 -629 -164 -606 c 1,0,1
567 211 m 1,25,26
 604 166 604 166 643 170 c 0,27,28
 670 170 670 170 719 190.5 c 128,-1,29
 768 211 768 211 768 238 c 0,30,31
 756 324 756 324 668 381 c 1,32,33
 575 297 575 297 567 211 c 1,25,26
EndSplineSet
Substitution2: "'fina' Terminal Forms in Arabic lookup 2 subtable" afii62829
PairPos2: "'kern' Horizontal Kerning in Arabic lookup 0 subtable" afii62831 dx=0 dy=0 dh=0 dv=0 dx=0 dy=0 dh=100 dv=0
PairPos2: "'kern' Horizontal Kerning in Arabic lookup 0 subtable" afii62761 dx=0 dy=0 dh=0 dv=0 dx=0 dy=0 dh=100 dv=0
PairPos2: "'kern' Horizontal Kerning in Arabic lookup 0 subtable" afii57413 dx=0 dy=0 dh=0 dv=0 dx=0 dy=0 dh=130 dv=0
PairPos2: "'kern' Horizontal Kerning in Arabic lookup 0 subtable" afii62956 dx=0 dy=0 dh=0 dv=0 dx=0 dy=0 dh=100 dv=0
EndChar

StartChar: afii62829
Encoding: 65262 65262 255
Width: 1013
GlyphClass: 2
Flags: W
AnchorPoint: "Anchor-3" 345 -1185 basechar 0
AnchorPoint: "Anchor-2" 615 690 basechar 0
LayerCount: 2
Fore
SplineSet
-136 -606 m 1,0,1
 81 -594 81 -594 306 -508 c 0,2,3
 478 -446 478 -446 638 -328 c 1,4,5
 835 -166 835 -166 835 -33 c 2,6,-1
 835 0 l 1,7,8
 800 -2 800 -2 740 -2 c 0,9,10
 681 -2 681 -2 592 39 c 128,-1,11
 503 80 503 80 503 176 c 0,12,13
 503 262 503 262 558 371 c 1,14,15
 628 494 628 494 701 494 c 1,16,17
 796 473 796 473 851 369.5 c 128,-1,18
 906 266 906 266 906 203 c 1,19,-1
 1033 203 l 1,20,-1
 1033 0 l 1,21,-1
 914 0 l 1,22,23
 908 -272 908 -272 722 -451 c 0,24,25
 538 -629 538 -629 265 -629 c 0,26,27
 1 -629 1 -629 -136 -606 c 1,0,1
597 225 m 1,28,29
 638 199 638 199 710 199 c 0,30,31
 828 199 828 199 828 205 c 0,32,33
 806 291 806 291 693 369 c 1,34,35
 669 369 669 369 632 315.5 c 128,-1,36
 595 262 595 262 589 240 c 1,37,-1
 597 225 l 1,28,29
EndSplineSet
PairPos2: "'kern' Horizontal Kerning in Arabic lookup 0 subtable" afii62831 dx=0 dy=0 dh=0 dv=0 dx=0 dy=0 dh=100 dv=0
PairPos2: "'kern' Horizontal Kerning in Arabic lookup 0 subtable" afii57448 dx=0 dy=0 dh=0 dv=0 dx=0 dy=0 dh=-80 dv=0
PairPos2: "'kern' Horizontal Kerning in Arabic lookup 0 subtable" afii57434 dx=0 dy=0 dh=0 dv=0 dx=0 dy=0 dh=-100 dv=0
PairPos2: "'kern' Horizontal Kerning in Arabic lookup 0 subtable" afii57433 dx=0 dy=0 dh=0 dv=0 dx=0 dy=0 dh=-100 dv=0
PairPos2: "'kern' Horizontal Kerning in Arabic lookup 0 subtable" afii57426 dx=0 dy=0 dh=0 dv=0 dx=0 dy=0 dh=-80 dv=0
PairPos2: "'kern' Horizontal Kerning in Arabic lookup 0 subtable" afii57425 dx=0 dy=0 dh=0 dv=0 dx=0 dy=0 dh=-80 dv=0
PairPos2: "'kern' Horizontal Kerning in Arabic lookup 0 subtable" afii62761 dx=0 dy=0 dh=0 dv=0 dx=0 dy=0 dh=100 dv=0
PairPos2: "'kern' Horizontal Kerning in Arabic lookup 0 subtable" afii57413 dx=0 dy=0 dh=0 dv=0 dx=0 dy=0 dh=120 dv=0
PairPos2: "'kern' Horizontal Kerning in Arabic lookup 0 subtable" afii62956 dx=0 dy=0 dh=0 dv=0 dx=0 dy=0 dh=100 dv=0
EndChar

StartChar: afii62840
Encoding: 65275 65275 268
Width: 1015
GlyphClass: 3
Flags: W
AnchorPoint: "Anchor-1" 930 -495 baselig 0
AnchorPoint: "Anchor-0" 930 1635 baselig 0
AnchorPoint: "Anchor-1" 345 -480 baselig 1
AnchorPoint: "Anchor-0" 225 1560 baselig 1
LayerCount: 2
Fore
SplineSet
138 1419 m 1,0,1
 544 979 544 979 790 504 c 1,2,3
 812 537 812 537 837 596 c 1,4,-1
 831 1321 l 1,5,-1
 824 1348 l 1,6,-1
 917 1513 l 1,7,8
 980 1434 980 1434 980 1327 c 0,9,10
 980 1300 980 1300 950.5 1253 c 128,-1,11
 921 1206 921 1206 921 1182 c 2,12,-1
 923 600 l 2,13,14
 923 561 923 561 893 498.5 c 128,-1,15
 863 436 863 436 849 424 c 1,16,17
 935 270 935 270 941 125 c 0,18,19
 941 53 941 53 927 25 c 1,20,-1
 386 -14 l 1,21,-1
 439 172 l 1,22,23
 564 250 564 250 730 442 c 1,24,25
 659 582 659 582 517.5 800 c 128,-1,26
 376 1018 376 1018 267 1128 c 1,27,28
 255 1126 255 1126 237 1126 c 0,29,30
 124 1126 124 1126 124 1227 c 1,31,-1
 138 1419 l 1,0,1
845 172 m 1,32,33
 808 299 808 299 763 344 c 1,34,35
 738 311 738 311 662.5 244.5 c 128,-1,36
 587 178 587 178 548 152 c 1,37,-1
 845 172 l 1,32,33
EndSplineSet
Ligature2: "'rlig' Required Ligatures in Arabic lookup 6 subtable" afii62817 afii62760
Substitution2: "'fina' Terminal Forms in Arabic lookup 2 subtable" afii62841
PairPos2: "'kern' Horizontal Kerning in Arabic lookup 0 subtable" afii62831 dx=0 dy=0 dh=0 dv=0 dx=0 dy=0 dh=-100 dv=0
PairPos2: "'kern' Horizontal Kerning in Arabic lookup 0 subtable" afii57450 dx=0 dy=0 dh=0 dv=0 dx=0 dy=0 dh=-100 dv=0
PairPos2: "'kern' Horizontal Kerning in Arabic lookup 0 subtable" afii57449 dx=0 dy=0 dh=0 dv=0 dx=0 dy=0 dh=-100 dv=0
PairPos2: "'kern' Horizontal Kerning in Arabic lookup 0 subtable" afii57448 dx=0 dy=0 dh=0 dv=0 dx=0 dy=0 dh=-100 dv=0
PairPos2: "'kern' Horizontal Kerning in Arabic lookup 0 subtable" afii57446 dx=0 dy=0 dh=0 dv=0 dx=0 dy=0 dh=-100 dv=0
PairPos2: "'kern' Horizontal Kerning in Arabic lookup 0 subtable" afii57445 dx=0 dy=0 dh=0 dv=0 dx=0 dy=0 dh=-100 dv=0
PairPos2: "'kern' Horizontal Kerning in Arabic lookup 0 subtable" afii57410 dx=0 dy=0 dh=0 dv=0 dx=0 dy=0 dh=100 dv=0
PairPos2: "'kern' Horizontal Kerning in Arabic lookup 0 subtable" afii62811 dx=0 dy=0 dh=0 dv=0 dx=0 dy=0 dh=-100 dv=0
PairPos2: "'kern' Horizontal Kerning in Arabic lookup 0 subtable" afii57442 dx=0 dy=0 dh=0 dv=0 dx=0 dy=0 dh=-100 dv=0
PairPos2: "'kern' Horizontal Kerning in Arabic lookup 0 subtable" afii62808 dx=0 dy=0 dh=0 dv=0 dx=0 dy=0 dh=-100 dv=0
PairPos2: "'kern' Horizontal Kerning in Arabic lookup 0 subtable" afii57441 dx=0 dy=0 dh=0 dv=0 dx=0 dy=0 dh=-100 dv=0
PairPos2: "'kern' Horizontal Kerning in Arabic lookup 0 subtable" afii62805 dx=0 dy=0 dh=0 dv=0 dx=0 dy=0 dh=-100 dv=0
PairPos2: "'kern' Horizontal Kerning in Arabic lookup 0 subtable" afii57434 dx=0 dy=0 dh=0 dv=0 dx=0 dy=0 dh=-200 dv=0
PairPos2: "'kern' Horizontal Kerning in Arabic lookup 0 subtable" afii62802 dx=0 dy=0 dh=0 dv=0 dx=0 dy=0 dh=-100 dv=0
PairPos2: "'kern' Horizontal Kerning in Arabic lookup 0 subtable" afii57433 dx=0 dy=0 dh=0 dv=0 dx=0 dy=0 dh=-200 dv=0
PairPos2: "'kern' Horizontal Kerning in Arabic lookup 0 subtable" afii62799 dx=0 dy=0 dh=0 dv=0 dx=0 dy=0 dh=-100 dv=0
PairPos2: "'kern' Horizontal Kerning in Arabic lookup 0 subtable" afii57432 dx=0 dy=0 dh=0 dv=0 dx=0 dy=0 dh=-100 dv=0
PairPos2: "'kern' Horizontal Kerning in Arabic lookup 0 subtable" afii62796 dx=0 dy=0 dh=0 dv=0 dx=0 dy=0 dh=-100 dv=0
PairPos2: "'kern' Horizontal Kerning in Arabic lookup 0 subtable" afii57431 dx=0 dy=0 dh=0 dv=0 dx=0 dy=0 dh=-100 dv=0
PairPos2: "'kern' Horizontal Kerning in Arabic lookup 0 subtable" afii62793 dx=0 dy=0 dh=0 dv=0 dx=0 dy=0 dh=-100 dv=0
PairPos2: "'kern' Horizontal Kerning in Arabic lookup 0 subtable" afii57430 dx=0 dy=0 dh=0 dv=0 dx=0 dy=0 dh=-100 dv=0
PairPos2: "'kern' Horizontal Kerning in Arabic lookup 0 subtable" afii62790 dx=0 dy=0 dh=0 dv=0 dx=0 dy=0 dh=-100 dv=0
PairPos2: "'kern' Horizontal Kerning in Arabic lookup 0 subtable" afii57429 dx=0 dy=0 dh=0 dv=0 dx=0 dy=0 dh=-100 dv=0
PairPos2: "'kern' Horizontal Kerning in Arabic lookup 0 subtable" afii62787 dx=0 dy=0 dh=0 dv=0 dx=0 dy=0 dh=-100 dv=0
PairPos2: "'kern' Horizontal Kerning in Arabic lookup 0 subtable" afii57428 dx=0 dy=0 dh=0 dv=0 dx=0 dy=0 dh=-100 dv=0
PairPos2: "'kern' Horizontal Kerning in Arabic lookup 0 subtable" afii62784 dx=0 dy=0 dh=0 dv=0 dx=0 dy=0 dh=-100 dv=0
PairPos2: "'kern' Horizontal Kerning in Arabic lookup 0 subtable" afii57427 dx=0 dy=0 dh=0 dv=0 dx=0 dy=0 dh=-100 dv=0
PairPos2: "'kern' Horizontal Kerning in Arabic lookup 0 subtable" afii57426 dx=0 dy=0 dh=0 dv=0 dx=0 dy=0 dh=-100 dv=0
PairPos2: "'kern' Horizontal Kerning in Arabic lookup 0 subtable" afii57425 dx=0 dy=0 dh=0 dv=0 dx=0 dy=0 dh=-100 dv=0
PairPos2: "'kern' Horizontal Kerning in Arabic lookup 0 subtable" afii57424 dx=0 dy=0 dh=0 dv=0 dx=0 dy=0 dh=-100 dv=0
PairPos2: "'kern' Horizontal Kerning in Arabic lookup 0 subtable" afii57423 dx=0 dy=0 dh=0 dv=0 dx=0 dy=0 dh=-100 dv=0
PairPos2: "'kern' Horizontal Kerning in Arabic lookup 0 subtable" afii62777 dx=0 dy=0 dh=0 dv=0 dx=0 dy=0 dh=-100 dv=0
PairPos2: "'kern' Horizontal Kerning in Arabic lookup 0 subtable" afii57422 dx=0 dy=0 dh=0 dv=0 dx=0 dy=0 dh=-100 dv=0
PairPos2: "'kern' Horizontal Kerning in Arabic lookup 0 subtable" afii62774 dx=0 dy=0 dh=0 dv=0 dx=0 dy=0 dh=-100 dv=0
PairPos2: "'kern' Horizontal Kerning in Arabic lookup 0 subtable" afii57421 dx=0 dy=0 dh=0 dv=0 dx=0 dy=0 dh=-100 dv=0
PairPos2: "'kern' Horizontal Kerning in Arabic lookup 0 subtable" afii62771 dx=0 dy=0 dh=0 dv=0 dx=0 dy=0 dh=-100 dv=0
PairPos2: "'kern' Horizontal Kerning in Arabic lookup 0 subtable" afii57420 dx=0 dy=0 dh=0 dv=0 dx=0 dy=0 dh=-100 dv=0
PairPos2: "'kern' Horizontal Kerning in Arabic lookup 0 subtable" afii57419 dx=0 dy=0 dh=0 dv=0 dx=0 dy=0 dh=-100 dv=0
PairPos2: "'kern' Horizontal Kerning in Arabic lookup 0 subtable" afii57418 dx=0 dy=0 dh=0 dv=0 dx=0 dy=0 dh=-100 dv=0
PairPos2: "'kern' Horizontal Kerning in Arabic lookup 0 subtable" afii62761 dx=0 dy=0 dh=0 dv=0 dx=0 dy=0 dh=-100 dv=0
PairPos2: "'kern' Horizontal Kerning in Arabic lookup 0 subtable" afii57416 dx=0 dy=0 dh=0 dv=0 dx=0 dy=0 dh=-100 dv=0
PairPos2: "'kern' Horizontal Kerning in Arabic lookup 0 subtable" afii57414 dx=0 dy=0 dh=0 dv=0 dx=0 dy=0 dh=-100 dv=0
PairPos2: "'kern' Horizontal Kerning in Arabic lookup 0 subtable" afii52399 dx=0 dy=0 dh=0 dv=0 dx=0 dy=0 dh=-200 dv=0
PairPos2: "'kern' Horizontal Kerning in Arabic lookup 0 subtable" afii57555 dx=0 dy=0 dh=0 dv=0 dx=0 dy=0 dh=-100 dv=0
PairPos2: "'kern' Horizontal Kerning in Arabic lookup 0 subtable" afii62965 dx=0 dy=0 dh=0 dv=0 dx=0 dy=0 dh=100 dv=0
PairPos2: "'kern' Horizontal Kerning in Arabic lookup 0 subtable" afii57509 dx=0 dy=0 dh=0 dv=0 dx=0 dy=0 dh=100 dv=0
PairPos2: "'kern' Horizontal Kerning in Arabic lookup 0 subtable" afii52305 dx=0 dy=0 dh=0 dv=0 dx=0 dy=0 dh=100 dv=0
PairPos2: "'kern' Horizontal Kerning in Arabic lookup 0 subtable" afii57567 dx=0 dy=0 dh=0 dv=0 dx=0 dy=0 dh=100 dv=0
PairPos2: "'kern' Horizontal Kerning in Arabic lookup 0 subtable" afii62959 dx=0 dy=0 dh=0 dv=0 dx=0 dy=0 dh=-100 dv=0
PairPos2: "'kern' Horizontal Kerning in Arabic lookup 0 subtable" afii57507 dx=0 dy=0 dh=0 dv=0 dx=0 dy=0 dh=-100 dv=0
PairPos2: "'kern' Horizontal Kerning in Arabic lookup 0 subtable" afii57505 dx=0 dy=0 dh=0 dv=0 dx=0 dy=0 dh=-100 dv=0
PairPos2: "'kern' Horizontal Kerning in Arabic lookup 0 subtable" afii62956 dx=0 dy=0 dh=0 dv=0 dx=0 dy=0 dh=-100 dv=0
PairPos2: "'kern' Horizontal Kerning in Arabic lookup 0 subtable" afii57506 dx=0 dy=0 dh=0 dv=0 dx=0 dy=0 dh=-100 dv=0
EndChar

StartChar: afii62841
Encoding: 65276 65276 269
Width: 1249
GlyphClass: 3
Flags: W
AnchorPoint: "Anchor-1" 930 -465 baselig 0
AnchorPoint: "Anchor-0" 945 1680 baselig 0
AnchorPoint: "Anchor-1" 315 -480 baselig 1
AnchorPoint: "Anchor-0" 285 1590 baselig 1
LayerCount: 2
Fore
SplineSet
35 0 m 1,0,1
 344 147 344 147 482.5 244.5 c 128,-1,2
 621 342 621 342 739 508 c 1,3,4
 633 846 633 846 326 1137 c 1,5,6
 225 1155 225 1155 186 1163 c 1,7,8
 176 1182 176 1182 172 1196 c 1,9,10
 172 1288 172 1288 250 1393 c 1,11,12
 705 948 705 948 786 582 c 1,13,14
 860 752 860 752 895 870.5 c 128,-1,15
 930 989 930 989 936 1143 c 1,16,-1
 936 1425 l 1,17,18
 969 1526 969 1526 1049 1597 c 1,19,-1
 1051 332 l 1,20,21
 1063 238 1063 238 1118.5 220.5 c 128,-1,22
 1174 203 1174 203 1272 203 c 1,23,-1
 1272 0 l 1,24,25
 1206 0 1206 0 1133.5 16.5 c 128,-1,26
 1061 33 1061 33 1001.5 113 c 128,-1,27
 942 193 942 193 956 614 c 1,28,29
 860 315 860 315 322 61 c 1,30,-1
 35 0 l 1,31,-1
 35 0 l 1,0,1
EndSplineSet
Ligature2: "'rlig' Required Ligatures in Arabic lookup 6 subtable" afii62818 afii62760
PairPos2: "'kern' Horizontal Kerning in Arabic lookup 0 subtable" afii57445 dx=0 dy=0 dh=0 dv=0 dx=0 dy=0 dh=-100 dv=0
PairPos2: "'kern' Horizontal Kerning in Arabic lookup 0 subtable" afii57434 dx=0 dy=0 dh=0 dv=0 dx=0 dy=0 dh=-100 dv=0
PairPos2: "'kern' Horizontal Kerning in Arabic lookup 0 subtable" afii57433 dx=0 dy=0 dh=0 dv=0 dx=0 dy=0 dh=-100 dv=0
PairPos2: "'kern' Horizontal Kerning in Arabic lookup 0 subtable" afii52399 dx=0 dy=0 dh=0 dv=0 dx=0 dy=0 dh=-100 dv=0
EndChar

StartChar: afii59759
Encoding: 3663 3663 276
Width: 1233
GlyphClass: 2
Flags: W
LayerCount: 2
Fore
SplineSet
616 983 m 0,0,1
 823 983 823 983 969.5 836.5 c 128,-1,2
 1116 690 1116 690 1116 483 c 0,3,4
 1116 277 1116 277 969.5 130.5 c 128,-1,5
 823 -16 823 -16 616 -16 c 0,6,7
 410 -16 410 -16 263.5 130.5 c 128,-1,8
 117 277 117 277 117 483 c 0,9,10
 117 690 117 690 263.5 836.5 c 128,-1,11
 410 983 410 983 616 983 c 0,0,1
616 147 m 0,12,13
 758 147 758 147 849 242 c 128,-1,14
 940 337 940 337 940 483 c 256,15,16
 940 629 940 629 849 724 c 128,-1,17
 758 819 758 819 616 819 c 0,18,19
 475 819 475 819 384 724 c 128,-1,20
 293 629 293 629 293 483 c 256,21,22
 293 337 293 337 384 242 c 128,-1,23
 475 147 475 147 616 147 c 0,12,13
616 598 m 0,24,25
 664 598 664 598 697.5 565 c 128,-1,26
 731 532 731 532 731 485 c 256,27,28
 731 438 731 438 697.5 404.5 c 128,-1,29
 664 371 664 371 616 371 c 0,30,31
 569 371 569 371 535.5 404.5 c 128,-1,32
 502 438 502 438 502 485 c 256,33,34
 502 532 502 532 535.5 565 c 128,-1,35
 569 598 569 598 616 598 c 0,24,25
EndSplineSet
EndChar

StartChar: afii59760
Encoding: 3664 3664 277
Width: 1233
GlyphClass: 2
Flags: W
LayerCount: 2
Fore
SplineSet
616 924 m 0,0,1
 834 924 834 924 975 794.5 c 128,-1,2
 1116 665 1116 665 1116 453 c 0,3,4
 1116 242 1116 242 975 113 c 128,-1,5
 834 -16 834 -16 616 -16 c 0,6,7
 399 -16 399 -16 258 113 c 128,-1,8
 117 242 117 242 117 453 c 0,9,10
 117 665 117 665 258 794.5 c 128,-1,11
 399 924 399 924 616 924 c 0,0,1
616 150 m 0,12,13
 765 150 765 150 852.5 231 c 128,-1,14
 940 312 940 312 940 453 c 256,15,16
 940 594 940 594 852 677 c 128,-1,17
 764 760 764 760 616 760 c 0,18,19
 469 760 469 760 381 677 c 128,-1,20
 293 594 293 594 293 453 c 0,21,22
 293 310 293 310 381.5 230 c 128,-1,23
 470 150 470 150 616 150 c 0,12,13
EndSplineSet
EndChar

StartChar: glyph279
Encoding: 65559 -1 279
Width: 0
GlyphClass: 2
Flags: W
LayerCount: 2
Fore
SplineSet
36 1831 m 1,0,-1
 36 863 l 1,1,-1
 -36 863 l 1,2,-1
 -36 1831 l 1,3,-1
 36 1831 l 1,0,-1
36 543 m 1,4,-1
 36 -423 l 1,5,-1
 -36 -423 l 1,6,-1
 -36 543 l 1,7,-1
 36 543 l 1,4,-1
EndSplineSet
EndChar

StartChar: glyph280
Encoding: 65560 -1 280
Width: 0
GlyphClass: 2
Flags: W
LayerCount: 2
Fore
SplineSet
-234 -423 m 1,0,-1
 -234 -352 l 1,1,-1
 -36 -352 l 1,2,-1
 -36 1760 l 1,3,-1
 -234 1760 l 1,4,-1
 -234 1831 l 1,5,-1
 234 1831 l 1,6,-1
 234 1760 l 1,7,-1
 36 1760 l 1,8,-1
 36 -352 l 1,9,-1
 234 -352 l 1,10,-1
 234 -423 l 1,11,-1
 -234 -423 l 1,0,-1
EndSplineSet
EndChar

StartChar: glyph281
Encoding: 65561 -1 281
Width: 0
GlyphClass: 2
Flags: W
LayerCount: 2
Fore
SplineSet
224 1646 m 1,0,-1
 36 1504 l 1,1,-1
 36 -423 l 1,2,-1
 -36 -423 l 1,3,-1
 -36 1831 l 1,4,-1
 224 1646 l 1,0,-1
EndSplineSet
EndChar

StartChar: glyph282
Encoding: 65562 -1 282
Width: 0
GlyphClass: 2
Flags: W
LayerCount: 2
Fore
SplineSet
36 1831 m 1,0,-1
 36 -423 l 1,1,-1
 -36 -423 l 1,2,-1
 -36 1504 l 1,3,-1
 -224 1646 l 1,4,-1
 36 1831 l 1,0,-1
EndSplineSet
EndChar

StartChar: glyph283
Encoding: 65563 -1 283
Width: 0
GlyphClass: 2
Flags: W
LayerCount: 2
Fore
SplineSet
36 1831 m 1,0,-1
 36 -352 l 1,1,-1
 234 -352 l 1,2,-1
 234 -423 l 1,3,-1
 -36 -423 l 1,4,-1
 -36 1831 l 1,5,-1
 36 1831 l 1,0,-1
EndSplineSet
EndChar

StartChar: glyph284
Encoding: 65564 -1 284
Width: 0
GlyphClass: 2
Flags: W
LayerCount: 2
Fore
SplineSet
224 1646 m 1,0,-1
 36 1504 l 1,1,-1
 36 -423 l 1,2,-1
 -36 -423 l 1,3,-1
 -36 1504 l 1,4,-1
 -224 1641 l 1,5,-1
 0 1831 l 1,6,-1
 224 1646 l 1,0,-1
EndSplineSet
EndChar

StartChar: uni0670
Encoding: 1648 1648 297
Width: 0
GlyphClass: 4
Flags: W
AnchorPoint: "Anchor-2" 0 0 mark 0
AnchorPoint: "Anchor-0" 0 0 mark 0
LayerCount: 2
Fore
SplineSet
-30 325 m 2,0,1
 -30 341 -30 341 49 402 c 1,2,-1
 49 67 l 1,3,4
 7 16 7 16 -30 0 c 1,5,-1
 -30 325 l 2,0,1
EndSplineSet
EndChar

StartChar: glyph298
Encoding: 65565 -1 298
Width: 586
GlyphClass: 2
Flags: W
LayerCount: 2
Fore
SplineSet
289 1412 m 2,0,1
 330 1443 330 1443 367 1450 c 128,-1,2
 404 1457 404 1457 432.5 1442.5 c 128,-1,3
 461 1428 461 1428 478 1394.5 c 128,-1,4
 495 1361 495 1361 495 1312 c 2,5,-1
 494 1205 l 1,6,-1
 69 1205 l 1,7,-1
 69 1282 l 1,8,-1
 141 1282 l 1,9,-1
 289 1412 l 2,0,1
247 1282 m 1,10,-1
 417 1282 l 1,11,-1
 417 1322 l 2,12,13
 415 1360 415 1360 391 1371 c 128,-1,14
 367 1382 367 1382 326 1353 c 1,15,-1
 247 1282 l 1,10,-1
EndSplineSet
EndChar

StartChar: glyph299
Encoding: 65566 -1 299
Width: 1413
GlyphClass: 2
Flags: W
LayerCount: 2
Fore
SplineSet
113 47 m 0,0,1
 113 178 113 178 160 283 c 0,2,3
 184 330 184 330 289 477 c 1,4,5
 207 317 207 317 207 193 c 0,6,7
 207 47 207 47 326 -66 c 1,8,9
 442 -170 442 -170 670.5 -171 c 128,-1,10
 899 -172 899 -172 1072 -56.5 c 128,-1,11
 1245 59 1245 59 1247 250 c 0,12,13
 1247 291 1247 291 1245 297 c 1,14,15
 1217 291 1217 291 1188 291 c 0,16,17
 1077 291 1077 291 1004 326 c 0,18,19
 909 377 909 377 909 473 c 0,20,21
 909 563 909 563 968.5 677 c 128,-1,22
 1028 791 1028 791 1104 791 c 1,23,24
 1190 778 1190 778 1257.5 669.5 c 128,-1,25
 1325 561 1325 561 1331 309 c 1,26,27
 1319 -25 1319 -25 1069 -219 c 1,28,29
 885 -371 885 -371 667 -376 c 128,-1,30
 449 -381 449 -381 281 -269.5 c 128,-1,31
 113 -158 113 -158 113 47 c 0,0,1
1001 528 m 1,32,33
 1010 489 1010 489 1094 489 c 0,34,35
 1214 489 1214 489 1227 504 c 1,36,37
 1217 582 1217 582 1144 625 c 128,-1,38
 1071 668 1071 668 1039.5 625 c 128,-1,39
 1008 582 1008 582 1001 528 c 1,32,33
EndSplineSet
EndChar

StartChar: uni06DD
Encoding: 1757 1757 388
Width: 2300
GlyphClass: 2
Flags: W
LayerCount: 2
Fore
SplineSet
2250 715 m 256,0,1
 2250 469 2250 469 2146 249 c 0,2,3
 2046 35 2046 35 1867 -119 c 1,4,5
 1870 -133 1870 -133 1870 -148 c 0,6,7
 1870 -203 1870 -203 1831 -241.5 c 128,-1,8
 1792 -280 1792 -280 1737 -280 c 0,9,10
 1697 -280 1697 -280 1664 -258 c 1,11,12
 1424 -385 1424 -385 1149 -385 c 0,13,14
 876 -385 876 -385 636 -258 c 1,15,16
 603 -280 603 -280 563 -280 c 0,17,18
 508 -280 508 -280 469 -241.5 c 128,-1,19
 430 -203 430 -203 430 -148 c 0,20,21
 430 -133 430 -133 433 -119 c 1,22,23
 254 35 254 35 154 249 c 0,24,25
 50 469 50 469 50 715 c 256,26,27
 50 961 50 961 154 1181 c 0,28,29
 254 1394 254 1394 433 1548 c 1,30,31
 430 1562 430 1562 430 1577 c 0,32,33
 430 1632 430 1632 469 1670.5 c 128,-1,34
 508 1709 508 1709 563 1709 c 0,35,36
 603 1709 603 1709 636 1687 c 1,37,38
 876 1814 876 1814 1151 1814 c 0,39,40
 1424 1814 1424 1814 1664 1687 c 1,41,42
 1697 1709 1697 1709 1737 1709 c 0,43,44
 1792 1709 1792 1709 1831 1670.5 c 128,-1,45
 1870 1632 1870 1632 1870 1577 c 0,46,47
 1870 1562 1870 1562 1867 1548 c 1,48,49
 2046 1394 2046 1394 2146 1181 c 0,50,51
 2250 961 2250 961 2250 715 c 256,0,1
1816 1576 m 0,52,53
 1816 1609 1816 1609 1793 1632 c 128,-1,54
 1770 1655 1770 1655 1738 1655 c 256,55,56
 1706 1655 1706 1655 1682.5 1631.5 c 128,-1,57
 1659 1608 1659 1608 1659 1576 c 256,58,59
 1659 1544 1659 1544 1682 1521 c 128,-1,60
 1705 1498 1705 1498 1738 1498 c 0,61,62
 1770 1498 1770 1498 1793 1521 c 128,-1,63
 1816 1544 1816 1544 1816 1576 c 0,52,53
1602 1595 m 1,64,65
 1390 1704 1390 1704 1151 1704 c 0,66,67
 910 1704 910 1704 698 1595 c 1,68,-1
 1602 1595 l 1,64,65
641 1576 m 256,69,70
 641 1608 641 1608 617.5 1631.5 c 128,-1,71
 594 1655 594 1655 562 1655 c 256,72,73
 530 1655 530 1655 507 1632 c 128,-1,74
 484 1609 484 1609 484 1576 c 0,75,76
 484 1544 484 1544 507 1521 c 128,-1,77
 530 1498 530 1498 562 1498 c 0,78,79
 595 1498 595 1498 618 1521 c 128,-1,80
 641 1544 641 1544 641 1576 c 256,69,70
2140 714 m 0,81,82
 2140 933 2140 933 2048 1131 c 0,83,84
 1960 1321 1960 1321 1801 1460 c 1,85,86
 1772 1444 1772 1444 1737 1444 c 0,87,88
 1681 1444 1681 1444 1642 1485 c 1,89,-1
 658 1485 l 1,90,91
 619 1444 619 1444 563 1444 c 0,92,93
 528 1444 528 1444 499 1460 c 1,94,95
 340 1321 340 1321 252 1131 c 0,96,97
 160 933 160 933 160 714 c 0,98,99
 160 265 160 265 499 -31 c 1,100,101
 528 -15 528 -15 563 -15 c 0,102,103
 619 -15 619 -15 658 -56 c 1,104,-1
 1642 -56 l 1,105,106
 1681 -15 1681 -15 1737 -15 c 0,107,108
 1772 -15 1772 -15 1801 -31 c 1,109,110
 2140 265 2140 265 2140 714 c 0,81,82
1816 -147 m 0,111,112
 1816 -115 1816 -115 1793 -92 c 128,-1,113
 1770 -69 1770 -69 1738 -69 c 0,114,115
 1705 -69 1705 -69 1682 -92 c 128,-1,116
 1659 -115 1659 -115 1659 -147 c 256,117,118
 1659 -179 1659 -179 1682.5 -202.5 c 128,-1,119
 1706 -226 1706 -226 1738 -226 c 256,120,121
 1770 -226 1770 -226 1793 -203 c 128,-1,122
 1816 -180 1816 -180 1816 -147 c 0,111,112
1602 -166 m 1,123,-1
 698 -166 l 1,124,125
 910 -275 910 -275 1151 -275 c 0,126,127
 1390 -275 1390 -275 1602 -166 c 1,123,-1
641 -147 m 256,128,129
 641 -115 641 -115 618 -92 c 128,-1,130
 595 -69 595 -69 562 -69 c 0,131,132
 530 -69 530 -69 507 -92 c 128,-1,133
 484 -115 484 -115 484 -147 c 0,134,135
 484 -180 484 -180 507 -203 c 128,-1,136
 530 -226 530 -226 562 -226 c 256,137,138
 594 -226 594 -226 617.5 -202.5 c 128,-1,139
 641 -179 641 -179 641 -147 c 256,128,129
EndSplineSet
EndChar

StartChar: uni06DE
Encoding: 1758 1758 389
Width: 2221
GlyphClass: 2
Flags: W
LayerCount: 2
Fore
SplineSet
2171 750 m 1,0,-1
 1861 439 l 1,1,-1
 1861 0 l 1,2,-1
 1421 0 l 1,3,-1
 1111 -311 l 1,4,-1
 800 0 l 1,5,-1
 361 0 l 1,6,-1
 361 439 l 1,7,-1
 50 750 l 1,8,-1
 361 1061 l 1,9,-1
 361 1500 l 1,10,-1
 800 1500 l 1,11,-1
 1111 1811 l 1,12,-1
 1421 1500 l 1,13,-1
 1861 1500 l 1,14,-1
 1861 1061 l 1,15,-1
 2171 750 l 1,0,-1
436 364 m 1,16,-1
 436 75 l 1,17,-1
 725 75 l 1,18,-1
 436 364 l 1,16,-1
725 1425 m 1,19,-1
 436 1425 l 1,20,-1
 436 1136 l 1,21,-1
 725 1425 l 1,19,-1
1786 1136 m 1,22,-1
 1786 1425 l 1,23,-1
 1496 1425 l 1,24,-1
 1786 1136 l 1,22,-1
1786 75 m 1,25,-1
 1786 364 l 1,26,-1
 1496 75 l 1,27,-1
 1786 75 l 1,25,-1
906 0 m 1,28,-1
 1111 -205 l 1,29,-1
 1315 0 l 1,30,-1
 906 0 l 1,28,-1
361 955 m 1,31,-1
 156 750 l 1,32,-1
 361 545 l 1,33,-1
 361 955 l 1,31,-1
1315 1500 m 1,34,-1
 1111 1705 l 1,35,-1
 906 1500 l 1,36,-1
 1315 1500 l 1,34,-1
1786 1030 m 1,37,-1
 1390 1425 l 1,38,-1
 831 1425 l 1,39,-1
 436 1030 l 1,40,-1
 436 470 l 1,41,-1
 831 75 l 1,42,-1
 1390 75 l 1,43,-1
 1786 470 l 1,44,-1
 1786 1030 l 1,37,-1
2065 750 m 1,45,-1
 1861 955 l 1,46,-1
 1861 545 l 1,47,-1
 2065 750 l 1,45,-1
1328 750 m 256,48,49
 1328 660 1328 660 1264.5 596 c 128,-1,50
 1201 532 1201 532 1111 532 c 256,51,52
 1021 532 1021 532 957 596 c 128,-1,53
 893 660 893 660 893 750 c 256,54,55
 893 840 893 840 957 903.5 c 128,-1,56
 1021 967 1021 967 1111 967 c 256,57,58
 1201 967 1201 967 1264.5 903.5 c 128,-1,59
 1328 840 1328 840 1328 750 c 256,48,49
1253 750 m 256,60,61
 1253 809 1253 809 1211 850.5 c 128,-1,62
 1169 892 1169 892 1110 892 c 256,63,64
 1051 892 1051 892 1009 850.5 c 128,-1,65
 967 809 967 809 967 750 c 256,66,67
 967 691 967 691 1009 649 c 128,-1,68
 1051 607 1051 607 1110 607 c 256,69,70
 1169 607 1169 607 1211 649 c 128,-1,71
 1253 691 1253 691 1253 750 c 256,60,61
EndSplineSet
EndChar

StartChar: uni06DF
Encoding: 1759 1759 390
Width: 0
GlyphClass: 2
Flags: W
LayerCount: 2
Fore
SplineSet
75 1429 m 256,0,1
 75 1398 75 1398 53 1376 c 128,-1,2
 31 1354 31 1354 0 1354 c 256,3,4
 -31 1354 -31 1354 -53 1376 c 128,-1,5
 -75 1398 -75 1398 -75 1429 c 256,6,7
 -75 1460 -75 1460 -53 1482 c 128,-1,8
 -31 1504 -31 1504 0 1504 c 256,9,10
 31 1504 31 1504 53 1482 c 128,-1,11
 75 1460 75 1460 75 1429 c 256,0,1
EndSplineSet
EndChar

StartChar: uni06E9
Encoding: 1769 1769 391
Width: 1229
GlyphClass: 2
Flags: W
LayerCount: 2
Fore
SplineSet
1179 0 m 1,0,-1
 50 0 l 1,1,-1
 278 261 l 1,2,-1
 278 849 l 1,3,-1
 50 1108 l 1,4,-1
 614 1676 l 1,5,-1
 1179 1108 l 1,6,-1
 951 849 l 1,7,-1
 951 261 l 1,8,-1
 1179 0 l 1,0,-1
1101 1108 m 1,9,-1
 614 1598 l 1,10,-1
 128 1108 l 1,11,-1
 338 871 l 1,12,-1
 338 239 l 1,13,-1
 178 56 l 1,14,-1
 1051 56 l 1,15,-1
 891 239 l 1,16,-1
 891 871 l 1,17,-1
 1101 1108 l 1,9,-1
995 1108 m 1,18,-1
 845 937 l 1,19,-1
 845 131 l 1,20,-1
 384 131 l 1,21,-1
 384 937 l 1,22,-1
 234 1108 l 1,23,-1
 614 1489 l 1,24,-1
 995 1108 l 1,18,-1
922 1108 m 1,25,-1
 614 1416 l 1,26,-1
 307 1108 l 1,27,-1
 433 968 l 1,28,-1
 433 186 l 1,29,-1
 796 186 l 1,30,-1
 796 968 l 1,31,-1
 922 1108 l 1,25,-1
833 1108 m 1,32,-1
 745 1011 l 1,33,-1
 745 267 l 1,34,-1
 484 267 l 1,35,-1
 484 1011 l 1,36,-1
 396 1108 l 1,37,-1
 614 1331 l 1,38,-1
 833 1108 l 1,32,-1
780 1108 m 1,39,-1
 614 1278 l 1,40,-1
 449 1108 l 1,41,-1
 523 1027 l 1,42,-1
 523 309 l 1,43,-1
 705 309 l 1,44,-1
 705 1027 l 1,45,-1
 780 1108 l 1,39,-1
EndSplineSet
EndChar

StartChar: uni06EB
Encoding: 1771 1771 393
Width: 0
GlyphClass: 2
Flags: W
LayerCount: 2
Fore
SplineSet
168 1522 m 1,0,-1
 -1 1354 l 1,1,-1
 -168 1521 l 1,2,-1
 1 1689 l 1,3,-1
 168 1522 l 1,0,-1
104 1522 m 1,4,-1
 0 1626 l 1,5,-1
 -104 1521 l 1,6,-1
 0 1417 l 1,7,-1
 104 1522 l 1,4,-1
EndSplineSet
EndChar

StartChar: comma
Encoding: 44 44 402
Width: 433
Flags: W
LayerCount: 2
Fore
SplineSet
93 -289 m 1,0,-1
 93 -252 l 1,1,2
 180 -222 180 -222 227.5 -161.5 c 128,-1,3
 275 -101 275 -101 275 -33 c 0,4,5
 275 -18 275 -18 268 -6 c 0,6,7
 262 1 262 1 255 1 c 0,8,9
 247 1 247 1 216 -16 c 0,10,11
 201 -23 201 -23 184 -23 c 0,12,13
 142 -23 142 -23 117.5 1.5 c 128,-1,14
 93 26 93 26 93 69 c 0,15,16
 93 110 93 110 125 139.5 c 128,-1,17
 157 169 157 169 202 169 c 0,18,19
 258 169 258 169 301 120.5 c 128,-1,20
 344 72 344 72 344 -9 c 0,21,22
 344 -95 344 -95 284 -170 c 128,-1,23
 224 -245 224 -245 93 -289 c 1,0,-1
EndSplineSet
EndChar

StartChar: afii57407
Encoding: 1567 1567 403
Width: 1057
GlyphClass: 2
Flags: W
LayerCount: 2
Fore
SplineSet
186 1051 m 0,0,1
 186 1214 186 1214 305 1364 c 0,2,3
 434 1520 434 1520 596 1520 c 0,4,5
 678 1520 678 1520 793 1434 c 0,6,7
 915 1341 915 1341 915 1266 c 0,8,9
 915 1227 915 1227 850 1190 c 0,10,11
 793 1155 793 1155 752 1155 c 0,12,13
 694 1155 694 1155 680 1227 c 1,14,15
 674 1288 674 1288 668 1348 c 1,16,17
 647 1417 647 1417 549 1417 c 256,18,19
 451 1417 451 1417 387.5 1352.5 c 128,-1,20
 324 1288 324 1288 324 1200 c 0,21,22
 324 1098 324 1098 381 989 c 0,23,24
 397 956 397 956 424 915 c 0,25,26
 451 872 451 872 541 840 c 0,27,28
 645 799 645 799 678 772 c 0,29,30
 745 713 745 713 745 594 c 0,31,32
 745 500 745 500 682 408 c 1,33,34
 659 516 659 516 635 559 c 1,35,36
 602 639 602 639 541 674 c 2,37,-1
 305 819 l 1,38,39
 186 915 186 915 186 1051 c 0,0,1
668 279 m 1,40,-1
 823 164 l 1,41,-1
 700 25 l 1,42,-1
 553 125 l 1,43,-1
 668 279 l 1,40,-1
EndSplineSet
EndChar

StartChar: afii57392
Encoding: 1776 1776 404
Width: 866
Flags: W
LayerCount: 2
Fore
SplineSet
387 993 m 1,0,-1
 639 750 l 1,1,-1
 492 551 l 1,2,-1
 223 772 l 1,3,-1
 387 993 l 1,0,-1
EndSplineSet
EndChar

StartChar: afii57393
Encoding: 1777 1777 405
Width: 567
Flags: W
LayerCount: 2
Fore
SplineSet
229 1479 m 1,0,1
 295 1348 295 1348 367.5 1008 c 128,-1,2
 440 668 440 668 441 435.5 c 128,-1,3
 442 203 442 203 377 -8 c 1,4,5
 324 535 324 535 251 852 c 128,-1,6
 178 1169 178 1169 125 1309 c 1,7,-1
 229 1479 l 1,0,1
EndSplineSet
EndChar

StartChar: afii57394
Encoding: 1778 1778 406
Width: 958
Flags: W
LayerCount: 2
Fore
SplineSet
184 1434 m 1,0,1
 236 1339 236 1339 279 1305 c 1,2,3
 332 1255 332 1255 430 1255 c 0,4,5
 541 1255 541 1255 647 1309 c 0,6,7
 766 1374 766 1374 807 1466 c 1,8,9
 807 1272 807 1272 697.5 1160.5 c 128,-1,10
 588 1049 588 1049 385 1042 c 1,11,12
 489 764 489 764 504.5 432 c 128,-1,13
 520 100 520 100 457 -25 c 1,14,15
 457 516 457 516 84 1272 c 1,16,-1
 184 1434 l 1,0,1
EndSplineSet
EndChar

StartChar: afii57395
Encoding: 1779 1779 407
Width: 1008
Flags: W
LayerCount: 2
Fore
SplineSet
111 1386 m 1,0,-1
 197 1280 l 1,1,2
 266 1239 266 1239 356 1239 c 0,3,4
 510 1239 510 1239 575 1348 c 1,5,-1
 582 1444 l 1,6,7
 621 1294 621 1294 721 1294 c 0,8,9
 846 1294 846 1294 846 1458 c 1,10,11
 872 1444 872 1444 872 1321 c 0,12,13
 872 1135 872 1135 707 1135 c 0,14,15
 680 1135 680 1135 612 1169 c 1,16,17
 575 1067 575 1067 483 1047.5 c 128,-1,18
 391 1028 391 1028 344 1044 c 1,19,20
 481 641 481 641 495.5 377 c 128,-1,21
 510 113 510 113 444 -14 c 1,22,23
 444 283 444 283 340 601.5 c 128,-1,24
 236 920 236 920 51 1206 c 1,25,-1
 111 1386 l 1,0,-1
EndSplineSet
EndChar

StartChar: afii62843
Encoding: 1780 1780 408
Width: 1303
Flags: W
LayerCount: 2
Fore
SplineSet
147 1354 m 1,0,1
 152 1352 152 1352 156 1349 c 128,-1,2
 160 1346 160 1346 164 1341 c 0,3,4
 184 1325 184 1325 230 1278 c 128,-1,5
 276 1231 276 1231 328.5 1178.5 c 128,-1,6
 381 1126 381 1126 420 1089.5 c 128,-1,7
 459 1053 459 1053 461 1073 c 0,8,9
 477 1167 477 1167 500.5 1260.5 c 128,-1,10
 524 1354 524 1354 576.5 1400 c 128,-1,11
 629 1446 629 1446 720 1422.5 c 128,-1,12
 811 1399 811 1399 956 1262 c 1,13,14
 766 1309 766 1309 659.5 1229 c 128,-1,15
 553 1149 553 1149 567 993 c 1,16,17
 713 887 713 887 843 928 c 128,-1,18
 973 969 973 969 1077 1167 c 1,19,20
 1055 827 1055 827 895 766 c 1,21,22
 821 731 821 731 749.5 722 c 128,-1,23
 678 713 678 713 612 743 c 1,24,25
 629 719 629 719 659 643 c 0,26,27
 692 565 692 565 733 430 c 0,28,29
 772 301 772 301 791.5 194.5 c 128,-1,30
 811 88 811 88 803 6 c 1,31,32
 664 397 664 397 520 627 c 1,33,34
 385 858 385 858 72 1098 c 1,35,36
 92 1159 92 1159 111.5 1223.5 c 128,-1,37
 131 1288 131 1288 147 1354 c 1,0,1
EndSplineSet
EndChar

StartChar: afii62844
Encoding: 1781 1781 409
Width: 1106
Flags: W
LayerCount: 2
Fore
SplineSet
354 1413 m 1,0,1
 461 1343 461 1343 561.5 1240 c 128,-1,2
 662 1137 662 1137 803 922 c 128,-1,3
 944 707 944 707 979 428 c 0,4,5
 995 291 995 291 973.5 201 c 128,-1,6
 952 111 952 111 877 59 c 0,7,8
 731 -47 731 -47 557 82 c 1,9,10
 379 -29 379 -29 229 31 c 0,11,12
 80 88 80 88 72 342 c 1,13,14
 72 586 72 586 150.5 746.5 c 128,-1,15
 229 907 229 907 278.5 975.5 c 128,-1,16
 328 1044 328 1044 358 1073 c 1,17,18
 336 1106 336 1106 310.5 1123.5 c 128,-1,19
 285 1141 285 1141 262 1171 c 1,20,21
 274 1231 274 1231 305 1291.5 c 128,-1,22
 336 1352 336 1352 354 1413 c 1,0,1
455 1036 m 1,23,24
 395 997 395 997 344 927.5 c 128,-1,25
 293 858 293 858 244 756.5 c 128,-1,26
 195 655 195 655 180.5 566 c 128,-1,27
 166 477 166 477 182 385 c 1,28,29
 236 217 236 217 341 207 c 128,-1,30
 446 197 446 197 543 348 c 1,31,32
 559 289 559 289 623.5 257 c 128,-1,33
 688 225 688 225 752 236 c 1,34,35
 891 248 891 248 866 436 c 1,36,37
 844 555 844 555 798 646 c 128,-1,38
 752 737 752 737 688 811 c 0,39,40
 625 881 625 881 566.5 939 c 128,-1,41
 508 997 508 997 455 1036 c 1,23,24
EndSplineSet
EndChar

StartChar: afii62845
Encoding: 1782 1782 410
Width: 1147
Flags: W
LayerCount: 2
Fore
SplineSet
834 1141 m 1,0,1
 760 1171 760 1171 681 1197 c 128,-1,2
 602 1223 602 1223 524 1235 c 0,3,4
 371 1266 371 1266 219 1151 c 1,5,6
 242 936 242 936 426 936 c 1,7,8
 524 928 524 928 612 934 c 128,-1,9
 700 940 700 940 791 948 c 1,10,11
 834 956 834 956 885 965.5 c 128,-1,12
 936 975 936 975 991 985 c 1,13,-1
 961 813 l 1,14,15
 817 727 817 727 706.5 642 c 128,-1,16
 596 557 596 557 518 473 c 1,17,18
 362 317 362 317 236 10 c 1,19,20
 211 125 211 125 326 389 c 1,21,22
 451 651 451 651 506 682 c 1,23,24
 -41 850 -41 850 143 1198 c 1,25,26
 242 1366 242 1366 340 1413 c 1,27,28
 412 1442 412 1442 537 1388.5 c 128,-1,29
 662 1335 662 1335 834 1141 c 1,0,1
EndSplineSet
EndChar

StartChar: afii57399
Encoding: 1783 1783 411
Width: 1188
Flags: W
LayerCount: 2
Fore
SplineSet
158 1452 m 1,0,1
 451 950 451 950 594 322 c 1,2,3
 602 395 602 395 726 784.5 c 128,-1,4
 850 1174 850 1174 936 1304 c 128,-1,5
 1022 1434 1022 1434 1036 1464 c 1,6,-1
 1049 1169 l 1,7,8
 930 1057 930 1057 763 574.5 c 128,-1,9
 596 92 596 92 580 -25 c 1,10,11
 389 645 389 645 74 1126 c 1,12,-1
 158 1452 l 1,0,1
EndSplineSet
EndChar

StartChar: afii57400
Encoding: 1784 1784 412
Width: 1262
Flags: W
LayerCount: 2
Fore
SplineSet
147 186 m 1,0,1
 295 475 295 475 389 748.5 c 128,-1,2
 483 1022 483 1022 621 1483 c 1,3,4
 733 1077 733 1077 904 706.5 c 128,-1,5
 1075 336 1075 336 1130 322 c 1,6,-1
 1057 -14 l 1,7,8
 719 592 719 592 600 1130 c 1,9,10
 467 457 467 457 172 -14 c 1,11,-1
 147 186 l 1,12,-1
 147 186 l 1,0,1
EndSplineSet
EndChar

StartChar: afii57401
Encoding: 1785 1785 413
Width: 1044
Flags: W
LayerCount: 2
Fore
SplineSet
66 985 m 0,0,1
 66 1102 66 1102 128 1218.5 c 128,-1,2
 190 1335 190 1335 295 1391 c 1,3,4
 444 1452 444 1452 529 1383.5 c 128,-1,5
 614 1315 614 1315 632.5 1145 c 128,-1,6
 651 975 651 975 698 742.5 c 128,-1,7
 745 510 745 510 866 238 c 1,8,-1
 911 -20 l 1,9,10
 745 205 745 205 656 433.5 c 128,-1,11
 567 662 567 662 532 883 c 1,12,13
 322 829 322 829 238 829 c 0,14,15
 66 829 66 829 66 985 c 0,0,1
145 1024 m 0,16,17
 145 995 145 995 252 971 c 1,18,19
 342 956 342 956 412.5 959.5 c 128,-1,20
 483 963 483 963 514 991 c 1,21,22
 500 1217 500 1217 330 1208 c 0,23,24
 270 1208 270 1208 207.5 1145.5 c 128,-1,25
 145 1083 145 1083 145 1024 c 0,16,17
EndSplineSet
EndChar

StartChar: afii57392.001
Encoding: 1632 1632 414
Width: 866
Flags: W
LayerCount: 2
Fore
SplineSet
387 993 m 1,0,-1
 639 750 l 1,1,-1
 492 551 l 1,2,-1
 223 772 l 1,3,-1
 387 993 l 1,0,-1
EndSplineSet
EndChar

StartChar: afii57393.001
Encoding: 1633 1633 415
Width: 567
Flags: W
LayerCount: 2
Fore
SplineSet
229 1479 m 1,0,1
 295 1348 295 1348 367.5 1008 c 128,-1,2
 440 668 440 668 441 435.5 c 128,-1,3
 442 203 442 203 377 -8 c 1,4,5
 324 535 324 535 251 852 c 128,-1,6
 178 1169 178 1169 125 1309 c 1,7,-1
 229 1479 l 1,0,1
EndSplineSet
EndChar

StartChar: afii57394.001
Encoding: 1634 1634 416
Width: 958
Flags: W
LayerCount: 2
Fore
SplineSet
184 1434 m 1,0,1
 236 1339 236 1339 279 1305 c 1,2,3
 332 1255 332 1255 430 1255 c 0,4,5
 541 1255 541 1255 647 1309 c 0,6,7
 766 1374 766 1374 807 1466 c 1,8,9
 807 1272 807 1272 697.5 1160.5 c 128,-1,10
 588 1049 588 1049 385 1042 c 1,11,12
 489 764 489 764 504.5 432 c 128,-1,13
 520 100 520 100 457 -25 c 1,14,15
 457 516 457 516 84 1272 c 1,16,-1
 184 1434 l 1,0,1
EndSplineSet
EndChar

StartChar: afii57395.001
Encoding: 1635 1635 417
Width: 1008
Flags: W
LayerCount: 2
Fore
SplineSet
111 1386 m 1,0,-1
 197 1280 l 1,1,2
 266 1239 266 1239 356 1239 c 0,3,4
 510 1239 510 1239 575 1348 c 1,5,-1
 582 1444 l 1,6,7
 621 1294 621 1294 721 1294 c 0,8,9
 846 1294 846 1294 846 1458 c 1,10,11
 872 1444 872 1444 872 1321 c 0,12,13
 872 1135 872 1135 707 1135 c 0,14,15
 680 1135 680 1135 612 1169 c 1,16,17
 575 1067 575 1067 483 1047.5 c 128,-1,18
 391 1028 391 1028 344 1044 c 1,19,20
 481 641 481 641 495.5 377 c 128,-1,21
 510 113 510 113 444 -14 c 1,22,23
 444 283 444 283 340 601.5 c 128,-1,24
 236 920 236 920 51 1206 c 1,25,-1
 111 1386 l 1,0,-1
EndSplineSet
EndChar

StartChar: afii57396
Encoding: 1636 1636 418
Width: 1303
Flags: W
LayerCount: 2
Fore
SplineSet
147 1354 m 1,0,1
 152 1352 152 1352 156 1349 c 128,-1,2
 160 1346 160 1346 164 1341 c 0,3,4
 184 1325 184 1325 230 1278 c 128,-1,5
 276 1231 276 1231 328.5 1178.5 c 128,-1,6
 381 1126 381 1126 420 1089.5 c 128,-1,7
 459 1053 459 1053 461 1073 c 0,8,9
 477 1167 477 1167 500.5 1260.5 c 128,-1,10
 524 1354 524 1354 576.5 1400 c 128,-1,11
 629 1446 629 1446 720 1422.5 c 128,-1,12
 811 1399 811 1399 956 1262 c 1,13,14
 766 1309 766 1309 659.5 1229 c 128,-1,15
 553 1149 553 1149 567 993 c 1,16,17
 713 887 713 887 843 928 c 128,-1,18
 973 969 973 969 1077 1167 c 1,19,20
 1055 827 1055 827 895 766 c 1,21,22
 821 731 821 731 749.5 722 c 128,-1,23
 678 713 678 713 612 743 c 1,24,25
 629 719 629 719 659 643 c 0,26,27
 692 565 692 565 733 430 c 0,28,29
 772 301 772 301 791.5 194.5 c 128,-1,30
 811 88 811 88 803 6 c 1,31,32
 664 397 664 397 520 627 c 1,33,34
 385 858 385 858 72 1098 c 1,35,36
 92 1159 92 1159 111.5 1223.5 c 128,-1,37
 131 1288 131 1288 147 1354 c 1,0,1
EndSplineSet
EndChar

StartChar: afii57397
Encoding: 1637 1637 419
Width: 1106
Flags: W
LayerCount: 2
Fore
SplineSet
354 1413 m 1,0,1
 461 1343 461 1343 561.5 1240 c 128,-1,2
 662 1137 662 1137 803 922 c 128,-1,3
 944 707 944 707 979 428 c 0,4,5
 995 291 995 291 973.5 201 c 128,-1,6
 952 111 952 111 877 59 c 0,7,8
 731 -47 731 -47 557 82 c 1,9,10
 379 -29 379 -29 229 31 c 0,11,12
 80 88 80 88 72 342 c 1,13,14
 72 586 72 586 150.5 746.5 c 128,-1,15
 229 907 229 907 278.5 975.5 c 128,-1,16
 328 1044 328 1044 358 1073 c 1,17,18
 336 1106 336 1106 310.5 1123.5 c 128,-1,19
 285 1141 285 1141 262 1171 c 1,20,21
 274 1231 274 1231 305 1291.5 c 128,-1,22
 336 1352 336 1352 354 1413 c 1,0,1
455 1036 m 1,23,24
 395 997 395 997 344 927.5 c 128,-1,25
 293 858 293 858 244 756.5 c 128,-1,26
 195 655 195 655 180.5 566 c 128,-1,27
 166 477 166 477 182 385 c 1,28,29
 236 217 236 217 341 207 c 128,-1,30
 446 197 446 197 543 348 c 1,31,32
 559 289 559 289 623.5 257 c 128,-1,33
 688 225 688 225 752 236 c 1,34,35
 891 248 891 248 866 436 c 1,36,37
 844 555 844 555 798 646 c 128,-1,38
 752 737 752 737 688 811 c 0,39,40
 625 881 625 881 566.5 939 c 128,-1,41
 508 997 508 997 455 1036 c 1,23,24
EndSplineSet
EndChar

StartChar: afii57398
Encoding: 1638 1638 420
Width: 1147
Flags: W
LayerCount: 2
Fore
SplineSet
834 1141 m 1,0,1
 760 1171 760 1171 681 1197 c 128,-1,2
 602 1223 602 1223 524 1235 c 0,3,4
 371 1266 371 1266 219 1151 c 1,5,6
 242 936 242 936 426 936 c 1,7,8
 524 928 524 928 612 934 c 128,-1,9
 700 940 700 940 791 948 c 1,10,11
 834 956 834 956 885 965.5 c 128,-1,12
 936 975 936 975 991 985 c 1,13,-1
 961 813 l 1,14,15
 817 727 817 727 706.5 642 c 128,-1,16
 596 557 596 557 518 473 c 1,17,18
 362 317 362 317 236 10 c 1,19,20
 211 125 211 125 326 389 c 1,21,22
 451 651 451 651 506 682 c 1,23,24
 -41 850 -41 850 143 1198 c 1,25,26
 242 1366 242 1366 340 1413 c 1,27,28
 412 1442 412 1442 537 1388.5 c 128,-1,29
 662 1335 662 1335 834 1141 c 1,0,1
EndSplineSet
EndChar

StartChar: afii57399.001
Encoding: 1639 1639 421
Width: 1188
Flags: W
LayerCount: 2
Fore
SplineSet
158 1452 m 1,0,1
 451 950 451 950 594 322 c 1,2,3
 602 395 602 395 726 784.5 c 128,-1,4
 850 1174 850 1174 936 1304 c 128,-1,5
 1022 1434 1022 1434 1036 1464 c 1,6,-1
 1049 1169 l 1,7,8
 930 1057 930 1057 763 574.5 c 128,-1,9
 596 92 596 92 580 -25 c 1,10,11
 389 645 389 645 74 1126 c 1,12,-1
 158 1452 l 1,0,1
EndSplineSet
EndChar

StartChar: afii57400.001
Encoding: 1640 1640 422
Width: 1262
Flags: W
LayerCount: 2
Fore
SplineSet
147 186 m 1,0,1
 295 475 295 475 389 748.5 c 128,-1,2
 483 1022 483 1022 621 1483 c 1,3,4
 733 1077 733 1077 904 706.5 c 128,-1,5
 1075 336 1075 336 1130 322 c 1,6,-1
 1057 -14 l 1,7,8
 719 592 719 592 600 1130 c 1,9,10
 467 457 467 457 172 -14 c 1,11,-1
 147 186 l 1,12,-1
 147 186 l 1,0,1
EndSplineSet
EndChar

StartChar: afii57401.001
Encoding: 1641 1641 423
Width: 1044
Flags: W
LayerCount: 2
Fore
SplineSet
66 985 m 0,0,1
 66 1102 66 1102 128 1218.5 c 128,-1,2
 190 1335 190 1335 295 1391 c 1,3,4
 444 1452 444 1452 529 1383.5 c 128,-1,5
 614 1315 614 1315 632.5 1145 c 128,-1,6
 651 975 651 975 698 742.5 c 128,-1,7
 745 510 745 510 866 238 c 1,8,-1
 911 -20 l 1,9,10
 745 205 745 205 656 433.5 c 128,-1,11
 567 662 567 662 532 883 c 1,12,13
 322 829 322 829 238 829 c 0,14,15
 66 829 66 829 66 985 c 0,0,1
145 1024 m 0,16,17
 145 995 145 995 252 971 c 1,18,19
 342 956 342 956 412.5 959.5 c 128,-1,20
 483 963 483 963 514 991 c 1,21,22
 500 1217 500 1217 330 1208 c 0,23,24
 270 1208 270 1208 207.5 1145.5 c 128,-1,25
 145 1083 145 1083 145 1024 c 0,16,17
EndSplineSet
EndChar

StartChar: guillemotleft
Encoding: 171 171 424
Width: 836
Flags: W
LayerCount: 2
Fore
SplineSet
675 625 m 1,0,1
 632 516 632 516 632 404 c 0,2,3
 632 267 632 267 734 95 c 1,4,-1
 734 96 l 1,5,6
 750 73 750 73 757.5 57.5 c 128,-1,7
 765 42 765 42 768 34 c 0,8,9
 768 9 768 9 747 9 c 0,10,11
 742 9 742 9 731 15 c 0,12,13
 624 83 624 83 558 180 c 1,14,-1
 558 179 l 1,15,16
 486 288 486 288 486 407 c 0,17,18
 487 458 487 458 502.5 509 c 128,-1,19
 518 560 518 560 547 612 c 0,20,21
 569 649 569 649 598.5 685 c 128,-1,22
 628 721 628 721 662 753 c 0,23,24
 721 806 721 806 742 806 c 0,25,26
 770 806 770 806 770 782 c 0,27,28
 770 772 770 772 764 764 c 0,29,30
 721 710 721 710 702 676.5 c 128,-1,31
 683 643 683 643 674 624 c 1,32,-1
 675 625 l 1,0,1
365 625 m 1,33,34
 322 516 322 516 322 404 c 0,35,36
 322 267 322 267 424 95 c 1,37,-1
 424 96 l 1,38,39
 440 73 440 73 447.5 57.5 c 128,-1,40
 455 42 455 42 458 34 c 0,41,42
 458 9 458 9 437 9 c 0,43,44
 432 9 432 9 421 15 c 0,45,46
 314 83 314 83 248 180 c 1,47,-1
 248 179 l 1,48,49
 176 288 176 288 176 407 c 0,50,51
 177 458 177 458 192.5 509 c 128,-1,52
 208 560 208 560 237 612 c 0,53,54
 259 649 259 649 288.5 685 c 128,-1,55
 318 721 318 721 352 753 c 0,56,57
 411 806 411 806 432 806 c 0,58,59
 460 806 460 806 460 782 c 0,60,61
 460 772 460 772 454 764 c 0,62,63
 411 710 411 710 392 676.5 c 128,-1,64
 373 643 373 643 364 624 c 1,65,-1
 365 625 l 1,33,34
EndSplineSet
EndChar

StartChar: guillemotright
Encoding: 187 187 425
Width: 836
Flags: W
LayerCount: 2
Fore
SplineSet
272 624 m 1,0,1
 263 643 263 643 244 676.5 c 128,-1,2
 225 710 225 710 182 764 c 0,3,4
 176 772 176 772 176 782 c 0,5,6
 176 806 176 806 204 806 c 0,7,8
 225 806 225 806 284 753 c 0,9,10
 318 721 318 721 347.5 685 c 128,-1,11
 377 649 377 649 399 612 c 0,12,13
 428 560 428 560 443.5 509 c 128,-1,14
 459 458 459 458 460 407 c 0,15,16
 460 288 460 288 388 179 c 1,17,-1
 388 180 l 1,18,19
 322 83 322 83 215 15 c 0,20,21
 204 9 204 9 199 9 c 0,22,23
 178 9 178 9 178 34 c 0,24,25
 181 42 181 42 188.5 57.5 c 128,-1,26
 196 73 196 73 212 96 c 1,27,-1
 212 95 l 1,28,29
 314 267 314 267 314 404 c 0,30,31
 314 516 314 516 271 625 c 1,32,-1
 272 624 l 1,0,1
582 624 m 1,33,34
 573 643 573 643 554 676.5 c 128,-1,35
 535 710 535 710 492 764 c 0,36,37
 486 772 486 772 486 782 c 0,38,39
 486 806 486 806 514 806 c 0,40,41
 535 806 535 806 594 753 c 0,42,43
 628 721 628 721 657.5 685 c 128,-1,44
 687 649 687 649 709 612 c 0,45,46
 738 560 738 560 753.5 509 c 128,-1,47
 769 458 769 458 770 407 c 0,48,49
 770 288 770 288 698 179 c 1,50,-1
 698 180 l 1,51,52
 632 83 632 83 525 15 c 0,53,54
 514 9 514 9 509 9 c 0,55,56
 488 9 488 9 488 34 c 0,57,58
 491 42 491 42 498.5 57.5 c 128,-1,59
 506 73 506 73 522 96 c 1,60,-1
 522 95 l 1,61,62
 624 267 624 267 624 404 c 0,63,64
 624 516 624 516 581 625 c 1,65,-1
 582 624 l 1,33,34
EndSplineSet
EndChar

StartChar: quoteleft
Encoding: 8216 8216 426
Width: 425
Flags: W
LayerCount: 2
Fore
SplineSet
112 1210 m 0,0,1
 113 1275 113 1275 157 1338.5 c 128,-1,2
 201 1402 201 1402 256 1428 c 1,3,-1
 287 1370 l 1,4,5
 271 1361 271 1361 249 1337 c 128,-1,6
 227 1313 227 1313 217 1275 c 1,7,8
 283 1247 283 1247 280 1192 c 0,9,10
 280 1176 280 1176 273.5 1161.5 c 128,-1,11
 267 1147 267 1147 256 1136 c 128,-1,12
 245 1125 245 1125 230 1118.5 c 128,-1,13
 215 1112 215 1112 199 1112 c 0,14,15
 179 1112 179 1112 162.5 1120.5 c 128,-1,16
 146 1129 146 1129 135 1142.5 c 128,-1,17
 124 1156 124 1156 118 1174 c 128,-1,18
 112 1192 112 1192 112 1210 c 0,0,1
EndSplineSet
EndChar

StartChar: quoteright
Encoding: 8217 8217 427
Width: 372
Flags: W
LayerCount: 2
Fore
SplineSet
281 1349 m 0,0,1
 280 1284 280 1284 236 1220.5 c 128,-1,2
 192 1157 192 1157 137 1131 c 1,3,-1
 106 1189 l 1,4,5
 122 1198 122 1198 144 1222 c 128,-1,6
 166 1246 166 1246 176 1284 c 1,7,8
 110 1312 110 1312 113 1367 c 0,9,10
 113 1383 113 1383 119.5 1397.5 c 128,-1,11
 126 1412 126 1412 137 1423 c 128,-1,12
 148 1434 148 1434 162.5 1440.5 c 128,-1,13
 177 1447 177 1447 194 1447 c 0,14,15
 214 1447 214 1447 230 1438.5 c 128,-1,16
 246 1430 246 1430 257.5 1416.5 c 128,-1,17
 269 1403 269 1403 275 1385 c 128,-1,18
 281 1367 281 1367 281 1349 c 0,0,1
EndSplineSet
EndChar

StartChar: afii57451
Encoding: 1611 1611 428
Width: 0
GlyphClass: 4
Flags: W
AnchorPoint: "Anchor-2" 0 0 mark 0
AnchorPoint: "Anchor-0" 0 0 mark 0
LayerCount: 2
Fore
SplineSet
-232 96 m 1,0,-1
 219 331 l 1,1,-1
 219 233 l 1,2,-1
 -232 1 l 1,3,-1
 -232 96 l 1,0,-1
-225 304 m 1,4,-1
 229 538 l 1,5,-1
 229 444 l 1,6,-1
 -225 208 l 1,7,-1
 -225 304 l 1,4,-1
EndSplineSet
EndChar

StartChar: afii57454
Encoding: 1614 1614 429
Width: 0
GlyphClass: 4
Flags: W
AnchorPoint: "Anchor-2" 0 0 mark 0
AnchorPoint: "Anchor-0" 0 0 mark 0
LayerCount: 2
Fore
SplineSet
-245 109 m 1,0,-1
 205 347 l 1,1,-1
 205 248 l 1,2,-1
 -245 17 l 1,3,-1
 -245 109 l 1,0,-1
EndSplineSet
EndChar

StartChar: afii57455
Encoding: 1615 1615 430
Width: 0
GlyphClass: 4
Flags: W
AnchorPoint: "Anchor-2" 0 0 mark 0
AnchorPoint: "Anchor-0" 0 0 mark 0
LayerCount: 2
Fore
SplineSet
-262 82 m 1,0,1
 -142 141 -142 141 -90 227 c 1,2,3
 -150 250 -150 250 -150 328 c 0,4,5
 -150 381 -150 381 -96.5 441.5 c 128,-1,6
 -43 502 -43 502 4 502 c 0,7,8
 94 502 94 502 94 416 c 0,9,10
 94 319 94 319 37 260 c 1,11,12
 69 242 69 242 94 238 c 1,13,14
 102 227 102 227 102 209 c 0,15,16
 102 172 102 172 78 143 c 1,17,18
 8 162 8 162 -25 172 c 1,19,20
 -142 59 -142 59 -240 23 c 1,21,-1
 -262 82 l 1,0,1
-78 354 m 0,22,23
 -78 340 -78 340 -63.5 320.5 c 128,-1,24
 -49 301 -49 301 -29 301 c 0,25,26
 -15 301 -15 301 4 334 c 0,27,28
 22 369 22 369 22 383 c 0,29,30
 22 434 22 434 -25 434 c 0,31,32
 -47 434 -47 434 -62.5 407.5 c 128,-1,33
 -78 381 -78 381 -78 354 c 0,22,23
EndSplineSet
EndChar

StartChar: afii57452
Encoding: 1612 1612 431
Width: 0
GlyphClass: 4
Flags: W
AnchorPoint: "Anchor-2" 0 0 mark 0
AnchorPoint: "Anchor-0" 0 0 mark 0
LayerCount: 2
Fore
SplineSet
-272 200 m 1,0,1
 -225 253 -225 253 -165 253 c 0,2,3
 -120 253 -120 253 -120 187 c 0,4,5
 -120 155 -120 155 -130 128 c 1,6,7
 -44 173 -44 173 -28 206 c 1,8,9
 -77 265 -77 265 -77 304 c 0,10,11
 -77 341 -77 341 -29 400.5 c 128,-1,12
 19 460 19 460 54 460 c 0,13,14
 132 460 132 460 132 374 c 256,15,16
 132 288 132 288 91 241 c 1,17,18
 119 234 119 234 140 228 c 1,19,20
 144 220 144 220 144 206 c 0,21,22
 144 159 144 159 119 136 c 1,23,24
 72 148 72 148 48 153 c 1,25,26
 -126 21 -126 21 -235 9 c 1,27,-1
 -255 62 l 1,28,-1
 -178 103 l 1,29,30
 -176 128 -176 128 -176 146 c 0,31,32
 -176 181 -176 181 -202 181 c 0,33,34
 -223 181 -223 181 -249 161 c 1,35,-1
 -272 200 l 1,0,1
-12 318 m 0,36,37
 -12 304 -12 304 4.5 282.5 c 128,-1,38
 21 261 21 261 35 261 c 0,39,40
 48 261 48 261 62 294 c 0,41,42
 74 325 74 325 74 341 c 0,43,44
 74 384 74 384 27 384 c 0,45,46
 -12 384 -12 384 -12 318 c 0,36,37
EndSplineSet
EndChar

StartChar: afii57456
Encoding: 1616 1616 432
Width: 0
GlyphClass: 4
Flags: W
AnchorPoint: "Anchor-3" 0 0 mark 0
AnchorPoint: "Anchor-1" 0 0 mark 0
LayerCount: 2
Fore
SplineSet
-245 109 m 1,0,-1
 205 347 l 1,1,-1
 205 248 l 1,2,-1
 -245 17 l 1,3,-1
 -245 109 l 1,0,-1
EndSplineSet
EndChar

StartChar: afii57457
Encoding: 1617 1617 433
Width: 0
GlyphClass: 4
Flags: W
AnchorPoint: "Anchor-2" 0 0 mark 0
AnchorPoint: "Anchor-0" 0 0 mark 0
LayerCount: 2
Fore
SplineSet
-237 122 m 0,0,1
 -237 288 -237 288 -164 288 c 1,2,-1
 -149 286 l 1,3,4
 -155 234 -155 234 -155 202 c 0,5,6
 -155 130 -155 130 -125 130 c 0,7,8
 -65 130 -65 130 -45 210 c 1,9,-1
 -26 329 l 1,10,-1
 39 359 l 1,11,-1
 47 275 l 1,12,13
 60 220 60 220 99 220 c 0,14,15
 162 220 162 220 162 410 c 1,16,-1
 217 433 l 1,17,18
 240 361 240 361 240 273 c 0,19,20
 240 86 240 86 121 86 c 0,21,22
 60 86 60 86 22 122 c 1,23,24
 -8 72 -8 72 -49 33.5 c 128,-1,25
 -90 -5 -90 -5 -140 -1.5 c 128,-1,26
 -190 2 -190 2 -217 42 c 1,27,28
 -237 83 -237 83 -237 122 c 0,0,1
EndSplineSet
EndChar

StartChar: afii57458
Encoding: 1618 1618 434
Width: 0
GlyphClass: 4
Flags: W
AnchorPoint: "Anchor-2" 0 0 mark 0
AnchorPoint: "Anchor-0" 0 0 mark 0
LayerCount: 2
Fore
SplineSet
-149 102 m 0,0,1
 -149 151 -149 151 -112 237 c 0,2,3
 -73 336 -73 336 -30 336 c 0,4,5
 44 336 44 336 85 272 c 0,6,7
 124 217 124 217 124 139 c 0,8,9
 124 0 124 0 -22 0 c 0,10,11
 -149 0 -149 0 -149 102 c 0,0,1
-81 127 m 0,12,13
 -81 92 -81 92 -14 92 c 0,14,15
 76 92 76 92 76 131 c 0,16,17
 76 217 76 217 -30 217 c 0,18,19
 -53 217 -53 217 -67 180 c 0,20,21
 -81 147 -81 147 -81 127 c 0,12,13
EndSplineSet
EndChar

StartChar: exclam
Encoding: 33 33 437
Width: 487
GlyphClass: 2
Flags: W
LayerCount: 2
Fore
SplineSet
262 1483 m 1,0,1
 305 1096 305 1096 317 774 c 1,2,3
 317 582 317 582 272 410 c 1,4,-1
 104 1239 l 1,5,-1
 262 1483 l 1,0,1
272 272 m 1,6,-1
 428 158 l 1,7,-1
 305 18 l 1,8,-1
 158 119 l 1,9,-1
 272 272 l 1,6,-1
EndSplineSet
EndChar

StartChar: afii64060
Encoding: 64830 64830 438
Width: 997
GlyphClass: 2
Flags: W
LayerCount: 2
Fore
SplineSet
358 700 m 0,0,1
 358 1212 358 1212 733 1716 c 1,2,-1
 866 1716 l 1,3,4
 711 1446 711 1446 635 1235 c 1,5,6
 553 977 553 977 553 700 c 0,7,8
 553 197 553 197 866 -311 c 1,9,-1
 733 -311 l 1,10,11
 358 166 358 166 358 700 c 0,0,1
EndSplineSet
EndChar

StartChar: afii64061
Encoding: 64831 64831 439
Width: 997
GlyphClass: 2
Flags: W
LayerCount: 2
Fore
SplineSet
358 -311 m 1,0,1
 674 197 674 197 674 700 c 0,2,3
 674 977 674 977 592 1235 c 1,4,5
 520 1446 520 1446 358 1716 c 1,6,-1
 494 1716 l 1,7,8
 866 1212 866 1212 866 700 c 0,9,10
 866 166 866 166 494 -311 c 1,11,-1
 358 -311 l 1,12,-1
 358 -311 l 1,0,1
EndSplineSet
EndChar

StartChar: afii62821
Encoding: 65252 65252 440
Width: 883
GlyphClass: 2
Flags: W
AnchorPoint: "Anchor-3" 420 -570 basechar 0
AnchorPoint: "Anchor-2" 405 795 basechar 0
LayerCount: 2
Fore
SplineSet
-57 199 m 1,0,1
 111 219 111 219 217 317 c 0,2,3
 244 344 244 344 336 462 c 128,-1,4
 428 580 428 580 496 580 c 0,5,6
 600 580 600 580 652.5 488.5 c 128,-1,7
 705 397 705 397 705 289 c 0,8,9
 705 240 705 240 698 203 c 1,10,-1
 899 203 l 1,11,-1
 899 0 l 1,12,-1
 592 0 l 1,13,14
 354 61 354 61 231 225 c 1,15,16
 219 127 219 127 143.5 64.5 c 128,-1,17
 68 2 68 2 -12 0 c 2,18,-1
 -57 -2 l 1,19,-1
 -57 199 l 1,0,1
324 344 m 1,20,21
 442 217 442 217 596 152 c 1,22,23
 629 197 629 197 629 256 c 256,24,25
 629 315 629 315 594 375.5 c 128,-1,26
 559 436 559 436 487 463 c 1,27,28
 451 463 451 463 393.5 423 c 128,-1,29
 336 383 336 383 324 344 c 1,20,21
EndSplineSet
EndChar

StartChar: uni25CC
Encoding: 9676 9676 441
Width: 911
Flags: W
AnchorPoint: "Anchor-3" 495 -540 basechar 0
AnchorPoint: "Anchor-2" 420 1035 basechar 0
LayerCount: 2
Fore
SplineSet
771 629 m 256,0,1
 771 592 771 592 734 592 c 0,2,3
 695 592 695 592 695 629 c 256,4,5
 695 666 695 666 734 666 c 0,6,7
 771 666 771 666 771 629 c 256,0,1
658 703 m 0,8,9
 658 666 658 666 621 666 c 0,10,11
 582 666 582 666 582 703 c 0,12,13
 582 742 582 742 621 742 c 0,14,15
 658 742 658 742 658 703 c 0,8,9
847 516 m 0,16,17
 847 477 847 477 808 477 c 0,18,19
 771 477 771 477 771 516 c 0,20,21
 771 553 771 553 810 553 c 0,22,23
 847 553 847 553 847 516 c 0,16,17
873 384 m 256,24,25
 873 347 873 347 836 347 c 0,26,27
 797 347 797 347 797 384 c 256,28,29
 797 421 797 421 836 421 c 0,30,31
 873 421 873 421 873 384 c 256,24,25
525 731 m 0,32,33
 525 692 525 692 488 692 c 256,34,35
 451 692 451 692 451 731 c 0,36,37
 451 768 451 768 488 768 c 256,38,39
 525 768 525 768 525 731 c 0,32,33
847 251 m 0,40,41
 847 214 847 214 808 214 c 0,42,43
 771 214 771 214 771 251 c 0,44,45
 771 290 771 290 808 290 c 0,46,47
 847 290 847 290 847 251 c 0,40,41
394 703 m 0,48,49
 394 666 394 666 356 666 c 0,50,51
 319 666 319 666 319 703 c 0,52,53
 319 742 319 742 356 742 c 0,54,55
 394 742 394 742 394 703 c 0,48,49
282 629 m 256,56,57
 282 592 282 592 243 592 c 0,58,59
 206 592 206 592 206 627 c 0,60,61
 206 666 206 666 243 666 c 0,62,63
 282 666 282 666 282 629 c 256,56,57
771 138 m 0,64,65
 771 101 771 101 734 101 c 256,66,67
 697 101 697 101 697 138 c 0,68,69
 697 177 697 177 734 177 c 256,70,71
 771 177 771 177 771 138 c 0,64,65
658 64 m 0,72,73
 658 27 658 27 621 27 c 256,74,75
 584 27 584 27 584 64 c 0,76,77
 584 103 584 103 621 103 c 256,78,79
 658 103 658 103 658 64 c 0,72,73
206 516 m 0,80,81
 206 477 206 477 171 477 c 0,82,83
 132 477 132 477 132 516 c 0,84,85
 132 553 132 553 169 553 c 256,86,87
 206 553 206 553 206 516 c 0,80,81
180 384 m 256,88,89
 180 347 180 347 143 347 c 0,90,91
 104 347 104 347 104 384 c 256,92,93
 104 421 104 421 143 421 c 0,94,95
 180 421 180 421 180 384 c 256,88,89
525 38 m 0,96,97
 525 -1 525 -1 488 -1 c 256,98,99
 451 -1 451 -1 451 38 c 0,100,101
 451 75 451 75 488 75 c 256,102,103
 525 75 525 75 525 38 c 0,96,97
394 66 m 0,104,105
 394 27 394 27 356 27 c 0,106,107
 319 27 319 27 319 64 c 0,108,109
 319 103 319 103 356 103 c 0,110,111
 394 103 394 103 394 66 c 0,104,105
206 251 m 0,112,113
 206 214 206 214 169 214 c 256,114,115
 132 214 132 214 132 251 c 0,116,117
 132 290 132 290 169 290 c 256,118,119
 206 290 206 290 206 251 c 0,112,113
282 138 m 0,120,121
 282 101 282 101 245 101 c 0,122,123
 206 101 206 101 206 138 c 0,124,125
 206 177 206 177 243 177 c 0,126,127
 282 177 282 177 282 138 c 0,120,121
EndSplineSet
EndChar

StartChar: afii62819
Encoding: 65246 65246 442
Width: 1546
GlyphClass: 2
Flags: W
AnchorPoint: "Anchor-3" 570 -1185 basechar 0
AnchorPoint: "Anchor-2" 840 1425 basechar 0
LayerCount: 2
Fore
SplineSet
186 -125 m 0,0,1
 186 113 186 113 377 258 c 1,2,3
 289 117 289 117 289 -18 c 0,4,5
 289 -211 289 -211 415 -316.5 c 128,-1,6
 541 -422 541 -422 717 -415 c 128,-1,7
 893 -408 893 -408 1027 -316.5 c 128,-1,8
 1161 -225 1161 -225 1161 -94 c 2,9,-1
 1128 1110 l 2,10,11
 1128 1137 1128 1137 1097.5 1217.5 c 128,-1,12
 1067 1298 1067 1298 1067 1335 c 0,13,14
 1067 1378 1067 1378 1217 1473 c 1,15,16
 1217 1348 1217 1348 1321 1276 c 1,17,18
 1286 1239 1286 1239 1262 1116 c 1,19,-1
 1272 309 l 1,20,21
 1294 229 1294 229 1398.5 214 c 128,-1,22
 1503 199 1503 199 1559 203 c 1,23,-1
 1559 0 l 1,24,25
 1452 -2 1452 -2 1372 29.5 c 128,-1,26
 1292 61 1292 61 1272 106 c 1,27,-1
 1276 -45 l 1,28,29
 1276 -299 1276 -299 1082.5 -466 c 128,-1,30
 889 -633 889 -633 676 -617.5 c 128,-1,31
 463 -602 463 -602 324.5 -476 c 128,-1,32
 186 -350 186 -350 186 -125 c 0,0,1
EndSplineSet
EndChar

StartChar: braceright
Encoding: 125 125 445
Width: 830
GlyphClass: 2
Flags: W
LayerCount: 2
Fore
SplineSet
150 1172 m 1,0,-1
 150 1202 l 1,1,2
 290 1183 290 1183 378 1088 c 128,-1,3
 466 993 466 993 466 876 c 0,4,5
 466 815 466 815 447.5 735 c 128,-1,6
 429 655 429 655 429 611 c 0,7,8
 429 549 429 549 479.5 496.5 c 128,-1,9
 530 444 530 444 621 432 c 1,10,-1
 621 397 l 1,11,12
 530 385 530 385 479.5 332.5 c 128,-1,13
 429 280 429 280 429 218 c 0,14,15
 429 174 429 174 447.5 93 c 128,-1,16
 466 12 466 12 466 -48 c 0,17,18
 466 -163 466 -163 378 -258.5 c 128,-1,19
 290 -354 290 -354 150 -374 c 1,20,-1
 150 -344 l 1,21,22
 248 -319 248 -319 294 -266 c 128,-1,23
 340 -213 340 -213 340 -148 c 0,24,25
 340 -99 340 -99 321 -17 c 128,-1,26
 302 65 302 65 302 121 c 0,27,28
 302 208 302 208 365 288.5 c 128,-1,29
 428 369 428 369 551 412 c 1,30,31
 429 458 429 458 365.5 539.5 c 128,-1,32
 302 621 302 621 302 707 c 0,33,34
 302 764 302 764 321 846 c 128,-1,35
 340 928 340 928 340 977 c 0,36,37
 340 1041 340 1041 294 1094.5 c 128,-1,38
 248 1148 248 1148 150 1172 c 1,0,-1
EndSplineSet
EndChar

StartChar: uni0656
Encoding: 1622 1622 452
Width: 0
GlyphClass: 4
Flags: W
AnchorPoint: "Anchor-3" 0 0 mark 0
AnchorPoint: "Anchor-1" 0 0 mark 0
LayerCount: 2
Fore
SplineSet
-30 325 m 2,0,1
 -30 341 -30 341 49 402 c 1,2,-1
 49 67 l 1,3,4
 7 16 7 16 -30 0 c 1,5,-1
 -30 325 l 2,0,1
EndSplineSet
EndChar

StartChar: E005
Encoding: 65578 -1 470
Width: 476
GlyphClass: 3
Flags: W
LayerCount: 2
Fore
SplineSet
-43 0 m 1,0,-1
 -43 207 l 1,1,-1
 581 207 l 1,2,-1
 581 0 l 1,3,-1
 -43 0 l 1,0,-1
EndSplineSet
EndChar

StartChar: afii57470
Encoding: 1726 1726 480
Width: 958
Flags: W
AnchorPoint: "Anchor-3" 360 -480 basechar 0
AnchorPoint: "Anchor-2" 330 1155 basechar 0
LayerCount: 2
Fore
SplineSet
-20 203 m 1,0,-1
 8 203 l 1,1,2
 125 199 125 199 309 330 c 1,3,4
 199 422 199 422 178 475 c 1,5,6
 229 666 229 666 395 797 c 1,7,8
 385 985 385 985 416 995 c 1,9,10
 449 995 449 995 511 944 c 128,-1,11
 573 893 573 893 647 831 c 0,12,13
 944 569 944 569 944 365 c 0,14,15
 944 270 944 270 898 175 c 128,-1,16
 852 80 852 80 748 6 c 1,17,18
 711 59 711 59 606.5 124.5 c 128,-1,19
 502 190 502 190 444 219 c 1,20,21
 98 -8 98 -8 -20 0 c 1,22,-1
 -20 203 l 1,0,-1
799 180 m 1,23,24
 829 207 829 207 846.5 328 c 128,-1,25
 864 449 864 449 678 608 c 1,26,27
 707 508 707 508 567 332 c 1,28,-1
 799 180 l 1,23,24
440 414 m 1,29,30
 543 504 543 504 567.5 599 c 128,-1,31
 592 694 592 694 481 764 c 1,32,33
 332 662 332 662 332 516 c 1,34,-1
 440 414 l 1,29,30
EndSplineSet
Substitution2: "'medi' Medial Forms in Arabic lookup 3 subtable" afii62827
Substitution2: "'fina' Terminal Forms in Arabic lookup 2 subtable" afii62827
Substitution2: "'init' Initial Forms in Arabic lookup 1 subtable" afii57470
EndChar

StartChar: at
Encoding: 64 64 489
Width: 1594
Flags: W
LayerCount: 2
Fore
SplineSet
1189 809 m 1,0,-1
 1091 472 l 2,1,2
 1036 283 1036 283 1024 232 c 128,-1,3
 1012 181 1012 181 1012 151 c 0,4,5
 1012 125 1012 125 1030.5 105.5 c 128,-1,6
 1049 86 1049 86 1075 86 c 0,7,8
 1137 86 1137 86 1223.5 148 c 128,-1,9
 1310 210 1310 210 1372 349 c 128,-1,10
 1434 488 1434 488 1434 638 c 0,11,12
 1434 782 1434 782 1364 905 c 128,-1,13
 1294 1028 1294 1028 1167 1093 c 128,-1,14
 1040 1158 1040 1158 886 1158 c 0,15,16
 691 1158 691 1158 524 1054.5 c 128,-1,17
 357 951 357 951 259.5 757 c 128,-1,18
 162 563 162 563 162 353 c 0,19,20
 162 158 162 158 247.5 0 c 128,-1,21
 333 -158 333 -158 488.5 -240 c 128,-1,22
 644 -322 644 -322 823 -322 c 0,23,24
 1045 -322 1045 -322 1224.5 -203 c 128,-1,25
 1404 -84 1404 -84 1501 146 c 1,26,-1
 1551 146 l 1,27,28
 1475 -86 1475 -86 1275 -230 c 128,-1,29
 1075 -374 1075 -374 818 -374 c 0,30,31
 618 -374 618 -374 445.5 -279 c 128,-1,32
 273 -184 273 -184 178 -9.5 c 128,-1,33
 83 165 83 165 83 375 c 0,34,35
 83 598 83 598 187 791 c 128,-1,36
 291 984 291 984 480.5 1093 c 128,-1,37
 670 1202 670 1202 881 1202 c 0,38,39
 1056 1202 1056 1202 1196.5 1129.5 c 128,-1,40
 1337 1057 1337 1057 1411 918.5 c 128,-1,41
 1485 780 1485 780 1485 623 c 0,42,43
 1485 468 1485 468 1415.5 316.5 c 128,-1,44
 1346 165 1346 165 1240 95.5 c 128,-1,45
 1134 26 1134 26 1018 26 c 0,46,47
 954 26 954 26 921.5 56 c 128,-1,48
 889 86 889 86 889 142 c 0,49,50
 889 189 889 189 904 266 c 1,51,52
 780 115 780 115 704 70.5 c 128,-1,53
 628 26 628 26 571 26 c 0,54,55
 511 26 511 26 464.5 79.5 c 128,-1,56
 418 133 418 133 418 222 c 0,57,58
 418 344 418 344 497.5 496.5 c 128,-1,59
 577 649 577 649 709 744 c 0,60,61
 807 814 807 814 884 814 c 0,62,63
 940 814 940 814 978 785 c 128,-1,64
 1016 756 1016 756 1029 698 c 1,65,-1
 1057 791 l 1,66,-1
 1189 809 l 1,0,-1
893 775 m 0,67,68
 830 775 830 775 765 708 c 0,69,70
 670 611 670 611 602 444 c 0,71,72
 551 322 551 322 551 247 c 0,73,74
 551 194 551 194 581.5 161 c 128,-1,75
 612 128 612 128 649 128 c 0,76,77
 698 128 698 128 752 165 c 128,-1,78
 806 202 806 202 865 279.5 c 128,-1,79
 924 357 924 357 951 434 c 0,80,81
 999 568 999 568 999 653 c 0,82,83
 999 708 999 708 967.5 741.5 c 128,-1,84
 936 775 936 775 893 775 c 0,67,68
EndSplineSet
EndChar

StartChar: A
Encoding: 65 65 490
Width: 1250
Flags: W
LayerCount: 2
Fore
SplineSet
792 384 m 1,0,-1
 348 384 l 1,1,-1
 270 202 l 2,2,3
 242 136 242 136 242 104 c 0,4,5
 242 77 242 77 266.5 57 c 128,-1,6
 291 37 291 37 374 32 c 1,7,-1
 374 0 l 1,8,-1
 14 0 l 1,9,-1
 14 32 l 1,10,11
 85 44 85 44 106 64 c 0,12,13
 150 105 150 105 202 229 c 2,14,-1
 605 1172 l 1,15,-1
 634 1172 l 1,16,-1
 1033 218 l 2,17,18
 1082 104 1082 104 1121 70 c 128,-1,19
 1160 36 1160 36 1230 32 c 1,20,-1
 1230 0 l 1,21,-1
 778 0 l 1,22,-1
 778 32 l 1,23,24
 847 35 847 35 870.5 54.5 c 128,-1,25
 894 74 894 74 894 101 c 0,26,27
 894 138 894 138 861 218 c 2,28,-1
 792 384 l 1,0,-1
767 445 m 1,29,-1
 574 909 l 1,30,-1
 374 445 l 1,31,-1
 767 445 l 1,29,-1
EndSplineSet
EndChar

StartChar: B
Encoding: 66 66 491
Width: 1155
Flags: W
LayerCount: 2
Fore
SplineSet
799 585 m 1,0,1
 919 560 919 560 978 503 c 0,2,3
 1060 426 1060 426 1060 313 c 0,4,5
 1060 228 1060 228 1005.5 150 c 128,-1,6
 951 72 951 72 856.5 36 c 128,-1,7
 762 0 762 0 569 0 c 2,8,-1
 28 0 l 1,9,-1
 28 32 l 1,10,-1
 72 32 l 2,11,12
 143 32 143 32 175 77 c 0,13,14
 194 106 194 106 194 202 c 2,15,-1
 194 943 l 2,16,17
 194 1050 194 1050 170 1077 c 0,18,19
 137 1114 137 1114 72 1114 c 2,20,-1
 28 1114 l 1,21,-1
 28 1146 l 1,22,-1
 524 1146 l 2,23,24
 662 1146 662 1146 745 1126 c 0,25,26
 872 1095 872 1095 939.5 1017.5 c 128,-1,27
 1007 940 1007 940 1007 840 c 0,28,29
 1007 754 1007 754 954.5 686 c 128,-1,30
 902 618 902 618 799 585 c 1,0,1
357 630 m 1,31,32
 387 624 387 624 427.5 621.5 c 128,-1,33
 468 619 468 619 517 619 c 0,34,35
 640 619 640 619 702 645 c 128,-1,36
 764 671 764 671 797 726 c 128,-1,37
 830 781 830 781 830 847 c 0,38,39
 830 947 830 947 747.5 1018 c 128,-1,40
 665 1089 665 1089 509 1089 c 0,41,42
 424 1089 424 1089 357 1071 c 1,43,-1
 357 630 l 1,31,32
357 83 m 1,44,45
 454 60 454 60 550 60 c 0,46,47
 703 60 703 60 783.5 128.5 c 128,-1,48
 864 197 864 197 864 299 c 0,49,50
 864 365 864 365 827.5 427 c 128,-1,51
 791 489 791 489 709 524.5 c 128,-1,52
 627 560 627 560 506 560 c 0,53,54
 454 560 454 560 416.5 558 c 128,-1,55
 379 556 379 556 357 553 c 1,56,-1
 357 83 l 1,44,45
EndSplineSet
EndChar

StartChar: C
Encoding: 67 67 492
Width: 1155
Flags: W
LayerCount: 2
Fore
SplineSet
1041 1172 m 1,0,-1
 1067 782 l 1,1,-1
 1041 782 l 1,2,3
 989 957 989 957 892.5 1034 c 128,-1,4
 796 1111 796 1111 659 1111 c 0,5,6
 545 1111 545 1111 453 1052.5 c 128,-1,7
 361 994 361 994 308 867.5 c 128,-1,8
 255 741 255 741 255 554 c 0,9,10
 255 398 255 398 305 284 c 128,-1,11
 355 170 355 170 455 109 c 128,-1,12
 555 48 555 48 683 48 c 0,13,14
 796 48 796 48 880.5 95.5 c 128,-1,15
 965 143 965 143 1067 285 c 1,16,-1
 1094 268 l 1,17,18
 1008 116 1008 116 893 45 c 128,-1,19
 778 -26 778 -26 620 -26 c 0,20,21
 336 -26 336 -26 180 185 c 0,22,23
 62 342 62 342 62 555 c 0,24,25
 62 727 62 727 139 870.5 c 128,-1,26
 216 1014 216 1014 351 1093 c 128,-1,27
 486 1172 486 1172 645 1172 c 0,28,29
 770 1172 770 1172 891 1111 c 0,30,31
 926 1092 926 1092 941 1092 c 0,32,33
 964 1092 964 1092 981 1109 c 0,34,35
 1003 1131 1003 1131 1012 1172 c 1,36,-1
 1041 1172 l 1,0,-1
EndSplineSet
EndChar

StartChar: D
Encoding: 68 68 493
Width: 1250
Flags: W
LayerCount: 2
Fore
SplineSet
30 0 m 1,0,-1
 30 32 l 1,1,-1
 73 32 l 2,2,3
 146 32 146 32 175 78 c 0,4,5
 194 106 194 106 194 202 c 2,6,-1
 194 943 l 2,7,8
 194 1050 194 1050 171 1077 c 0,9,10
 137 1114 137 1114 73 1114 c 2,11,-1
 30 1114 l 1,12,-1
 30 1146 l 1,13,-1
 496 1146 l 2,14,15
 753 1146 753 1146 886.5 1087.5 c 128,-1,16
 1020 1029 1020 1029 1102 893 c 128,-1,17
 1184 757 1184 757 1184 579 c 0,18,19
 1184 340 1184 340 1038 180 c 0,20,21
 876 0 876 0 542 0 c 2,22,-1
 30 0 l 1,0,-1
357 83 m 1,23,24
 464 59 464 59 537 59 c 0,25,26
 733 59 733 59 862 196.5 c 128,-1,27
 991 334 991 334 991 570 c 0,28,29
 991 808 991 808 862 945 c 128,-1,30
 733 1082 733 1082 530 1082 c 0,31,32
 454 1082 454 1082 357 1057 c 1,33,-1
 357 83 l 1,23,24
EndSplineSet
EndChar

StartChar: E
Encoding: 69 69 494
Width: 1057
Flags: W
LayerCount: 2
Fore
SplineSet
361 1083 m 1,0,-1
 361 630 l 1,1,-1
 613 630 l 2,2,3
 712 630 712 630 744 660 c 0,4,5
 788 699 788 699 793 796 c 1,6,-1
 825 796 l 1,7,-1
 825 398 l 1,8,-1
 793 398 l 1,9,10
 781 481 781 481 770 505 c 0,11,12
 754 534 754 534 720 551 c 128,-1,13
 686 568 686 568 613 568 c 2,14,-1
 361 568 l 1,15,-1
 361 191 l 2,16,17
 361 115 361 115 368 99 c 128,-1,18
 375 83 375 83 391.5 72.5 c 128,-1,19
 408 62 408 62 456 62 c 2,20,-1
 650 62 l 2,21,22
 748 62 748 62 791.5 76 c 128,-1,23
 835 90 835 90 876 128 c 0,24,25
 928 181 928 181 983 287 c 1,26,-1
 1017 287 l 1,27,-1
 919 0 l 1,28,-1
 36 0 l 1,29,-1
 36 32 l 1,30,-1
 76 32 l 2,31,32
 116 32 116 32 153 51 c 0,33,34
 180 64 180 64 190 91 c 128,-1,35
 200 118 200 118 200 202 c 2,36,-1
 200 946 l 2,37,38
 200 1055 200 1055 178 1081 c 0,39,40
 147 1114 147 1114 76 1114 c 2,41,-1
 36 1114 l 1,42,-1
 36 1146 l 1,43,-1
 919 1146 l 1,44,-1
 931 894 l 1,45,-1
 898 894 l 1,46,47
 881 986 881 986 859.5 1019 c 128,-1,48
 838 1052 838 1052 796 1071 c 0,49,50
 761 1083 761 1083 676 1083 c 2,51,-1
 361 1083 l 1,0,-1
EndSplineSet
EndChar

StartChar: F
Encoding: 70 70 495
Width: 962
Flags: W
LayerCount: 2
Fore
SplineSet
354 1083 m 1,0,-1
 354 633 l 1,1,-1
 563 633 l 2,2,3
 634 633 634 633 667.5 664.5 c 128,-1,4
 701 696 701 696 712 790 c 1,5,-1
 744 790 l 1,6,-1
 744 402 l 1,7,-1
 712 402 l 1,8,9
 712 469 712 469 695 500.5 c 128,-1,10
 678 532 678 532 649 547.5 c 128,-1,11
 620 563 620 563 563 563 c 2,12,-1
 354 563 l 1,13,-1
 354 202 l 2,14,15
 354 116 354 116 365 88 c 0,16,17
 374 67 374 67 400 52 c 0,18,19
 437 32 437 32 479 32 c 2,20,-1
 519 32 l 1,21,-1
 519 0 l 1,22,-1
 27 0 l 1,23,-1
 27 32 l 1,24,-1
 69 32 l 2,25,26
 139 32 139 32 171 73 c 0,27,28
 192 99 192 99 192 202 c 2,29,-1
 192 943 l 2,30,31
 192 1030 192 1030 180 1058 c 0,32,33
 172 1079 172 1079 146 1094 c 0,34,35
 110 1114 110 1114 69 1114 c 2,36,-1
 27 1114 l 1,37,-1
 27 1146 l 1,38,-1
 881 1146 l 1,39,-1
 891 893 l 1,40,-1
 862 893 l 1,41,42
 840 973 840 973 810.5 1011.5 c 128,-1,43
 781 1050 781 1050 738.5 1066.5 c 128,-1,44
 696 1083 696 1083 606 1083 c 2,45,-1
 354 1083 l 1,0,-1
EndSplineSet
EndChar

StartChar: G
Encoding: 71 71 496
Width: 1250
Flags: W
LayerCount: 2
Fore
SplineSet
1062 1172 m 1,0,-1
 1092 810 l 1,1,-1
 1062 810 l 1,2,3
 1017 945 1017 945 946 1014 c 0,4,5
 844 1113 844 1113 683 1113 c 0,6,7
 465 1113 465 1113 350 940 c 0,8,9
 255 793 255 793 255 591 c 0,10,11
 255 428 255 428 318.5 293 c 128,-1,12
 382 158 382 158 484.5 95 c 128,-1,13
 587 32 587 32 695 32 c 0,14,15
 759 32 759 32 817.5 47.5 c 128,-1,16
 876 63 876 63 931 95 c 1,17,-1
 931 426 l 2,18,19
 931 512 931 512 918.5 538.5 c 128,-1,20
 906 565 906 565 878.5 579 c 128,-1,21
 851 593 851 593 781 593 c 1,22,-1
 781 625 l 1,23,-1
 1225 625 l 1,24,-1
 1225 593 l 1,25,-1
 1204 593 l 2,26,27
 1139 593 1139 593 1113 549 c 0,28,29
 1096 517 1096 517 1096 426 c 2,30,-1
 1096 75 l 1,31,32
 999 23 999 23 904.5 -1.5 c 128,-1,33
 810 -26 810 -26 695 -26 c 0,34,35
 363 -26 363 -26 190 187 c 0,36,37
 62 347 62 347 62 555 c 0,38,39
 62 707 62 707 133 845 c 0,40,41
 220 1009 220 1009 370 1098 c 0,42,43
 496 1172 496 1172 667 1172 c 0,44,45
 730 1172 730 1172 781 1161.5 c 128,-1,46
 832 1151 832 1151 926 1118 c 0,47,48
 973 1099 973 1099 989 1099 c 256,49,50
 1005 1099 1005 1099 1017 1114 c 128,-1,51
 1029 1129 1029 1129 1030 1172 c 1,52,-1
 1062 1172 l 1,0,-1
EndSplineSet
EndChar

StartChar: H
Encoding: 72 72 497
Width: 1250
Flags: W
LayerCount: 2
Fore
SplineSet
356 614 m 1,0,-1
 888 614 l 1,1,-1
 888 942 l 2,2,3
 888 1030 888 1030 876 1058 c 0,4,5
 868 1079 868 1079 841 1094 c 0,6,7
 804 1114 804 1114 765 1114 c 2,8,-1
 724 1114 l 1,9,-1
 724 1146 l 1,10,-1
 1214 1146 l 1,11,-1
 1214 1114 l 1,12,-1
 1173 1114 l 2,13,14
 1134 1114 1134 1114 1096 1095 c 0,15,16
 1070 1081 1070 1081 1060 1054 c 0,17,18
 1050 1025 1050 1025 1050 942 c 2,19,-1
 1050 202 l 2,20,21
 1050 115 1050 115 1061 88 c 0,22,23
 1071 65 1071 65 1096 52 c 0,24,25
 1132 32 1132 32 1173 32 c 2,26,-1
 1214 32 l 1,27,-1
 1214 0 l 1,28,-1
 724 0 l 1,29,-1
 724 32 l 1,30,-1
 765 32 l 2,31,32
 835 32 835 32 867 73 c 0,33,34
 888 99 888 99 888 202 c 2,35,-1
 888 551 l 1,36,-1
 356 551 l 1,37,-1
 356 202 l 2,38,39
 356 115 356 115 366 88 c 0,40,41
 375 67 375 67 402 52 c 0,42,43
 438 32 438 32 480 32 c 2,44,-1
 521 32 l 1,45,-1
 521 0 l 1,46,-1
 30 0 l 1,47,-1
 30 32 l 1,48,-1
 70 32 l 2,49,50
 142 32 142 32 173 73 c 0,51,52
 194 99 194 99 194 202 c 2,53,-1
 194 942 l 2,54,55
 194 1030 194 1030 183 1058 c 0,56,57
 173 1079 173 1079 148 1094 c 0,58,59
 111 1114 111 1114 70 1114 c 2,60,-1
 30 1114 l 1,61,-1
 30 1146 l 1,62,-1
 521 1146 l 1,63,-1
 521 1114 l 1,64,-1
 480 1114 l 2,65,66
 439 1114 439 1114 402 1095 c 0,67,68
 376 1082 376 1082 365 1054 c 0,69,70
 356 1026 356 1026 356 942 c 2,71,-1
 356 614 l 1,0,-1
EndSplineSet
EndChar

StartChar: I
Encoding: 73 73 498
Width: 576
Flags: W
LayerCount: 2
Fore
SplineSet
534 32 m 1,0,-1
 534 0 l 1,1,-1
 43 0 l 1,2,-1
 43 32 l 1,3,-1
 84 32 l 2,4,5
 154 32 154 32 187 73 c 0,6,7
 207 99 207 99 207 202 c 2,8,-1
 207 943 l 2,9,10
 207 1030 207 1030 196 1058 c 0,11,12
 188 1079 188 1079 162 1094 c 0,13,14
 125 1114 125 1114 84 1114 c 2,15,-1
 43 1114 l 1,16,-1
 43 1146 l 1,17,-1
 534 1146 l 1,18,-1
 534 1114 l 1,19,-1
 492 1114 l 2,20,21
 422 1114 422 1114 391 1073 c 0,22,23
 370 1045 370 1045 370 943 c 2,24,-1
 370 202 l 2,25,26
 370 116 370 116 380 88 c 0,27,28
 389 67 389 67 416 52 c 0,29,30
 452 32 452 32 492 32 c 2,31,-1
 534 32 l 1,0,-1
EndSplineSet
EndChar

StartChar: J
Encoding: 74 74 499
Width: 674
Flags: W
LayerCount: 2
Fore
SplineSet
172 1114 m 1,0,-1
 172 1146 l 1,1,-1
 664 1146 l 1,2,-1
 664 1114 l 1,3,-1
 622 1114 l 2,4,5
 551 1114 551 1114 519 1073 c 0,6,7
 500 1045 500 1045 500 943 c 2,8,-1
 500 382 l 2,9,10
 500 253 500 253 471.5 173 c 128,-1,11
 443 93 443 93 373.5 33.5 c 128,-1,12
 304 -26 304 -26 206 -26 c 0,13,14
 127 -26 127 -26 81.5 13.5 c 128,-1,15
 36 53 36 53 36 104 c 0,16,17
 36 144 36 144 57 165 c 0,18,19
 84 192 84 192 121 192 c 0,20,21
 149 192 149 192 170.5 174.5 c 128,-1,22
 192 157 192 157 225 79 c 0,23,24
 244 33 244 33 275 33 c 0,25,26
 297 33 297 33 317 61.5 c 128,-1,27
 337 90 337 90 337 160 c 2,28,-1
 337 943 l 2,29,30
 337 1030 337 1030 326 1058 c 0,31,32
 318 1079 318 1079 290 1094 c 0,33,34
 254 1114 254 1114 213 1114 c 2,35,-1
 172 1114 l 1,0,-1
EndSplineSet
EndChar

StartChar: K
Encoding: 75 75 500
Width: 1250
Flags: W
LayerCount: 2
Fore
SplineSet
517 635 m 1,0,-1
 940 216 l 2,1,2
 1044 112 1044 112 1117 74 c 128,-1,3
 1190 36 1190 36 1264 32 c 1,4,-1
 1264 0 l 1,5,-1
 719 0 l 1,6,-1
 719 32 l 1,7,8
 767 32 767 32 789 48 c 128,-1,9
 811 64 811 64 811 84 c 0,10,11
 811 105 811 105 803.5 121 c 128,-1,12
 796 137 796 137 750 180 c 2,13,-1
 355 572 l 1,14,-1
 355 202 l 2,15,16
 355 116 355 116 365 88 c 0,17,18
 374 67 374 67 401 52 c 0,19,20
 437 32 437 32 479 32 c 2,21,-1
 517 32 l 1,22,-1
 517 0 l 1,23,-1
 28 0 l 1,24,-1
 28 32 l 1,25,-1
 70 32 l 2,26,27
 141 32 141 32 172 73 c 0,28,29
 192 99 192 99 192 202 c 2,30,-1
 192 943 l 2,31,32
 192 1030 192 1030 181 1058 c 0,33,34
 173 1079 173 1079 147 1094 c 0,35,36
 110 1114 110 1114 70 1114 c 2,37,-1
 28 1114 l 1,38,-1
 28 1146 l 1,39,-1
 517 1146 l 1,40,-1
 517 1114 l 1,41,-1
 479 1114 l 2,42,43
 438 1114 438 1114 401 1095 c 0,44,45
 375 1082 375 1082 365 1055 c 128,-1,46
 355 1028 355 1028 355 943 c 2,47,-1
 355 592 l 1,48,49
 371 608 371 608 471 699 c 0,50,51
 722 929 722 929 774 1007 c 0,52,53
 796 1040 796 1040 796 1066 c 0,54,55
 796 1084 796 1084 778.5 1099 c 128,-1,56
 761 1114 761 1114 719 1114 c 2,57,-1
 693 1114 l 1,58,-1
 693 1146 l 1,59,-1
 1113 1146 l 1,60,-1
 1113 1114 l 1,61,62
 1076 1113 1076 1113 1046 1104 c 128,-1,63
 1016 1095 1016 1095 972 1068 c 128,-1,64
 928 1041 928 1041 864 982 c 0,65,66
 845 965 845 965 692 809 c 2,67,-1
 517 635 l 1,0,-1
EndSplineSet
EndChar

StartChar: L
Encoding: 76 76 501
Width: 1057
Flags: W
LayerCount: 2
Fore
SplineSet
992 317 m 1,0,-1
 1020 311 l 1,1,-1
 922 0 l 1,2,-1
 35 0 l 1,3,-1
 35 32 l 1,4,-1
 78 32 l 2,5,6
 150 32 150 32 181 78 c 0,7,8
 200 106 200 106 200 204 c 2,9,-1
 200 943 l 2,10,11
 200 1050 200 1050 175 1077 c 0,12,13
 143 1114 143 1114 78 1114 c 2,14,-1
 35 1114 l 1,15,-1
 35 1146 l 1,16,-1
 554 1146 l 1,17,-1
 554 1114 l 1,18,19
 463 1115 463 1115 426 1097 c 128,-1,20
 389 1079 389 1079 375 1052 c 128,-1,21
 361 1025 361 1025 361 923 c 2,22,-1
 361 204 l 2,23,24
 361 133 361 133 375 107 c 0,25,26
 385 90 385 90 406.5 81.5 c 128,-1,27
 428 73 428 73 539 73 c 2,28,-1
 622 73 l 2,29,30
 754 73 754 73 807 92.5 c 128,-1,31
 860 112 860 112 904.5 161 c 128,-1,32
 949 210 949 210 992 317 c 1,0,-1
EndSplineSet
EndChar

StartChar: M
Encoding: 77 77 502
Width: 1538
Flags: W
LayerCount: 2
Fore
SplineSet
708 0 m 1,0,-1
 265 964 l 1,1,-1
 265 199 l 2,2,3
 265 93 265 93 289 67 c 0,4,5
 319 32 319 32 386 32 c 2,6,-1
 428 32 l 1,7,-1
 428 0 l 1,8,-1
 28 0 l 1,9,-1
 28 32 l 1,10,-1
 70 32 l 2,11,12
 142 32 142 32 172 75 c 0,13,14
 191 102 191 102 191 199 c 2,15,-1
 191 947 l 2,16,17
 191 1023 191 1023 174 1057 c 0,18,19
 163 1082 163 1082 131 1098 c 128,-1,20
 99 1114 99 1114 28 1114 c 1,21,-1
 28 1146 l 1,22,-1
 353 1146 l 1,23,-1
 769 249 l 1,24,-1
 1177 1146 l 1,25,-1
 1501 1146 l 1,26,-1
 1501 1114 l 1,27,-1
 1463 1114 l 2,28,29
 1389 1114 1389 1114 1358 1071 c 0,30,31
 1340 1044 1340 1044 1340 947 c 2,32,-1
 1340 199 l 2,33,34
 1340 93 1340 93 1363 67 c 0,35,36
 1395 32 1395 32 1463 32 c 2,37,-1
 1501 32 l 1,38,-1
 1501 0 l 1,39,-1
 1016 0 l 1,40,-1
 1016 32 l 1,41,-1
 1056 32 l 2,42,43
 1130 32 1130 32 1160 75 c 0,44,45
 1177 102 1177 102 1177 199 c 2,46,-1
 1177 964 l 1,47,-1
 736 0 l 1,48,-1
 708 0 l 1,0,-1
EndSplineSet
EndChar

StartChar: N
Encoding: 78 78 503
Width: 1250
Flags: W
LayerCount: 2
Fore
SplineSet
-23 1146 m 1,0,-1
 289 1146 l 1,1,-1
 988 286 l 1,2,-1
 988 947 l 2,3,4
 988 1052 988 1052 965 1079 c 0,5,6
 934 1114 934 1114 866 1114 c 2,7,-1
 825 1114 l 1,8,-1
 825 1146 l 1,9,-1
 1225 1146 l 1,10,-1
 1225 1114 l 1,11,-1
 1184 1114 l 2,12,13
 1112 1114 1112 1114 1082 1071 c 0,14,15
 1062 1044 1062 1044 1062 947 c 2,16,-1
 1062 -19 l 1,17,-1
 1033 -19 l 1,18,-1
 276 904 l 1,19,-1
 276 199 l 2,20,21
 276 93 276 93 300 67 c 0,22,23
 332 32 332 32 400 32 c 2,24,-1
 439 32 l 1,25,-1
 439 0 l 1,26,-1
 40 0 l 1,27,-1
 40 32 l 1,28,-1
 80 32 l 2,29,30
 154 32 154 32 184 75 c 0,31,32
 202 102 202 102 202 199 c 2,33,-1
 202 994 l 1,34,35
 153 1054 153 1054 127 1072.5 c 128,-1,36
 101 1091 101 1091 52 1107 c 0,37,38
 27 1114 27 1114 -23 1114 c 1,39,-1
 -23 1146 l 1,0,-1
EndSplineSet
EndChar

StartChar: O
Encoding: 79 79 504
Width: 1250
Flags: W
LayerCount: 2
Fore
SplineSet
633 1172 m 0,0,1
 855 1172 855 1172 1019 1002.5 c 128,-1,2
 1183 833 1183 833 1183 580 c 0,3,4
 1183 319 1183 319 1018.5 146.5 c 128,-1,5
 854 -26 854 -26 619 -26 c 0,6,7
 382 -26 382 -26 222 142.5 c 128,-1,8
 62 311 62 311 62 576 c 0,9,10
 62 850 62 850 247 1023 c 0,11,12
 407 1172 407 1172 633 1172 c 0,0,1
617 1110 m 0,13,14
 463 1110 463 1110 370 996 c 0,15,16
 254 854 254 854 254 581 c 0,17,18
 254 300 254 300 374 149 c 0,19,20
 466 33 466 33 618 33 c 0,21,22
 780 33 780 33 884.5 159 c 128,-1,23
 989 285 989 285 989 556 c 0,24,25
 989 851 989 851 873 994 c 0,26,27
 781 1110 781 1110 617 1110 c 0,13,14
EndSplineSet
EndChar

StartChar: P
Encoding: 80 80 505
Width: 962
Flags: W
LayerCount: 2
Fore
SplineSet
355 537 m 1,0,-1
 355 202 l 2,1,2
 355 95 355 95 378 69 c 0,3,4
 411 32 411 32 475 32 c 2,5,-1
 519 32 l 1,6,-1
 519 0 l 1,7,-1
 28 0 l 1,8,-1
 28 32 l 1,9,-1
 72 32 l 2,10,11
 144 32 144 32 175 78 c 0,12,13
 192 105 192 105 192 202 c 2,14,-1
 192 943 l 2,15,16
 192 1051 192 1051 170 1077 c 0,17,18
 137 1114 137 1114 72 1114 c 2,19,-1
 28 1114 l 1,20,-1
 28 1146 l 1,21,-1
 449 1146 l 2,22,23
 602 1146 602 1146 691 1114 c 128,-1,24
 780 1082 780 1082 841 1006.5 c 128,-1,25
 902 931 902 931 902 829 c 0,26,27
 902 688 902 688 809 600.5 c 128,-1,28
 716 513 716 513 547 513 c 0,29,30
 506 513 506 513 458 518.5 c 128,-1,31
 410 524 410 524 355 537 c 1,0,-1
355 585 m 1,32,33
 400 576 400 576 434.5 572 c 128,-1,34
 469 568 469 568 493 568 c 0,35,36
 581 568 581 568 644.5 635.5 c 128,-1,37
 708 703 708 703 708 812 c 0,38,39
 708 886 708 886 678.5 950 c 128,-1,40
 649 1014 649 1014 593 1045.5 c 128,-1,41
 537 1077 537 1077 466 1077 c 0,42,43
 422 1077 422 1077 355 1061 c 1,44,-1
 355 585 l 1,32,33
EndSplineSet
EndChar

StartChar: Q
Encoding: 81 81 506
Width: 1250
Flags: W
LayerCount: 2
Fore
SplineSet
762 -12 m 1,0,1
 848 -162 848 -162 948.5 -232 c 128,-1,2
 1049 -302 1049 -302 1177 -312 c 1,3,-1
 1177 -339 l 1,4,5
 1060 -334 1060 -334 927 -291.5 c 128,-1,6
 794 -249 794 -249 675 -174 c 128,-1,7
 556 -99 556 -99 471 -12 c 1,8,9
 348 36 348 36 278 91 c 0,10,11
 175 173 175 173 118.5 292.5 c 128,-1,12
 62 412 62 412 62 576 c 0,13,14
 62 832 62 832 228 1002 c 128,-1,15
 394 1172 394 1172 630 1172 c 0,16,17
 855 1172 855 1172 1019.5 1001.5 c 128,-1,18
 1184 831 1184 831 1184 572 c 0,19,20
 1184 361 1184 361 1067 202.5 c 128,-1,21
 950 44 950 44 762 -12 c 1,0,1
620 1107 m 0,22,23
 466 1107 466 1107 373 997 c 0,24,25
 254 860 254 860 254 576 c 0,26,27
 254 297 254 297 374 147 c 0,28,29
 466 32 466 32 620 32 c 0,30,31
 780 32 780 32 876 147 c 0,32,33
 991 284 991 284 991 551 c 0,34,35
 991 756 991 756 928 897 c 0,36,37
 880 1004 880 1004 800 1055.5 c 128,-1,38
 720 1107 720 1107 620 1107 c 0,22,23
EndSplineSet
EndChar

StartChar: R
Encoding: 82 82 507
Width: 1155
Flags: W
LayerCount: 2
Fore
SplineSet
1169 0 m 1,0,-1
 864 0 l 1,1,-1
 475 535 l 1,2,3
 433 534 433 534 406 534 c 0,4,5
 395 534 395 534 382.5 534 c 128,-1,6
 370 534 370 534 356 535 c 1,7,-1
 356 202 l 2,8,9
 356 95 356 95 379 69 c 0,10,11
 412 32 412 32 475 32 c 2,12,-1
 521 32 l 1,13,-1
 521 0 l 1,14,-1
 30 0 l 1,15,-1
 30 32 l 1,16,-1
 73 32 l 2,17,18
 146 32 146 32 176 78 c 0,19,20
 194 105 194 105 194 202 c 2,21,-1
 194 943 l 2,22,23
 194 1051 194 1051 171 1077 c 0,24,25
 137 1114 137 1114 73 1114 c 2,26,-1
 30 1114 l 1,27,-1
 30 1146 l 1,28,-1
 447 1146 l 2,29,30
 629 1146 629 1146 716 1119 c 128,-1,31
 803 1092 803 1092 863 1021 c 128,-1,32
 923 950 923 950 923 851 c 0,33,34
 923 745 923 745 854.5 667.5 c 128,-1,35
 786 590 786 590 641 558 c 1,36,-1
 877 229 l 2,37,38
 959 116 959 116 1017 78.5 c 128,-1,39
 1075 41 1075 41 1169 32 c 1,40,-1
 1169 0 l 1,0,-1
356 590 m 1,41,42
 371 590 371 590 383 589 c 128,-1,43
 395 588 395 588 403 588 c 0,44,45
 567 588 567 588 650 659 c 128,-1,46
 733 730 733 730 733 840 c 0,47,48
 733 947 733 947 665.5 1014.5 c 128,-1,49
 598 1082 598 1082 488 1082 c 0,50,51
 439 1082 439 1082 356 1066 c 1,52,-1
 356 590 l 1,41,42
EndSplineSet
EndChar

StartChar: S
Encoding: 83 83 508
Width: 962
Flags: W
LayerCount: 2
Fore
SplineSet
793 1172 m 1,0,-1
 793 775 l 1,1,-1
 762 775 l 1,2,3
 746 889 746 889 707.5 956.5 c 128,-1,4
 669 1024 669 1024 596 1064 c 128,-1,5
 523 1104 523 1104 445 1104 c 0,6,7
 357 1104 357 1104 300 1050.5 c 128,-1,8
 243 997 243 997 243 928 c 0,9,10
 243 876 243 876 279 833 c 0,11,12
 332 770 332 770 528 664 c 0,13,14
 688 577 688 577 747 531.5 c 128,-1,15
 806 486 806 486 837.5 423.5 c 128,-1,16
 869 361 869 361 869 292 c 0,17,18
 869 163 869 163 768 68.5 c 128,-1,19
 667 -26 667 -26 509 -26 c 0,20,21
 458 -26 458 -26 415 -19 c 0,22,23
 389 -15 389 -15 306.5 12 c 128,-1,24
 224 39 224 39 202 39 c 256,25,26
 180 39 180 39 168.5 26.5 c 128,-1,27
 157 14 157 14 150 -26 c 1,28,-1
 120 -26 l 1,29,-1
 120 366 l 1,30,-1
 150 366 l 1,31,32
 172 243 172 243 209.5 182 c 128,-1,33
 247 121 247 121 323.5 80.5 c 128,-1,34
 400 40 400 40 491 40 c 0,35,36
 597 40 597 40 658 95.5 c 128,-1,37
 719 151 719 151 719 227 c 0,38,39
 719 269 719 269 695.5 312.5 c 128,-1,40
 672 356 672 356 623 392 c 0,41,42
 590 418 590 418 443.5 500.5 c 128,-1,43
 297 583 297 583 234.5 632 c 128,-1,44
 172 681 172 681 139.5 740 c 128,-1,45
 107 799 107 799 107 870 c 0,46,47
 107 994 107 994 202 1083 c 128,-1,48
 297 1172 297 1172 444 1172 c 0,49,50
 534 1172 534 1172 637 1126 c 0,51,52
 685 1105 685 1105 703 1105 c 0,53,54
 725 1105 725 1105 739.5 1118.5 c 128,-1,55
 754 1132 754 1132 762 1172 c 1,56,-1
 793 1172 l 1,0,-1
EndSplineSet
EndChar

StartChar: T
Encoding: 84 84 509
Width: 1057
Flags: W
LayerCount: 2
Fore
SplineSet
1001 1146 m 1,0,-1
 1014 876 l 1,1,-1
 982 876 l 1,2,3
 972 949 972 949 957 978 c 0,4,5
 930 1028 930 1028 886.5 1051 c 128,-1,6
 843 1074 843 1074 772 1074 c 2,7,-1
 611 1074 l 1,8,-1
 611 199 l 2,9,10
 611 93 611 93 634 67 c 0,11,12
 665 32 665 32 733 32 c 2,13,-1
 772 32 l 1,14,-1
 772 0 l 1,15,-1
 286 0 l 1,16,-1
 286 32 l 1,17,-1
 327 32 l 2,18,19
 400 32 400 32 429 75 c 0,20,21
 449 102 449 102 449 199 c 2,22,-1
 449 1074 l 1,23,-1
 311 1074 l 2,24,25
 231 1074 231 1074 196 1062 c 0,26,27
 153 1045 153 1045 122 1000 c 128,-1,28
 91 955 91 955 84 876 c 1,29,-1
 53 876 l 1,30,-1
 65 1146 l 1,31,-1
 1001 1146 l 1,0,-1
EndSplineSet
EndChar

StartChar: U
Encoding: 85 85 510
Width: 1250
Flags: W
LayerCount: 2
Fore
SplineSet
825 1114 m 1,0,-1
 825 1146 l 1,1,-1
 1231 1146 l 1,2,-1
 1231 1114 l 1,3,-1
 1188 1114 l 2,4,5
 1120 1114 1120 1114 1083 1058 c 0,6,7
 1067 1031 1067 1031 1067 935 c 2,8,-1
 1067 471 l 2,9,10
 1067 299 1067 299 1032.5 204 c 128,-1,11
 998 109 998 109 897.5 41 c 128,-1,12
 797 -27 797 -27 625 -27 c 0,13,14
 437 -27 437 -27 340 38.5 c 128,-1,15
 243 104 243 104 202 213 c 0,16,17
 175 289 175 289 175 495 c 2,18,-1
 175 943 l 2,19,20
 175 1049 175 1049 146 1081.5 c 128,-1,21
 117 1114 117 1114 53 1114 c 2,22,-1
 10 1114 l 1,23,-1
 10 1146 l 1,24,-1
 505 1146 l 1,25,-1
 505 1114 l 1,26,-1
 460 1114 l 2,27,28
 390 1114 390 1114 359 1070 c 0,29,30
 338 1039 338 1039 338 943 c 2,31,-1
 338 444 l 2,32,33
 338 377 338 377 350.5 291 c 128,-1,34
 363 205 363 205 395 156 c 128,-1,35
 427 107 427 107 487 76.5 c 128,-1,36
 547 46 547 46 635 46 c 0,37,38
 748 46 748 46 836.5 94.5 c 128,-1,39
 925 143 925 143 958 220 c 128,-1,40
 991 297 991 297 991 480 c 2,41,-1
 991 943 l 2,42,43
 991 1050 991 1050 966 1077 c 0,44,45
 934 1114 934 1114 868 1114 c 2,46,-1
 825 1114 l 1,0,-1
EndSplineSet
EndChar

StartChar: V
Encoding: 86 86 511
Width: 1250
Flags: W
LayerCount: 2
Fore
SplineSet
1228 1146 m 1,0,-1
 1228 1114 l 1,1,2
 1168 1104 1168 1104 1136 1075 c 0,3,4
 1092 1034 1092 1034 1057 949 c 2,5,-1
 656 -26 l 1,6,-1
 627 -26 l 1,7,-1
 196 961 l 2,8,9
 164 1037 164 1037 150 1054 c 0,10,11
 128 1081 128 1081 98 1095.5 c 128,-1,12
 68 1110 68 1110 15 1114 c 1,13,-1
 15 1146 l 1,14,-1
 484 1146 l 1,15,-1
 484 1114 l 1,16,17
 403 1107 403 1107 380 1087 c 128,-1,18
 357 1067 357 1067 357 1037 c 0,19,20
 357 994 357 994 395 906 c 2,21,-1
 686 234 l 1,22,-1
 957 898 l 2,23,24
 997 994 997 994 997 1033 c 0,25,26
 997 1058 997 1058 973 1080.5 c 128,-1,27
 949 1103 949 1103 889 1112 c 0,28,29
 885 1113 885 1113 876 1114 c 1,30,-1
 876 1146 l 1,31,-1
 1228 1146 l 1,0,-1
EndSplineSet
EndChar

StartChar: W
Encoding: 87 87 512
Width: 1632
Flags: W
LayerCount: 2
Fore
SplineSet
1620 1146 m 1,0,-1
 1620 1114 l 1,1,2
 1574 1114 1574 1114 1546.5 1098 c 128,-1,3
 1519 1082 1519 1082 1493 1038 c 0,4,5
 1477 1008 1477 1008 1441 898 c 2,6,-1
 1121 -26 l 1,7,-1
 1088 -26 l 1,8,-1
 825 707 l 1,9,-1
 567 -26 l 1,10,-1
 537 -26 l 1,11,-1
 196 925 l 2,12,13
 158 1031 158 1031 148 1051 c 0,14,15
 131 1083 131 1083 102 1098.5 c 128,-1,16
 73 1114 73 1114 23 1114 c 1,17,-1
 23 1146 l 1,18,-1
 447 1146 l 1,19,-1
 447 1114 l 1,20,-1
 427 1114 l 2,21,22
 382 1114 382 1114 358 1094 c 128,-1,23
 334 1074 334 1074 334 1045 c 256,24,25
 334 1016 334 1016 371 909 c 2,26,-1
 598 266 l 1,27,-1
 788 813 l 1,28,-1
 754 909 l 1,29,-1
 727 986 l 2,30,31
 708 1029 708 1029 686 1060 c 0,32,33
 676 1076 676 1076 660 1088 c 0,34,35
 639 1103 639 1103 618 1109 c 0,36,37
 602 1114 602 1114 567 1114 c 1,38,-1
 567 1146 l 1,39,-1
 1013 1146 l 1,40,-1
 1013 1114 l 1,41,-1
 982 1114 l 2,42,43
 935 1114 935 1114 913 1094 c 128,-1,44
 891 1074 891 1074 891 1039 c 0,45,46
 891 996 891 996 929 889 c 2,47,-1
 1149 266 l 1,48,-1
 1367 898 l 2,49,50
 1404 1002 1404 1002 1404 1042 c 0,51,52
 1404 1062 1404 1062 1391.5 1079 c 128,-1,53
 1379 1096 1379 1096 1361 1103 c 0,54,55
 1329 1114 1329 1114 1278 1114 c 1,56,-1
 1278 1146 l 1,57,-1
 1620 1146 l 1,0,-1
EndSplineSet
EndChar

StartChar: X
Encoding: 88 88 513
Width: 1250
Flags: W
LayerCount: 2
Fore
SplineSet
707 634 m 1,0,-1
 952 268 l 2,1,2
 1054 116 1054 116 1103.5 76 c 128,-1,3
 1153 36 1153 36 1229 32 c 1,4,-1
 1229 0 l 1,5,-1
 737 0 l 1,6,-1
 737 32 l 1,7,8
 787 32 787 32 810 41 c 0,9,10
 828 48 828 48 839.5 64 c 128,-1,11
 851 80 851 80 851 96 c 0,12,13
 851 116 851 116 843 136 c 0,14,15
 838 150 838 150 796 209 c 2,16,-1
 602 503 l 1,17,-1
 363 196 l 2,18,19
 324 147 324 147 317 130.5 c 128,-1,20
 310 114 310 114 310 96 c 0,21,22
 310 70 310 70 332.5 51.5 c 128,-1,23
 355 33 355 33 419 32 c 1,24,-1
 419 0 l 1,25,-1
 12 0 l 1,26,-1
 12 32 l 1,27,28
 56 36 56 36 86 48 c 0,29,30
 139 70 139 70 186.5 108 c 128,-1,31
 234 146 234 146 295 222 c 2,32,-1
 565 564 l 1,33,-1
 340 893 l 2,34,35
 247 1029 247 1029 183.5 1070.5 c 128,-1,36
 120 1112 120 1112 36 1114 c 1,37,-1
 36 1146 l 1,38,-1
 565 1146 l 1,39,-1
 565 1114 l 1,40,41
 497 1112 497 1112 472.5 1092.5 c 128,-1,42
 448 1073 448 1073 448 1050 c 0,43,44
 448 1018 448 1018 488 957 c 2,45,-1
 664 695 l 1,46,-1
 868 952 l 2,47,48
 903 999 903 999 911 1016 c 128,-1,49
 919 1033 919 1033 919 1050 c 256,50,51
 919 1067 919 1067 909 1082 c 0,52,53
 897 1099 897 1099 877 1106 c 128,-1,54
 857 1113 857 1113 796 1114 c 1,55,-1
 796 1146 l 1,56,-1
 1203 1146 l 1,57,-1
 1203 1114 l 1,58,59
 1155 1112 1155 1112 1125 1099 c 0,60,61
 1079 1079 1079 1079 1041 1046.5 c 128,-1,62
 1003 1014 1003 1014 934 925 c 2,63,-1
 707 634 l 1,0,-1
EndSplineSet
EndChar

StartChar: Y
Encoding: 89 89 514
Width: 1250
Flags: W
LayerCount: 2
Fore
SplineSet
825 1146 m 1,0,-1
 1224 1146 l 1,1,-1
 1224 1114 l 1,2,-1
 1202 1114 l 2,3,4
 1181 1114 1181 1114 1138.5 1094.5 c 128,-1,5
 1096 1075 1096 1075 1061 1039 c 128,-1,6
 1026 1003 1026 1003 976 920 c 2,7,-1
 699 486 l 1,8,-1
 699 199 l 2,9,10
 699 93 699 93 723 67 c 0,11,12
 755 32 755 32 825 32 c 2,13,-1
 862 32 l 1,14,-1
 862 0 l 1,15,-1
 375 0 l 1,16,-1
 375 32 l 1,17,-1
 416 32 l 2,18,19
 488 32 488 32 518 75 c 0,20,21
 538 102 538 102 538 199 c 2,22,-1
 538 470 l 1,23,-1
 223 950 l 2,24,25
 167 1034 167 1034 147.5 1055 c 128,-1,26
 128 1076 128 1076 65 1105 c 0,27,28
 48 1114 48 1114 16 1114 c 1,29,-1
 16 1146 l 1,30,-1
 506 1146 l 1,31,-1
 506 1114 l 1,32,-1
 480 1114 l 2,33,34
 442 1114 442 1114 408 1095.5 c 128,-1,35
 374 1077 374 1077 374 1040 c 0,36,37
 374 1009 374 1009 426 930 c 2,38,-1
 665 561 l 1,39,-1
 889 914 l 2,40,41
 940 994 940 994 940 1033 c 0,42,43
 940 1056 940 1056 927.5 1074.5 c 128,-1,44
 915 1093 915 1093 892.5 1103.5 c 128,-1,45
 870 1114 870 1114 825 1114 c 1,46,-1
 825 1146 l 1,0,-1
EndSplineSet
EndChar

StartChar: Z
Encoding: 90 90 515
Width: 1057
Flags: W
LayerCount: 2
Fore
SplineSet
994 1146 m 1,0,-1
 243 70 l 1,1,-1
 712 70 l 2,2,3
 820 70 820 70 877.5 117 c 128,-1,4
 935 164 935 164 981 308 c 1,5,-1
 1008 303 l 1,6,-1
 955 0 l 1,7,-1
 22 0 l 1,8,-1
 22 32 l 1,9,-1
 757 1077 l 1,10,-1
 391 1077 l 2,11,12
 299 1077 299 1077 258 1057 c 128,-1,13
 217 1037 217 1037 195.5 999.5 c 128,-1,14
 174 962 174 962 157 860 c 1,15,-1
 125 860 l 1,16,-1
 148 1146 l 1,17,-1
 994 1146 l 1,0,-1
EndSplineSet
EndChar

StartChar: a
Encoding: 97 97 516
Width: 767
Flags: W
LayerCount: 2
Fore
SplineSet
492 112 m 1,0,1
 374 19 374 19 343 5 c 0,2,3
 297 -16 297 -16 246 -16 c 0,4,5
 165 -16 165 -16 113.5 39 c 128,-1,6
 62 94 62 94 62 184 c 0,7,8
 62 239 62 239 86 281 c 0,9,10
 121 339 121 339 207.5 389.5 c 128,-1,11
 294 440 294 440 492 513 c 1,12,-1
 492 543 l 2,13,14
 492 659 492 659 455.5 702 c 128,-1,15
 419 745 419 745 348 745 c 0,16,17
 296 745 296 745 264 716 c 256,18,19
 232 687 232 687 232 650 c 2,20,-1
 234 602 l 2,21,22
 234 563 234 563 214 542 c 128,-1,23
 194 521 194 521 163 521 c 0,24,25
 131 521 131 521 111 542.5 c 128,-1,26
 91 564 91 564 91 602 c 0,27,28
 91 675 91 675 165 735.5 c 128,-1,29
 239 796 239 796 374 796 c 0,30,31
 477 796 477 796 543 762 c 0,32,33
 593 736 593 736 617 680 c 0,34,35
 632 644 632 644 632 532 c 2,36,-1
 632 268 l 2,37,38
 632 158 632 158 636 132.5 c 128,-1,39
 640 107 640 107 650 99 c 128,-1,40
 660 91 660 91 672 91 c 0,41,42
 686 91 686 91 696 97 c 0,43,44
 714 107 714 107 765 158 c 1,45,-1
 765 112 l 1,46,47
 670 -15 670 -15 584 -15 c 0,48,49
 543 -15 543 -15 518 13.5 c 128,-1,50
 493 42 493 42 492 112 c 1,0,1
492 167 m 1,51,-1
 492 461 l 1,52,53
 365 411 365 411 327 390 c 0,54,55
 260 353 260 353 232 312 c 128,-1,56
 204 271 204 271 204 223 c 0,57,58
 204 163 204 163 240 123 c 128,-1,59
 276 83 276 83 323 83 c 0,60,61
 387 83 387 83 492 167 c 1,51,-1
EndSplineSet
EndChar

StartChar: b
Encoding: 98 98 517
Width: 865
Flags: W
LayerCount: 2
Fore
SplineSet
266 640 m 1,0,1
 378 796 378 796 509 796 c 0,2,3
 627 796 627 796 715.5 694.5 c 128,-1,4
 804 593 804 593 804 416 c 0,5,6
 804 210 804 210 669 84 c 0,7,8
 551 -23 551 -23 407 -23 c 0,9,10
 339 -23 339 -23 269.5 1.5 c 128,-1,11
 200 26 200 26 127 74 c 1,12,-1
 127 876 l 2,13,14
 127 1008 127 1008 120.5 1038 c 128,-1,15
 114 1068 114 1068 100 1079.5 c 128,-1,16
 86 1091 86 1091 67 1091 c 0,17,18
 43 1091 43 1091 7 1077 c 1,19,-1
 -4 1107 l 1,20,-1
 228 1202 l 1,21,-1
 266 1202 l 1,22,-1
 266 640 l 1,0,1
266 586 m 1,23,-1
 266 123 l 1,24,25
 310 81 310 81 355.5 59.5 c 128,-1,26
 401 38 401 38 450 38 c 0,27,28
 526 38 526 38 592.5 122.5 c 128,-1,29
 659 207 659 207 659 369 c 0,30,31
 659 517 659 517 592.5 597 c 128,-1,32
 526 677 526 677 442 677 c 0,33,34
 397 677 397 677 353 654 c 0,35,36
 319 637 319 637 266 586 c 1,23,-1
EndSplineSet
EndChar

StartChar: c
Encoding: 99 99 518
Width: 767
Flags: W
LayerCount: 2
Fore
SplineSet
712 294 m 1,0,1
 680 142 680 142 588.5 59.5 c 128,-1,2
 497 -23 497 -23 386 -23 c 0,3,4
 255 -23 255 -23 157 87 c 128,-1,5
 59 197 59 197 59 386 c 0,6,7
 59 568 59 568 167.5 682 c 128,-1,8
 276 796 276 796 429 796 c 0,9,10
 543 796 543 796 616.5 736 c 128,-1,11
 690 676 690 676 690 611 c 0,12,13
 690 579 690 579 669.5 559 c 128,-1,14
 649 539 649 539 611 539 c 0,15,16
 561 539 561 539 535 571 c 0,17,18
 522 590 522 590 517 639 c 128,-1,19
 512 688 512 688 482 715 c 0,20,21
 453 740 453 740 400 740 c 0,22,23
 316 740 316 740 264 678 c 0,24,25
 196 595 196 595 196 458 c 0,26,27
 196 320 196 320 264 213.5 c 128,-1,28
 332 107 332 107 448 107 c 0,29,30
 530 107 530 107 597 165 c 0,31,32
 643 204 643 204 686 306 c 1,33,-1
 712 294 l 1,0,1
EndSplineSet
EndChar

StartChar: d
Encoding: 100 100 519
Width: 865
Flags: W
LayerCount: 2
Fore
SplineSet
601 86 m 1,0,1
 544 27 544 27 490 2 c 128,-1,2
 436 -23 436 -23 374 -23 c 0,3,4
 247 -23 247 -23 152 82.5 c 128,-1,5
 57 188 57 188 57 355 c 256,6,7
 57 522 57 522 162.5 659.5 c 128,-1,8
 268 797 268 797 432 797 c 0,9,10
 534 797 534 797 601 733 c 1,11,-1
 601 876 l 2,12,13
 601 1008 601 1008 594.5 1038 c 128,-1,14
 588 1068 588 1068 574.5 1079.5 c 128,-1,15
 561 1091 561 1091 540 1091 c 0,16,17
 518 1091 518 1091 482 1077 c 1,18,-1
 471 1107 l 1,19,-1
 702 1202 l 1,20,-1
 740 1202 l 1,21,-1
 740 306 l 2,22,23
 740 171 740 171 746.5 141 c 128,-1,24
 753 111 753 111 767 98.5 c 128,-1,25
 781 86 781 86 799 86 c 0,26,27
 822 86 822 86 860 101 c 1,28,-1
 869 72 l 1,29,-1
 640 -23 l 1,30,-1
 601 -23 l 1,31,-1
 601 86 l 1,0,1
601 146 m 1,32,-1
 601 545 l 1,33,34
 596 602 596 602 570.5 649.5 c 128,-1,35
 545 697 545 697 503 721 c 128,-1,36
 461 745 461 745 422 745 c 0,37,38
 348 745 348 745 290 678 c 0,39,40
 212 590 212 590 212 422 c 0,41,42
 212 252 212 252 286.5 161 c 128,-1,43
 361 70 361 70 452 70 c 0,44,45
 529 70 529 70 601 146 c 1,32,-1
EndSplineSet
EndChar

StartChar: e
Encoding: 101 101 520
Width: 767
Flags: W
LayerCount: 2
Fore
SplineSet
184 482 m 1,0,1
 184 311 184 311 268 212 c 0,2,3
 353 114 353 114 466 114 c 0,4,5
 543 114 543 114 599 155.5 c 128,-1,6
 655 197 655 197 693 299 c 1,7,-1
 719 282 l 1,8,9
 701 167 701 167 615.5 72 c 128,-1,10
 530 -23 530 -23 402 -23 c 0,11,12
 263 -23 263 -23 163.5 85.5 c 128,-1,13
 64 194 64 194 64 377 c 0,14,15
 64 576 64 576 166 686.5 c 128,-1,16
 268 797 268 797 422 797 c 0,17,18
 551 797 551 797 635 712 c 128,-1,19
 719 627 719 627 719 482 c 1,20,-1
 184 482 l 1,0,1
184 532 m 1,21,-1
 543 532 l 1,22,23
 539 606 539 606 524 635 c 0,24,25
 503 683 503 683 462 710 c 128,-1,26
 421 737 421 737 374 737 c 0,27,28
 304 737 304 737 249 682.5 c 128,-1,29
 194 628 194 628 184 532 c 1,21,-1
EndSplineSet
EndChar

StartChar: f
Encoding: 102 102 521
Width: 576
Flags: W
LayerCount: 2
Fore
SplineSet
357 713 m 1,0,-1
 357 205 l 2,1,2
 357 96 357 96 380 68 c 0,3,4
 412 31 412 31 464 31 c 2,5,-1
 534 31 l 1,6,-1
 534 0 l 1,7,-1
 72 0 l 1,8,-1
 72 31 l 1,9,-1
 106 31 l 2,10,11
 141 31 141 31 168.5 47.5 c 128,-1,12
 196 64 196 64 206.5 92.5 c 128,-1,13
 217 121 217 121 217 205 c 2,14,-1
 217 713 l 1,15,-1
 67 713 l 1,16,-1
 67 774 l 1,17,-1
 217 774 l 1,18,-1
 217 825 l 2,19,20
 217 940 217 940 254 1020 c 128,-1,21
 291 1100 291 1100 367.5 1149.5 c 128,-1,22
 444 1199 444 1199 539 1199 c 0,23,24
 628 1199 628 1199 703 1142 c 0,25,26
 752 1104 752 1104 752 1057 c 0,27,28
 752 1031 752 1031 730 1008.5 c 128,-1,29
 708 986 708 986 682 986 c 0,30,31
 664 986 664 986 642 1000.5 c 128,-1,32
 620 1015 620 1015 589 1061 c 128,-1,33
 558 1107 558 1107 532 1123 c 0,34,35
 505 1139 505 1139 473 1139 c 0,36,37
 434 1139 434 1139 407 1118 c 128,-1,38
 380 1097 380 1097 368.5 1053.5 c 128,-1,39
 357 1010 357 1010 357 830 c 2,40,-1
 357 774 l 1,41,-1
 555 774 l 1,42,-1
 555 713 l 1,43,-1
 357 713 l 1,0,-1
EndSplineSet
EndChar

StartChar: g
Encoding: 103 103 522
Width: 865
Flags: W
LayerCount: 2
Fore
SplineSet
260 282 m 1,0,1
 190 317 190 317 152 379.5 c 128,-1,2
 114 442 114 442 114 517 c 0,3,4
 114 632 114 632 200.5 714 c 128,-1,5
 287 796 287 796 422 796 c 0,6,7
 533 796 533 796 614 743 c 1,8,-1
 778 743 l 2,9,10
 814 743 814 743 819.5 740.5 c 128,-1,11
 825 738 825 738 829 733 c 0,12,13
 834 725 834 725 834 707 c 0,14,15
 834 685 834 685 830 676 c 0,16,17
 827 671 827 671 820.5 668.5 c 128,-1,18
 814 666 814 666 778 666 c 2,19,-1
 678 666 l 1,20,21
 724 606 724 606 724 511 c 0,22,23
 724 403 724 403 642 326 c 128,-1,24
 560 249 560 249 421 249 c 0,25,26
 363 249 363 249 302 266 c 1,27,28
 265 234 265 234 251.5 210 c 128,-1,29
 238 186 238 186 238 169 c 0,30,31
 238 154 238 154 253 141 c 128,-1,32
 268 128 268 128 307 121 c 0,33,34
 332 118 332 118 426 116 c 0,35,36
 600 112 600 112 651 104 c 0,37,38
 730 93 730 93 777 45.5 c 128,-1,39
 824 -2 824 -2 824 -70 c 0,40,41
 824 -167 824 -167 734 -250 c 0,42,43
 602 -374 602 -374 391 -374 c 0,44,45
 227 -374 227 -374 115 -300 c 0,46,47
 52 -258 52 -258 52 -212 c 0,48,49
 52 -192 52 -192 62 -171 c 0,50,51
 75 -141 75 -141 121 -84 c 0,52,53
 126 -77 126 -77 206 6 c 1,54,55
 163 33 163 33 144.5 53.5 c 128,-1,56
 126 74 126 74 126 100 c 0,57,58
 126 130 126 130 150 169.5 c 128,-1,59
 174 209 174 209 260 282 c 1,0,1
407 756 m 0,60,61
 345 756 345 756 302.5 706 c 128,-1,62
 260 656 260 656 260 554 c 0,63,64
 260 421 260 421 319 347 c 0,65,66
 363 290 363 290 429 290 c 256,67,68
 495 290 495 290 535.5 338 c 128,-1,69
 576 386 576 386 576 490 c 0,70,71
 576 624 576 624 518 700 c 0,72,73
 475 756 475 756 407 756 c 0,60,61
253 0 m 1,74,75
 213 -43 213 -43 192.5 -80 c 128,-1,76
 172 -117 172 -117 172 -149 c 0,77,78
 172 -189 172 -189 222 -220 c 0,79,80
 306 -273 306 -273 466 -273 c 0,81,82
 618 -273 618 -273 690 -219 c 128,-1,83
 762 -165 762 -165 762 -104 c 0,84,85
 762 -60 762 -60 719 -41 c 0,86,87
 675 -23 675 -23 545 -19 c 0,88,89
 355 -15 355 -15 253 0 c 1,74,75
EndSplineSet
EndChar

StartChar: h
Encoding: 104 104 523
Width: 865
Flags: W
LayerCount: 2
Fore
SplineSet
281 1202 m 1,0,-1
 281 635 l 1,1,2
 375 738 375 738 430 767 c 128,-1,3
 485 796 485 796 539 796 c 0,4,5
 606 796 606 796 653 760 c 128,-1,6
 700 724 700 724 723 646 c 0,7,8
 739 592 739 592 739 449 c 2,9,-1
 739 175 l 2,10,11
 739 101 739 101 751 74 c 0,12,13
 759 54 759 54 780 42.5 c 128,-1,14
 801 31 801 31 854 31 c 1,15,-1
 854 0 l 1,16,-1
 474 0 l 1,17,-1
 474 31 l 1,18,-1
 492 31 l 2,19,20
 546 31 546 31 567 47 c 128,-1,21
 588 63 588 63 597 95 c 0,22,23
 598 109 598 109 598 175 c 2,24,-1
 598 449 l 2,25,26
 598 576 598 576 585 615.5 c 128,-1,27
 572 655 572 655 544 675 c 128,-1,28
 516 695 516 695 475 695 c 0,29,30
 433 695 433 695 388.5 672.5 c 128,-1,31
 344 650 344 650 281 584 c 1,32,-1
 281 175 l 2,33,34
 281 95 281 95 290 76 c 128,-1,35
 299 57 299 57 323.5 44 c 128,-1,36
 348 31 348 31 407 31 c 1,37,-1
 407 0 l 1,38,-1
 23 0 l 1,39,-1
 23 31 l 1,40,41
 74 31 74 31 104 47 c 0,42,43
 121 55 121 55 131.5 78.5 c 128,-1,44
 142 102 142 102 142 175 c 2,45,-1
 142 876 l 2,46,47
 142 1008 142 1008 135 1038 c 128,-1,48
 128 1068 128 1068 115 1079.5 c 128,-1,49
 102 1091 102 1091 80 1091 c 0,50,51
 62 1091 62 1091 23 1077 c 1,52,-1
 11 1107 l 1,53,-1
 243 1202 l 1,54,-1
 281 1202 l 1,0,-1
EndSplineSet
EndChar

StartChar: i
Encoding: 105 105 524
Width: 480
Flags: W
LayerCount: 2
Fore
SplineSet
252 1202 m 0,0,1
 286 1202 286 1202 311 1176.5 c 128,-1,2
 336 1151 336 1151 336 1116 c 256,3,4
 336 1081 336 1081 311 1055.5 c 128,-1,5
 286 1030 286 1030 252 1030 c 0,6,7
 216 1030 216 1030 190.5 1055.5 c 128,-1,8
 165 1081 165 1081 165 1116 c 256,9,10
 165 1151 165 1151 190 1176.5 c 128,-1,11
 215 1202 215 1202 252 1202 c 0,0,1
321 796 m 1,12,-1
 321 175 l 2,13,14
 321 102 321 102 331.5 78 c 128,-1,15
 342 54 342 54 363 42.5 c 128,-1,16
 384 31 384 31 438 31 c 1,17,-1
 438 0 l 1,18,-1
 62 0 l 1,19,-1
 62 31 l 1,20,21
 120 31 120 31 139 42 c 128,-1,22
 158 53 158 53 169 78.5 c 128,-1,23
 180 104 180 104 180 175 c 2,24,-1
 180 473 l 2,25,26
 180 598 180 598 173 635 c 0,27,28
 167 664 167 664 154.5 674.5 c 128,-1,29
 142 685 142 685 121 685 c 0,30,31
 96 685 96 685 62 671 c 1,32,-1
 51 702 l 1,33,-1
 284 796 l 1,34,-1
 321 796 l 1,12,-1
EndSplineSet
EndChar

StartChar: j
Encoding: 106 106 525
Width: 480
Flags: W
LayerCount: 2
Fore
SplineSet
250 1202 m 0,0,1
 286 1202 286 1202 311.5 1176.5 c 128,-1,2
 337 1151 337 1151 337 1115 c 256,3,4
 337 1079 337 1079 311.5 1054 c 128,-1,5
 286 1029 286 1029 250 1029 c 0,6,7
 215 1029 215 1029 189.5 1054 c 128,-1,8
 164 1079 164 1079 164 1115 c 256,9,10
 164 1151 164 1151 189.5 1176.5 c 128,-1,11
 215 1202 215 1202 250 1202 c 0,0,1
323 796 m 1,12,-1
 323 18 l 2,13,14
 323 -180 323 -180 238.5 -277 c 128,-1,15
 154 -374 154 -374 19 -374 c 0,16,17
 -58 -374 -58 -374 -95.5 -346 c 128,-1,18
 -133 -318 -133 -318 -133 -289 c 0,19,20
 -133 -259 -133 -259 -112 -237.5 c 128,-1,21
 -91 -216 -91 -216 -63 -216 c 0,22,23
 -41 -216 -41 -216 -19 -227 c 0,24,25
 -4 -233 -4 -233 37 -269.5 c 128,-1,26
 78 -306 78 -306 106 -306 c 0,27,28
 126 -306 126 -306 145.5 -290.5 c 128,-1,29
 165 -275 165 -275 174.5 -238.5 c 128,-1,30
 184 -202 184 -202 184 -79 c 2,31,-1
 184 471 l 2,32,33
 184 598 184 598 175 635 c 0,34,35
 170 664 170 664 157 674.5 c 128,-1,36
 144 685 144 685 122 685 c 0,37,38
 99 685 99 685 65 671 c 1,39,-1
 53 702 l 1,40,-1
 286 796 l 1,41,-1
 323 796 l 1,12,-1
EndSplineSet
EndChar

